<?xml version="1.0" encoding="UTF-8" standalone="no"?>
<!-- Created with Inkscape (http://www.inkscape.org/) -->

<svg
   xmlns:dc="http://purl.org/dc/elements/1.1/"
   xmlns:cc="http://creativecommons.org/ns#"
   xmlns:rdf="http://www.w3.org/1999/02/22-rdf-syntax-ns#"
   xmlns:svg="http://www.w3.org/2000/svg"
   xmlns="http://www.w3.org/2000/svg"
   xmlns:sodipodi="http://sodipodi.sourceforge.net/DTD/sodipodi-0.dtd"
   xmlns:inkscape="http://www.inkscape.org/namespaces/inkscape"
   width="515.71484"
   height="216.42738"
   id="svg5780"
   version="1.1"
   inkscape:version="0.48.2 r9819"
   sodipodi:docname="Nouveau document 5">
  <defs
     id="defs5782" />
  <sodipodi:namedview
     id="base"
     pagecolor="#ffffff"
     bordercolor="#666666"
     borderopacity="1.0"
     inkscape:pageopacity="0.0"
     inkscape:pageshadow="2"
     inkscape:zoom="0.35"
     inkscape:cx="721.17051"
     inkscape:cy="264.8524"
     inkscape:document-units="px"
     inkscape:current-layer="layer1"
     showgrid="false"
     fit-margin-bottom="5"
     fit-margin-right="5"
     fit-margin-top="5"
     fit-margin-left="5"
     inkscape:window-width="1366"
     inkscape:window-height="706"
     inkscape:window-x="-8"
     inkscape:window-y="-8"
     inkscape:window-maximized="1" />
  <metadata
     id="metadata5785">
    <rdf:RDF>
      <cc:Work
         rdf:about="">
        <dc:format>image/svg+xml</dc:format>
        <dc:type
           rdf:resource="http://purl.org/dc/dcmitype/StillImage" />
        <dc:title></dc:title>
      </cc:Work>
    </rdf:RDF>
  </metadata>
  <g
     inkscape:label="Calque 1"
     inkscape:groupmode="layer"
     id="layer1"
     transform="translate(-132.85687,-450.15799)">
    <g
       transform="matrix(2.8184676,0,0,-2.8184676,173.53867,661.58538)"
       id="g3181">
      <path
         id="path3183"
         style="fill:#231f20;fill-opacity:1;fill-rule:nonzero;stroke:none"
         d="m 0,0 c -6.98,0 -12.66,5.68 -12.66,12.663 l 0,47.916 c 0,6.982 5.68,12.662 12.66,12.662 l 154.107,0 c 6.981,0 12.662,-5.68 12.662,-12.662 l 0,-47.916 C 166.769,5.68 161.088,0 154.107,0 L 0,0 z"
         inkscape:connector-curvature="0" />
    </g>
    <g
       transform="matrix(2.8184676,0,0,-2.8184676,632.75079,625.89618)"
       id="g3185">
      <path
         id="path3187"
         style="fill:#b09247;fill-opacity:1;fill-rule:nonzero;stroke:none"
         d="m 0,0 c 0,-4.867 -3.957,-8.826 -8.822,-8.826 l -154.108,0 c -4.866,0 -8.824,3.959 -8.824,8.826 l 0,47.917 c 0,4.866 3.958,8.824 8.824,8.824 l 154.108,0 C -3.957,56.741 0,52.783 0,47.917 L 0,0 z m -8.822,58.66 -154.108,0 c -5.923,0 -10.741,-4.82 -10.741,-10.743 l 0,-47.917 c 0,-5.924 4.818,-10.743 10.741,-10.743 l 154.108,0 c 5.923,0 10.743,4.819 10.743,10.743 l 0,47.917 c 0,5.923 -4.82,10.743 -10.743,10.743"
         inkscape:connector-curvature="0" />
    </g>
    <g
       transform="matrix(2.8184676,0,0,-2.8184676,229.5887,574.99609)"
       id="g3189">
      <path
         id="path3191"
         style="fill:#b09247;fill-opacity:1;fill-rule:nonzero;stroke:none"
         d="m 0,0 c -0.166,-0.971 -0.811,-2.016 -1.845,-2.016 -0.122,0 -0.249,0.016 -0.375,0.044 -0.467,0.115 -0.828,0.379 -1.049,0.769 -0.294,0.521 -0.334,1.261 -0.106,1.978 0.267,0.843 0.925,1.829 1.902,1.829 0.113,0 0.228,-0.014 0.34,-0.04 C -0.093,2.314 0.186,1.097 0,0 M -1.021,3.025 C -1.287,3.089 -1.549,3.12 -1.8,3.12 -2.518,3.12 -3.164,2.862 -3.716,2.351 -4.458,1.666 -4.827,0.636 -4.657,-0.271 c 0.19,-1.027 1.049,-1.833 2.297,-2.153 0.272,-0.072 0.553,-0.108 0.832,-0.108 1.208,0 2.59,0.721 2.767,2.302 C 1.317,0.477 1.153,1.192 0.776,1.786 0.37,2.417 -0.233,2.835 -1.021,3.025"
         inkscape:connector-curvature="0" />
    </g>
    <g
       transform="matrix(2.8184676,0,0,-2.8184676,247.86478,568.43725)"
       id="g3193">
      <path
         id="path3195"
         style="fill:#b09247;fill-opacity:1;fill-rule:nonzero;stroke:none"
         d="M 0,0 -0.017,0.048 -0.068,0.043 c -0.724,-0.072 -1.463,-0.111 -2.203,-0.111 -0.693,0 -1.39,0.033 -2.067,0.099 l -0.051,0.005 -0.018,-0.048 c -0.148,-0.42 -0.233,-0.653 -0.382,-1.039 l -0.029,-0.08 0.081,-0.009 c 0.079,-0.01 0.143,-0.015 0.229,-0.024 l 0.038,-0.003 0.021,0.031 c 0.384,0.544 0.542,0.635 0.83,0.635 0.037,0 0.073,0 0.112,-0.003 0.141,-0.008 0.192,-0.011 0.332,-0.017 l 0.009,0 c 0.299,-0.012 0.43,-0.042 0.418,-0.618 0,0 -0.004,-2.616 -0.003,-3.462 0.002,-0.097 -0.026,-0.17 -0.081,-0.227 -0.101,-0.099 -0.298,-0.15 -0.584,-0.15 -0.022,0 -0.065,0.003 -0.105,0.007 l -0.01,0.001 c -0.032,0.003 -0.064,0.006 -0.088,0.007 l -0.066,0.003 -0.019,-0.389 0.065,-0.003 c 0.564,-0.03 0.974,-0.042 1.368,-0.042 l 0.036,0 c 0.431,0 0.864,0.013 1.496,0.051 l 0.066,0.004 -0.025,0.387 -0.066,-0.003 c -0.022,-0.002 -0.05,-0.004 -0.082,-0.007 -0.042,-0.003 -0.09,-0.008 -0.119,-0.008 -0.655,0 -0.662,0.282 -0.665,0.374 l -0.016,3.462 c -0.017,0.573 0.115,0.605 0.416,0.618 0.143,0.007 0.208,0.012 0.326,0.018 l 0.073,0.008 c 0.039,0 0.074,0.002 0.109,0.002 0.291,0 0.421,-0.106 0.78,-0.631 l 0.024,-0.033 0.043,0.004 c 0.077,0.009 0.14,0.015 0.208,0.024 l 0.087,0.008 -0.032,0.08 C 0.245,-0.663 0.152,-0.426 0,0"
         inkscape:connector-curvature="0" />
    </g>
    <g
       transform="matrix(2.8184676,0,0,-2.8184676,213.55049,573.2137)"
       id="g3197">
      <path
         id="path3199"
         style="fill:#b09247;fill-opacity:1;fill-rule:nonzero;stroke:none"
         d="m 0,0 -0.035,0.013 -0.029,-0.024 c -0.084,-0.064 -0.139,-0.107 -0.234,-0.18 -0.452,-0.346 -0.722,-0.541 -1.03,-0.541 -0.133,0 -0.265,0.035 -0.426,0.107 -0.406,0.193 -0.645,0.309 -1.016,0.501 -0.175,0.092 -0.284,0.154 -0.319,0.27 -0.036,0.114 0.007,0.271 0.136,0.51 l 1.696,2.988 c 0.046,0.082 0.126,0.191 0.309,0.191 0.156,0 0.317,-0.044 0.489,-0.13 L -0.398,3.677 -0.23,4.02 -0.289,4.049 C -1.126,4.47 -1.567,4.727 -2.345,5.235 l -0.054,0.036 -0.21,-0.32 0.052,-0.037 C -2.099,4.613 -2.082,4.429 -2.202,4.233 L -3.922,1.216 C -4.097,0.93 -4.182,0.803 -4.351,0.803 -4.507,0.803 -4.8,0.98 -5.036,1.135 L -5.092,1.174 -5.32,0.825 -5.266,0.79 c 1.402,-0.915 2.897,-1.703 4.442,-2.343 l 0.046,-0.019 0.032,0.037 c 0.432,0.527 0.658,0.81 1.05,1.324 l 0.05,0.068 -0.079,0.033 C 0.182,-0.073 0.104,-0.043 0,0"
         inkscape:connector-curvature="0" />
    </g>
    <g
       transform="matrix(2.8184676,0,0,-2.8184676,264.44811,568.76756)"
       id="g3201">
      <path
         id="path3203"
         style="fill:#b09247;fill-opacity:1;fill-rule:nonzero;stroke:none"
         d="M 0,0 C 0,0 -0.109,0.3 -0.112,0.308 L -0.147,0.414 C -0.23,0.652 -0.295,0.841 -0.25,0.963 -0.219,1.048 -0.158,1.12 0.031,1.193 L 0.093,1.22 -0.048,1.576 -0.109,1.552 C -0.688,1.325 -1.013,1.212 -1.612,1.029 L -1.676,1.01 -1.564,0.647 -1.465,0.675 c 0.071,0.02 0.116,0.033 0.173,0.033 0.333,0 0.45,-0.277 0.604,-0.738 l 0.704,-2.056 c 0.136,-0.406 0.122,-0.761 -0.037,-1.056 -0.18,-0.334 -0.536,-0.574 -1.061,-0.712 -0.247,-0.066 -0.461,-0.103 -0.621,-0.103 -0.662,0 -1.098,0.367 -1.228,1.031 -0.17,0.885 -0.272,1.424 -0.411,2.169 l -0.096,0.511 c -0.048,0.257 -10e-4,0.405 0.387,0.497 L -2.988,0.265 -3.074,0.64 -3.14,0.625 C -3.922,0.444 -4.373,0.364 -5.153,0.265 L -5.236,0.254 -5.205,0.173 c 0.032,-0.083 0.059,-0.151 0.096,-0.242 l 0.018,-0.046 0.048,0.006 c 0.047,0.003 0.092,0.005 0.132,0.005 0.35,0 0.43,-0.156 0.461,-0.326 0.093,-0.512 0.157,-0.886 0.227,-1.272 l 10e-4,-0.013 c 0.061,-0.333 0.119,-0.671 0.2,-1.115 0.133,-0.731 0.408,-1.226 0.835,-1.51 0.306,-0.203 0.685,-0.305 1.134,-0.305 0.275,0 0.55,0.04 0.893,0.128 0.833,0.214 1.432,0.603 1.739,1.121 0.253,0.43 0.283,0.944 0.091,1.496 C 0.459,-1.295 0.157,-0.451 0,0"
         inkscape:connector-curvature="0" />
    </g>
    <g
       transform="matrix(2.8184676,0,0,-2.8184676,275.11626,583.95261)"
       id="g3205">
      <path
         id="path3207"
         style="fill:#b09247;fill-opacity:1;fill-rule:nonzero;stroke:none"
         d="m 0,0 c 0,0 -5.557,-2.785 -12.142,-2.804 -6.143,-0.016 -11.878,2.647 -11.88,2.648 -2.827,1.223 -4.999,3.043 -4.999,5.95 0,1.322 0.501,2.514 1.305,3.439 l -0.013,0.023 11.095,12.472 0.026,0 c 1.113,1.199 2.691,1.961 4.457,1.961 1.766,0 3.344,-0.762 4.459,-1.961 l 0.025,0 L 3.344,9.352 3.332,9.331 C 4.187,8.396 4.687,7.162 4.719,5.794 4.797,2.64 1.584,0.587 0,0 m 4.324,9.514 -0.003,0.002 0,0.002 -11.617,13.063 -10e-4,0 -0.003,0.003 c -1.311,1.279 -3.033,1.983 -4.851,1.983 -1.817,0 -3.539,-0.704 -4.851,-1.983 l 0,-0.003 -0.003,0 -11.7,-13.184 -0.004,-0.004 -0.002,-0.001 C -29.488,8.327 -29.9,7.084 -29.9,5.794 c 0,-2.892 1.857,-5.166 5.522,-6.753 0.242,-0.109 6.022,-2.723 12.177,-2.723 l 0.061,0 c 6.471,0.016 11.878,2.575 12.49,2.875 0.872,0.332 2.181,1.062 3.252,2.118 C 4.946,2.643 5.639,4.2 5.598,5.816 5.563,7.183 5.125,8.46 4.324,9.514"
         inkscape:connector-curvature="0" />
    </g>
    <g
       transform="matrix(2.8184676,0,0,-2.8184676,278.56494,565.59227)"
       id="g3209">
      <path
         id="path3211"
         style="fill:#b09247;fill-opacity:1;fill-rule:nonzero;stroke:none"
         d="m 0,0 c -0.396,0 -0.825,-0.093 -1.242,-0.183 l -0.027,-0.005 c -0.079,-0.018 -0.16,-0.035 -0.239,-0.051 -0.317,-0.066 -0.685,-0.132 -0.987,-0.132 -0.408,0 -0.663,0.12 -0.777,0.368 -0.159,0.344 0.079,0.76 0.576,1.015 0.307,0.158 0.621,0.235 0.957,0.235 0.371,0 0.718,-0.093 1.042,-0.192 l 0.029,-0.01 0.025,0.016 c 0.061,0.04 0.106,0.066 0.161,0.103 l 0.056,0.034 -0.38,0.599 C -0.913,1.965 -1.019,2.133 -1.152,2.343 L -1.187,2.399 -1.419,2.253 -1.39,1.974 -1.422,1.97 c -0.617,-0.077 -1.1,-0.212 -1.516,-0.428 -0.834,-0.425 -1.559,-1.313 -1.18,-2.254 0.22,-0.54 0.669,-0.805 1.371,-0.805 0.368,0 0.759,0.069 1.091,0.134 0.075,0.016 0.148,0.031 0.225,0.047 0.363,0.073 0.704,0.146 0.993,0.146 0.362,0 0.592,-0.113 0.736,-0.352 0.091,-0.161 0.115,-0.324 0.068,-0.489 -0.106,-0.373 -0.556,-0.654 -0.813,-0.791 -0.392,-0.205 -0.732,-0.3 -1.072,-0.3 -0.492,0 -0.996,0.204 -1.627,0.662 L -3.178,-2.44 -3.21,-2.454 C -3.315,-2.499 -3.394,-2.53 -3.488,-2.567 L -3.571,-2.6 -3.514,-2.669 c 0.353,-0.446 0.556,-0.693 0.947,-1.148 l 0.018,-0.021 0.027,-10e-4 c 0.107,-0.006 0.208,-0.009 0.309,-0.009 0.712,0 1.336,0.143 1.905,0.438 1.512,0.783 1.683,1.749 1.686,2.129 l 0,0.022 C 1.376,-1.004 1.308,-0.765 1.18,-0.568 0.924,-0.181 0.551,0 0,0"
         inkscape:connector-curvature="0" />
    </g>
    <g
       transform="matrix(2.8184676,0,0,-2.8184676,236.2744,535.55841)"
       id="g3213">
      <path
         id="path3215"
         style="fill:#b09247;fill-opacity:1;fill-rule:nonzero;stroke:none"
         d="m 0,0 1.014,0 0,-0.599 -0.047,-0.014 C 0.165,-0.869 -0.487,-1.478 -0.777,-2.24 l -0.018,-0.042 -0.756,0 L 0,0 z m 2.046,-5.828 0.063,0.008 c 0.709,0.06 1.362,0.372 1.833,0.88 l 0.027,0.028 c 0.098,0.114 0.15,0.18 0.152,0.222 L 4.115,-4.674 4.107,-4.66 c -0.011,0.008 -0.02,0.016 -0.034,0.016 -0.029,0 -0.07,-0.026 -0.108,-0.067 -0.462,-0.492 -1.124,-0.774 -1.814,-0.774 -0.009,0 -0.021,0 -0.039,0.001 l -0.066,0.002 0,2.708 1.616,0 c 0.373,-0.012 0.691,-0.195 0.943,-0.545 0.258,-0.359 0.388,-0.795 0.388,-1.294 0,-0.495 -0.13,-0.926 -0.386,-1.284 C 4.353,-6.229 4.07,-6.408 3.729,-6.446 l -1.683,0 0,0.618 z m 0.001,5.005 0.065,0.002 0.039,0.003 c 0.414,0 0.791,-0.086 1.124,-0.254 0.173,-0.085 0.244,-0.131 0.421,-0.255 l 0.012,-0.009 0.118,0.04 -0.43,0.645 -0.209,-0.132 -0.036,0.017 C 2.84,-0.61 2.488,-0.517 2.109,-0.488 l -0.062,0.006 0,0.482 1.755,0 c 0.194,-0.013 0.377,-0.132 0.515,-0.338 0.15,-0.225 0.228,-0.493 0.228,-0.797 0,-0.304 -0.078,-0.573 -0.228,-0.799 -0.128,-0.198 -0.301,-0.32 -0.504,-0.347 l -0.005,-10e-4 -1.761,0 0,1.459 z m -1.033,-1.459 -1.121,0 0.044,0.096 c 0.209,0.437 0.545,0.796 0.975,1.04 l 0.102,0.056 0,-1.192 z m 0,-2.934 -0.102,0.057 c -0.739,0.42 -1.195,1.189 -1.195,2.008 0,0.097 0.008,0.198 0.023,0.319 l 0.009,0.058 1.265,0 0,-2.442 z m -4.799,-1.445 -0.03,0.004 c -0.184,0.022 -0.264,0.103 -0.298,0.168 -0.083,0.156 -0.021,0.385 0.189,0.701 0.021,0.029 0.047,0.072 0.082,0.122 l 0.065,0.098 0.05,-0.106 c 1.082,-2.146 3.28,-3.479 5.739,-3.479 1.877,0 3.66,0.806 4.893,2.208 0.177,0.203 0.192,0.239 0.115,0.317 l -0.009,0.007 -0.004,0 -0.019,0.002 c -0.029,0 -0.09,-0.016 -0.257,-0.168 -1.223,-1.076 -2.863,-1.671 -4.621,-1.671 -1.154,0 -2.282,0.433 -3.177,1.221 -0.881,0.772 -1.503,1.855 -1.752,3.046 l -0.007,0.029 0.018,0.024 c 0.276,0.408 0.578,0.855 0.879,1.298 l 0.047,0.066 0.961,0 -0.01,-0.075 c -0.011,-0.107 -0.017,-0.208 -0.017,-0.304 0,-1.153 0.768,-2.175 1.914,-2.541 L 1.012,-5.709 1.014,-5.934 C 1.002,-6.151 0.886,-6.321 0.653,-6.465 0.515,-6.566 0.351,-6.634 0.165,-6.664 l -0.025,-0.003 0,-0.146 3.995,0 c 0.492,0 1.169,0.194 1.576,0.626 0.375,0.418 0.557,0.906 0.557,1.483 0,0.367 -0.074,0.689 -0.219,0.987 L 5.969,-3.57 5.96,-3.557 c -0.007,0.012 -0.014,0.024 -0.022,0.036 l -0.013,0.019 c -0.024,0.036 -0.048,0.07 -0.071,0.104 -0.009,0.013 -0.02,0.027 -0.033,0.043 l -0.008,0.01 C 5.787,-3.312 5.762,-3.281 5.733,-3.25 L 5.724,-3.237 C 5.72,-3.231 5.714,-3.225 5.709,-3.218 5.703,-3.212 5.688,-3.2 5.688,-3.2 5.365,-2.85 5,-2.686 4.753,-2.611 l -0.163,0.05 0.152,0.076 c 0.321,0.162 0.587,0.448 0.735,0.786 l 0.022,0.053 c 0.003,0.008 0.007,0.018 0.013,0.026 l 0.007,0.025 0.015,0.045 c 0.058,0.177 0.087,0.369 0.087,0.57 0,0.407 -0.122,0.774 -0.359,1.083 C 5.015,0.393 4.62,0.504 4.333,0.514 l -5.506,0 -0.075,-0.121 0.033,-0.017 c 0.214,-0.101 0.333,-0.202 0.372,-0.318 0.028,-0.079 0.019,-0.162 -0.029,-0.247 l 0,-0.002 -2.075,-2.899 0.006,0.219 c 0.026,1.438 0.562,2.787 1.509,3.795 0.951,1.014 2.209,1.572 3.542,1.572 1.492,0 2.941,-0.444 4.084,-1.25 L 6.21,1.235 6.556,1.382 5.398,3.118 4.63,2.653 4.596,2.668 c -0.815,0.35 -1.685,0.526 -2.584,0.526 -3.521,0 -6.386,-2.769 -6.386,-6.173 0,-0.566 0.087,-1.142 0.254,-1.707 l 0.012,-0.032 -0.662,-0.917 c -0.502,-0.687 -0.986,-1.018 -1.521,-1.049 l -0.029,-10e-4 0,-0.128 2.535,0 0,0.152 z"
         inkscape:connector-curvature="0" />
    </g>
    <g
       transform="matrix(2.8184676,0,0,-2.8184676,262.7525,609.98313)"
       id="g3217">
      <path
         id="path3219"
         style="fill:#b09247;fill-opacity:1;fill-rule:nonzero;stroke:none"
         d="m 0,0 c -2.455,-1.037 -5.064,-1.564 -7.752,-1.564 -2.687,0 -5.296,0.527 -7.75,1.564 -2.373,1.004 -4.502,2.438 -6.332,4.27 -1.828,1.828 -3.266,3.957 -4.266,6.329 -1.041,2.455 -1.566,5.063 -1.566,7.752 0,2.688 0.525,5.296 1.566,7.751 1,2.371 2.438,4.501 4.266,6.33 1.83,1.83 3.959,3.265 6.332,4.269 2.454,1.038 5.063,1.565 7.75,1.565 2.688,0 5.297,-0.527 7.752,-1.565 2.372,-1.004 4.503,-2.439 6.331,-4.269 1.829,-1.829 3.265,-3.959 4.267,-6.33 1.039,-2.455 1.567,-5.063 1.567,-7.751 0,-2.689 -0.528,-5.297 -1.567,-7.752 C 9.596,8.227 8.16,6.098 6.331,4.27 4.503,2.438 2.372,1.004 0,0 m 7.69,33.793 c -4.124,4.124 -9.609,6.396 -15.442,6.396 -5.831,0 -11.316,-2.272 -15.442,-6.396 -4.123,-4.126 -6.397,-9.609 -6.397,-15.442 0,-5.834 2.274,-11.319 6.397,-15.442 4.126,-4.127 9.611,-6.397 15.442,-6.397 5.833,0 11.318,2.27 15.442,6.397 4.126,4.123 6.399,9.608 6.399,15.442 0,5.833 -2.273,11.316 -6.399,15.442"
         inkscape:connector-curvature="0" />
    </g>
    <g
       transform="matrix(2.8184676,0,0,-2.8184676,396.18099,531.15314)"
       id="g3221">
      <path
         id="path3223"
         style="fill:#b09247;fill-opacity:1;fill-rule:evenodd;stroke:none"
         d="m 0,0 c 0,3.553 1.823,7.379 5.829,7.379 3.877,0 5.648,-3.761 5.648,-7.25 0,-3.747 -1.943,-7.526 -5.648,-7.526 C 1.823,-7.397 0,-3.565 0,0 m -3.084,4.508 c -1.59,-2.752 -1.59,-6.31 0,-9.064 1.707,-2.956 4.841,-4.584 8.823,-4.584 7.038,0 10.248,4.712 10.248,9.089 0,2.397 -0.914,4.638 -2.563,6.305 -1.858,1.874 -4.478,2.864 -7.595,2.864 -4.027,0 -7.199,-1.634 -8.913,-4.61"
         inkscape:connector-curvature="0" />
    </g>
    <g
       transform="matrix(2.8184676,0,0,-2.8184676,556.84463,519.93)"
       id="g3225">
      <path
         id="path3227"
         style="fill:#b09247;fill-opacity:1;fill-rule:nonzero;stroke:none"
         d="m 0,0 c 0,-3.499 3.593,-4.47 6.764,-5.333 2.741,-0.745 5.12,-1.392 5.12,-3.35 0,-1.927 -2.058,-2.328 -3.776,-2.328 -3.147,0 -4.938,1.18 -7.103,4.689 l -0.094,0.147 -1.584,0 1.564,-5.108 0.117,-0.055 c 2.378,-1.21 4.488,-1.775 6.65,-1.775 5.745,0 8.369,2.903 8.369,5.592 0,3.433 -3.737,4.493 -7.023,5.439 -2.572,0.732 -5.021,1.427 -5.021,3.105 0,1.169 1.408,2.02 3.348,2.02 2.924,0 4.699,-1.445 6.166,-3.016 l 0.09,-0.091 1.159,0 0,4.793 -1.208,0 c 0,0 -0.288,-0.53 -0.42,-0.779 C 11.11,4.742 9.236,5.136 7.421,5.136 3.824,5.136 0,3.338 0,0"
         inkscape:connector-curvature="0" />
    </g>
    <g
       transform="matrix(2.8184676,0,0,-2.8184676,333.4123,506.78157)"
       id="g3229">
      <path
         id="path3231"
         style="fill:#b09247;fill-opacity:1;fill-rule:nonzero;stroke:none"
         d="m 0,0 0,-1.456 0.307,0 c 2.124,0 2.408,-0.6 2.408,-1.191 l 0,-11.1 c 0,-1.746 0,-2.019 -2.408,-2.019 l -0.307,0 0,-1.553 15.5,0 1.704,5.837 -1.572,0 -0.568,-0.987 c -1.252,-2.196 -1.765,-3.107 -3.505,-3.107 l -3.263,0 c -1.037,0 -1.513,0 -1.513,1.829 l 0,11.1 c 0,0.591 0.285,1.191 2.415,1.191 l 0.305,0 L 9.503,0 0,0 z"
         inkscape:connector-curvature="0" />
    </g>
    <g
       transform="matrix(2.8184676,0,0,-2.8184676,535.8879,506.78157)"
       id="g3233">
      <path
         id="path3235"
         style="fill:#b09247;fill-opacity:1;fill-rule:nonzero;stroke:none"
         d="m 0,0 0,-1.456 0.306,0 c 1.971,0 2.068,-1.026 2.068,-2.849 l 0,-6.944 c 0,-2.836 -1.675,-4.327 -4.843,-4.327 -3.117,0 -4.837,1.483 -4.837,4.201 l 0,8.728 c 0,0.772 0.285,1.191 1.771,1.191 l 0.31,0 0,1.456 -8.63,0 0.422,-1.452 0.23,-0.004 c 1.745,-0.057 1.973,-0.663 1.973,-1.191 l 0,-7.808 c 0,-2.298 0.626,-4.093 1.87,-5.325 1.342,-1.331 3.41,-2.004 6.148,-2.004 2.678,0 4.743,0.631 6.134,1.881 1.22,1.102 1.871,2.673 1.871,4.528 l 0,7.07 0,0.48 c -0.008,1.039 -0.014,1.729 0.308,2.049 0.222,0.226 0.645,0.32 1.34,0.32 l 0.308,0 L 6.749,0 0,0 z"
         inkscape:connector-curvature="0" />
    </g>
    <g
       transform="matrix(2.8184676,0,0,-2.8184676,444.65104,506.78157)"
       id="g3237">
      <path
         id="path3239"
         style="fill:#b09247;fill-opacity:1;fill-rule:nonzero;stroke:none"
         d="m 0,0 -1.2,-4.094 1.503,0 0.092,0.148 c 1.236,1.939 1.784,2.214 3.168,2.214 l 1.332,0 c 1.039,0 1.509,0 1.509,-1.831 l 0,-11.096 c 0,-0.591 -0.288,-1.196 -2.418,-1.196 l -0.305,0 0,-1.464 9.517,0 0,1.464 -0.31,0 c -2.127,0 -2.41,0.605 -2.41,1.196 l 0,11.096 c 0,1.831 0.465,1.831 1.503,1.831 l 1.582,0 c 1.311,0 1.743,-0.205 2.968,-2.211 l 0.091,-0.151 1.467,0 L 16.894,0 0,0 z"
         inkscape:connector-curvature="0" />
    </g>
    <g
       transform="matrix(2.8184676,0,0,-2.8184676,340.56871,579.78414)"
       id="g3241">
      <path
         id="path3243"
         style="fill:#b09247;fill-opacity:1;fill-rule:nonzero;stroke:none"
         d="m 0,0 0,-3.194 5.131,0 0,-2.264 -5.131,0 0,-5.296 -2.537,0 0,13.019 8.562,0 L 6.025,0 0,0 z"
         inkscape:connector-curvature="0" />
    </g>
    <g
       transform="matrix(2.8184676,0,0,-2.8184676,380.50046,610.09504)"
       id="g3245">
      <path
         id="path3247"
         style="fill:#b09247;fill-opacity:1;fill-rule:nonzero;stroke:none"
         d="m 0,0 0,10.463 -2.648,-2.3 -0.003,2.562 2.647,2.299 L 2.373,13.019 2.373,0 0,0 z"
         inkscape:connector-curvature="0" />
    </g>
    <g
       transform="matrix(2.8184676,0,0,-2.8184676,448.52642,579.78414)"
       id="g3249">
      <path
         id="path3251"
         style="fill:#b09247;fill-opacity:1;fill-rule:nonzero;stroke:none"
         d="m 0,0 0,-10.754 -2.538,0 0,10.754 -3.395,0 0,2.265 9.329,0 L 3.396,0 0,0 z"
         inkscape:connector-curvature="0" />
    </g>
    <g
       transform="matrix(2.8184676,0,0,-2.8184676,477.3909,610.09504)"
       id="g3253">
      <path
         id="path3255"
         style="fill:#b09247;fill-opacity:1;fill-rule:nonzero;stroke:none"
         d="m 0,0 0,13.019 8.562,0 0,-2.265 -6.023,0 0,-3.046 5.129,0 0,-2.265 -5.129,0 0,-3.176 6.023,0 L 8.562,0 0,0 z"
         inkscape:connector-curvature="0" />
    </g>
    <g
       transform="matrix(2.8184676,0,0,-2.8184676,534.16755,584.20685)"
       id="g3257">
      <path
         id="path3259"
         style="fill:#b09247;fill-opacity:1;fill-rule:nonzero;stroke:none"
         d="m 0,0 -1.642,-4.729 3.23,0 L 0,0 z m 3.032,-9.185 -0.768,2.32 -4.619,0 -0.786,-2.32 -2.646,0 4.728,13.019 1.993,0 4.744,-13.019 -2.646,0 z"
         inkscape:connector-curvature="0" />
    </g>
    <g
       transform="matrix(2.8184676,0,0,-2.8184676,594.86917,610.09504)"
       id="g3261">
      <path
         id="path3263"
         style="fill:#b09247;fill-opacity:1;fill-rule:nonzero;stroke:none"
         d="m 0,0 0,7.596 -2.483,-4.928 -1.719,0 -2.5,4.928 0,-7.596 -2.538,0 0,13.019 2.501,0 3.395,-7.028 3.344,7.028 2.536,0 L 2.536,0 0,0 z"
         inkscape:connector-curvature="0" />
    </g>
    <g
       transform="matrix(2.8184676,0,0,-2.8184676,404.91177,574.62603)"
       id="g3265">
      <path
         id="path3267"
         style="fill:#b09247;fill-opacity:1;fill-rule:nonzero;stroke:none"
         d="m 0,0 -0.739,-1.845 -0.28,0 -0.724,1.845 -0.012,-1.845 -0.433,0 0,2.276 0.68,0 0.631,-1.673 0.636,1.673 0.677,0 0,-2.276 L 0,-1.845 0,0 z m -3.712,0.033 -0.685,0 0,0.398 1.8,0 0,-0.398 -0.682,0 0,-1.878 -0.433,0 0,1.878 z"
         inkscape:connector-curvature="0" />
    </g>
  </g>
</svg>
