<?xml version="1.0" encoding="UTF-8" standalone="no"?>
<!-- Created with Inkscape (http://www.inkscape.org/) -->

<svg
   xmlns:dc="http://purl.org/dc/elements/1.1/"
   xmlns:cc="http://creativecommons.org/ns#"
   xmlns:rdf="http://www.w3.org/1999/02/22-rdf-syntax-ns#"
   xmlns:svg="http://www.w3.org/2000/svg"
   xmlns="http://www.w3.org/2000/svg"
   xmlns:sodipodi="http://sodipodi.sourceforge.net/DTD/sodipodi-0.dtd"
   xmlns:inkscape="http://www.inkscape.org/namespaces/inkscape"
   version="1.1"
   width="219"
   height="75"
   id="svg2"
   xml:space="preserve"
   inkscape:version="0.48.4 r9939"
   sodipodi:docname="Larrousse F1 Logo.svg"><sodipodi:namedview
     pagecolor="#000000"
     bordercolor="#666666"
     borderopacity="1"
     objecttolerance="10"
     gridtolerance="10"
     guidetolerance="10"
     inkscape:pageopacity="0"
     inkscape:pageshadow="2"
     inkscape:window-width="1600"
     inkscape:window-height="838"
     id="namedview3095"
     showgrid="false"
     inkscape:document-units="px"
     inkscape:zoom="0.97319588"
     inkscape:cx="118.68114"
     inkscape:cy="218.86653"
     inkscape:window-x="-8"
     inkscape:window-y="-8"
     inkscape:window-maximized="1"
     inkscape:current-layer="svg2" /><metadata
     id="metadata8"><rdf:RDF><cc:Work
         rdf:about=""><dc:format>image/svg+xml</dc:format><dc:type
           rdf:resource="http://purl.org/dc/dcmitype/StillImage" /><dc:title></dc:title></cc:Work></rdf:RDF></metadata><defs
     id="defs6" /><g
     transform="matrix(1.25,0,0,-1.25,-9.2478903,158.23091)"
     id="g10"><g
       transform="scale(0.1,0.1)"
       id="g12"><path
         d="M 653.977,1050.33 C 570.961,1005.79 520.52,946.375 524.027,883.75 c 1.469,-26.242 11.719,-51.414 29.383,-74.727 62.82,-82.918 219.399,-142.25 407.938,-142.25 241.532,0 437.352,97.114 437.352,216.899 0,66.383 -77.74,114.484 -172.34,154.568 91.17,-41.205 161.67,-94.92 161.67,-154.568 0,-106.039 -191.04,-192.008 -426.682,-192.008 -235.653,0 -415.688,86.555 -426.75,192.016 -11.067,105.465 169.957,210.89 404.312,235.48 54.461,5.72 112.04,9.08 161.36,5.71 -48.52,9.48 -57.3,8.39 -113.153,8.39 -111.957,0 -208.433,-17.72 -291.597,-45.71 -79.75,-23.04 -182.954,-71.73 -203.61,-149.034 -6.785,-25.391 -8.07,-55.864 10.293,-92.828 12.051,-24.266 37.82,-47.969 37.797,-46.743 -98.227,127.61 23.387,216.385 113.977,251.385"
         inkscape:connector-curvature="0"
         id="path16"
         style="fill:#bdbcbc;fill-opacity:1;fill-rule:evenodd;stroke:none" /><path
         d="m 835.809,1033.46 c 4.375,0 4.148,2.77 6.918,0 2.757,-1.38 0,4.15 1.378,4.15 5.536,-1.38 9.676,1.38 12.446,-4.15 1.383,-1.38 2.765,0 2.765,1.38 l -1.382,1.39 c 1.382,-4.15 4.148,0 6.914,-2.77 0,0 1.382,1.38 1.382,2.77 1.383,-1.39 1.383,-2.77 2.766,-2.77 1.383,0 1.383,1.38 1.383,2.77 1.383,-1.39 1.383,-2.77 2.766,-2.77 1.382,0 1.382,1.38 1.382,2.77 0,-2.77 2.766,-2.77 4.149,-4.15 4.148,1.38 9.679,5.53 13.828,1.38 -1.379,0 -1.379,-5.53 -4.149,-1.38 -2.765,-4.15 2.77,-11.06 -4.148,-11.06 -2.766,0 -4.148,-2.77 -6.914,-4.15 -2.766,0 -2.766,-4.15 -2.766,-6.92 1.387,-2.76 -6.914,-4.15 -9.679,-6.91 -1.383,2.76 -4.149,1.38 -5.532,1.38 -1.382,-1.38 -2.765,-4.15 -4.148,-4.15 -5.527,0 -8.297,-1.379 -12.441,-4.149 -4.153,-2.766 -2.77,-9.68 -6.918,-9.68 -8.293,-1.382 -12.446,9.68 -19.36,15.219 4.149,0 2.766,5.53 5.531,6.91 0,1.38 -1.382,1.38 -2.765,1.38 l 1.383,1.38 c -2.766,1.39 -5.532,5.54 -9.68,2.77 1.383,1.38 2.766,1.38 2.766,2.77 -1.383,1.38 -4.149,2.76 -5.532,4.15 -6.914,2.76 -13.828,1.38 -20.742,2.76 -1.383,0 -1.383,-1.38 -2.765,-2.76 l 1.382,1.38 c -1.382,2.76 -6.914,0 -6.914,-1.38 1.383,-4.15 6.914,-2.77 9.68,-6.92 1.379,0 1.379,1.38 1.379,2.77 1.387,-2.77 5.535,-2.77 5.535,-4.15 0,-2.77 -8.297,-1.39 -6.914,-4.15 0,-5.53 12.445,-4.15 9.676,-12.449 0,-1.383 -2.762,1.387 -4.145,2.77 -1.383,0 -2.765,0 -2.765,-1.383 2.765,-1.387 2.765,-4.153 4.148,-5.535 -2.766,-1.379 0,4.148 -2.766,2.765 -1.382,-1.383 -4.148,-1.383 -5.531,-4.144 -2.765,6.914 -9.68,6.914 -16.594,8.297 -2.765,0 0,-4.153 -2.765,-4.153 l -1.387,1.383 1.387,1.387 c 0,2.762 -4.153,1.383 -4.153,2.762 2.766,4.15 12.45,2.77 12.45,6.92 0,4.14 -8.297,2.76 -13.828,5.53 -5.536,1.38 -8.297,-4.15 -12.45,-6.92 -1.382,-1.38 0,-2.76 2.77,-2.76 -5.531,-5.532 -13.828,-2.77 -16.594,-9.685 l -1.387,1.383 -1.382,-1.383 -1.379,1.383 c -4.149,-1.383 -1.383,-6.91 -2.77,-9.679 -1.379,-4.145 4.149,-4.145 8.301,-4.145 1.383,0 1.383,-1.387 2.762,-2.769 1.382,0 2.765,0 2.765,1.382 1.387,-1.382 4.153,-1.382 5.532,-4.144 0,1.379 1.382,1.379 2.769,1.379 2.766,-1.379 4.145,-8.297 6.914,-6.914 5.527,1.382 8.293,6.914 6.914,13.828 0,1.383 -1.387,1.383 -2.765,1.383 1.378,2.769 1.378,5.535 4.144,6.914 2.77,0 6.918,-1.379 9.684,1.382 0,-2.761 1.382,-2.761 2.765,-4.144 1.383,0 2.762,0 4.149,0 -1.387,0 -2.766,0 -2.766,-1.383 l 1.379,-1.387 -1.379,-1.382 c 2.766,-2.762 6.914,-4.145 9.676,0 l -1.379,1.382 c 1.379,2.77 2.766,2.77 4.148,0 l -1.382,-1.382 c 5.531,-2.762 9.679,-5.532 13.824,-11.059 1.387,-1.383 2.769,0 2.769,1.383 1.383,-4.153 5.532,-5.535 8.297,-8.297 -1.383,0 -1.383,-1.387 -1.383,-2.77 1.383,-1.382 4.149,-4.144 2.766,-5.531 -4.148,-1.383 -9.68,-2.765 -12.449,1.387 2.769,1.379 2.769,4.144 4.152,5.527 -4.152,2.766 -9.68,0 -13.828,1.387 -1.383,0 -1.383,-1.387 -2.766,-2.77 4.149,-1.382 9.68,-2.765 8.297,-5.531 -1.383,-4.148 -8.297,-6.914 -13.828,-9.676 1.383,1.379 1.383,1.379 2.762,2.762 -1.379,1.383 -1.379,1.383 -2.762,2.766 -4.148,-5.528 -12.445,-5.528 -16.594,-11.063 -2.765,-5.531 -2.765,-12.445 -6.918,-15.211 -4.144,-1.383 -9.675,-2.765 -8.296,-6.914 0,-4.148 5.535,-5.531 4.152,-11.062 -1.383,1.383 -5.531,0 -5.531,2.765 1.379,4.149 -1.383,5.536 -2.766,6.914 -4.148,0 -8.301,4.149 -12.445,0 0,-1.378 0,-1.378 0,-2.765 -5.535,4.148 -12.45,2.765 -16.598,-1.383 5.535,-4.148 -2.762,-6.914 0,-11.066 1.387,-2.762 1.387,-6.914 5.535,-8.297 4.149,0 9.68,-2.762 12.442,1.383 0,0 -1.379,1.386 -2.762,1.386 1.383,4.149 5.527,4.149 8.297,4.149 4.144,-1.383 -1.383,-2.766 -1.383,-4.149 0,-1.386 1.383,-1.386 2.766,-1.386 -4.153,1.386 -4.153,-2.762 -4.153,-5.528 1.387,-2.765 4.153,-2.765 6.914,-2.765 4.153,-1.387 1.387,-6.915 1.387,-9.68 1.383,-1.383 5.527,-4.149 6.914,-4.149 4.149,-1.382 11.063,0 11.063,2.766 1.382,4.148 6.914,1.383 5.531,5.527 1.383,-2.765 4.148,-2.765 6.91,0 1.387,-2.765 4.152,-2.765 6.918,-2.765 1.379,0 1.379,-1.379 2.766,-2.762 1.382,0 2.765,0 2.765,1.383 2.766,-2.766 6.914,-4.149 9.68,-6.918 0,1.387 1.379,2.769 2.766,1.387 l 0,-2.766 c 6.914,-2.766 6.914,2.766 8.296,-4.148 1.383,1.382 2.766,2.761 5.532,2.761 0,-5.527 5.531,-9.676 5.531,-15.211 8.301,0 13.828,-6.914 22.125,-4.144 0,-4.153 4.148,-2.77 5.527,-5.531 2.77,1.378 4.153,-1.383 5.535,-1.383 1.383,-4.153 -1.382,-9.684 -5.535,-11.067 4.153,-1.383 -2.761,-2.761 0,-5.527 0,-1.387 -4.14,0 -4.14,-2.77 0,-1.378 0,-2.765 1.379,-4.148 -4.149,-6.914 -8.293,-11.062 -15.211,-15.211 -1.379,4.149 -4.149,-1.383 -5.532,1.383 -1.382,-1.383 -4.148,-2.766 -4.148,-4.149 1.387,-6.914 -2.766,-11.062 -5.531,-16.593 -1.383,-2.766 -5.532,-1.383 -6.914,-5.532 0,-1.382 -4.149,1.383 -5.532,-2.765 0,-1.383 2.766,-1.383 4.149,-1.383 -4.149,-2.766 -9.68,-5.531 -15.211,-6.914 0,-1.383 1.379,-1.383 2.765,-1.383 -1.386,-1.383 -2.765,-1.383 -4.148,0 -1.383,-2.765 -2.766,-5.531 -4.148,-8.301 l -1.387,1.387 c -4.145,-2.766 0,-5.531 -1.379,-8.297 -2.766,-4.148 -5.531,-8.301 -2.766,-13.828 4.145,2.766 5.532,-2.769 9.68,-1.383 0,-4.152 -6.914,0 -6.914,-5.531 -5.531,2.766 -11.063,5.531 -17.977,6.914 4.149,2.766 2.766,6.914 2.766,11.063 0,1.378 -1.383,1.378 -2.766,1.378 -1.382,-1.378 -1.382,-1.378 -2.765,-2.761 1.383,0 1.383,1.383 1.383,2.761 0,2.77 -4.149,1.387 -4.149,2.77 1.379,4.148 2.766,-1.383 4.149,-1.383 2.765,4.149 8.296,8.297 2.765,12.446 -1.383,0 -2.765,-4.149 -4.148,-5.536 1.383,2.77 5.531,4.153 5.531,8.301 0,1.383 -1.383,1.383 -2.766,1.383 l 1.383,1.383 1.383,-1.383 c 2.766,5.527 -1.383,9.68 2.766,13.828 2.765,2.766 -1.383,2.766 -1.383,4.148 1.383,0 2.765,0 2.765,1.383 0,1.383 -1.382,1.383 -2.765,2.766 1.383,0 2.765,1.383 2.765,1.383 -2.765,2.765 4.145,5.531 0,8.297 l -1.382,-1.383 c 1.382,1.383 2.765,2.765 4.148,4.148 0,1.383 -1.383,1.383 -2.766,1.383 0,1.383 0,1.383 0,2.766 1.383,0 2.766,0 2.766,1.383 -1.383,4.148 -2.766,9.679 -6.914,12.445 -1.383,1.387 -2.766,-4.149 -4.148,0 l 1.382,1.387 c -1.382,1.378 -4.152,1.378 -5.531,4.148 1.379,0 2.766,0 2.766,1.379 -5.531,0 -2.766,5.531 -5.531,8.301 -1.383,1.382 0,2.761 1.378,2.761 -2.761,1.383 -5.527,4.153 -8.296,5.536 4.152,4.144 -2.762,6.914 2.769,9.675 1.383,1.383 0,2.766 -1.387,2.766 4.153,2.769 8.301,6.918 5.536,12.445 -4.149,5.535 -11.063,2.766 -13.832,9.684 -1.379,-2.766 -2.762,4.144 -4.145,0 -2.77,1.379 2.766,5.531 -1.387,5.531 -4.144,-1.387 -6.91,2.762 -11.058,1.383 0,1.379 0,4.148 -1.383,4.148 -5.535,0 -11.063,-2.769 -13.828,2.766 -1.387,-1.383 -2.77,-2.766 -2.77,-2.766 -4.148,1.383 -8.293,4.149 -11.062,6.911 0,1.386 0,2.769 1.383,2.769 0,1.383 -1.383,1.383 -2.766,1.383 1.383,0 2.766,0 2.766,1.383 -1.383,2.765 -4.149,5.531 -6.918,8.297 -1.379,1.382 -2.762,1.382 -4.145,0 1.383,0 2.766,-1.383 1.383,-2.766 -1.383,0 -2.766,0 -2.766,-1.383 -1.383,8.297 -11.062,9.68 -13.828,16.594 1.383,0 2.766,1.383 2.766,1.383 -2.766,4.148 -8.297,6.918 -12.45,9.679 -5.527,6.914 1.387,19.36 -8.296,26.274 1.386,0 1.386,0 2.769,0 2.766,1.383 1.387,4.148 0,4.148 -5.531,-1.383 -6.918,5.531 -11.062,6.918 -4.149,1.383 -9.684,6.91 -13.829,11.059 0,-2.762 -4.152,0 -4.152,-2.762 -2.762,0 4.375,6.027 2.094,4.465 -1.145,-0.781 -0.363,-1.922 0.418,-3.063 -0.781,1.141 -1.563,2.282 -2.703,1.504 -4.203,-1.203 -6.071,-5.824 -9.496,-8.168 -1.145,-0.777 -1.864,-4.621 -2.223,-6.543 -1.145,-0.781 -3.426,-2.343 -1.867,-4.625 -1.141,-0.781 1.176,-5.707 -0.746,-5.347 0.418,-3.063 -6.465,-1.258 -2.981,-3.903 0.844,-0.328 -6.429,-7.746 -10.636,-8.945 -0.059,4.988 4.871,10.031 4.812,15.016 -6.125,-0.84 -11.113,-0.895 -14.598,1.746 -2.703,1.504 0.727,3.847 1.45,7.687 -4.207,-1.195 -3.485,2.649 -5.043,4.934 -0.782,1.14 -1.922,0.359 -3.067,-0.422 1.867,4.625 2.949,10.391 9.078,11.23 1.137,0.778 -2.343,3.422 -0.058,4.985 2.281,1.558 4.261,-3.789 5.765,-1.086 4.149,6.187 13.758,4.379 14.063,11.281 1.918,-0.36 1.918,-0.36 3.844,-0.72 1.14,0.78 2.281,1.56 1.5,2.7 l -1.922,0.37 c 4.625,-1.87 5.886,8.53 9.312,10.87 0.782,-1.14 3.699,-1.47 5.078,-1.47 l 4.84,0 c 0,0 11.067,-6.22 13.832,-3.46 2.766,-2.76 6.914,-4.15 11.063,-5.53 0,0 1.383,2.77 2.761,2.77 5.536,1.38 8.301,-5.53 12.45,0 -1.383,1.38 -1.383,2.76 -4.149,2.76 1.383,1.38 1.383,1.38 2.766,2.77 -1.383,1.38 -1.383,1.38 -2.766,2.76 1.383,1.39 1.383,1.39 2.766,2.77 1.383,0 2.765,0 2.765,-1.38 0,1.38 1.379,1.38 2.766,1.38 5.531,-4.15 9.68,-2.77 15.211,-2.77 1.383,0 1.383,-4.15 4.149,-2.76 5.531,2.76 2.765,8.3 -1.383,11.06 1.383,1.38 1.383,1.38 2.769,2.76 1.379,0 2.762,-1.38 2.762,-1.38 4.148,1.38 0,4.15 2.769,6.92 0,-1.38 1.379,-1.38 2.762,-1.38 1.383,0 1.383,1.38 1.383,2.76 -1.383,1.38 -1.383,1.38 -2.766,2.77 0,1.38 0,2.76 1.383,2.76 5.535,-1.38 5.535,-1.38 9.684,0 1.379,1.39 4.148,-1.38 6.914,-1.38 -5.535,-5.53 -2.766,-8.3 2.762,-12.45 1.382,5.54 0,6.92 5.535,8.3 2.761,0 2.761,-4.15 4.144,-5.53 2.77,0 1.387,4.15 2.77,5.53 1.383,-1.38 4.144,0 5.531,-2.76 0,4.14 6.914,1.38 6.914,5.53 1.383,-1.39 1.383,-1.39 2.766,-2.77 2.761,6.92 11.062,2.77 16.593,4.15 0,-1.38 0,-2.77 1.383,-2.77 l 1.383,1.39 1.379,-1.39 1.387,1.39 1.383,-1.39 1.382,1.39 c 2.766,-1.39 2.766,-9.69 6.914,-6.92 2.766,2.77 5.528,2.77 8.297,5.53 1.383,1.39 2.766,0 2.766,-1.38 1.379,0 1.379,1.38 1.379,2.77 1.387,-1.39 1.387,-2.77 2.769,-2.77 1.383,0 1.383,1.38 1.383,2.77 0,-1.39 0,-2.77 1.383,-2.77 4.148,-1.38 6.914,4.15 11.062,4.15 2.766,0 6.915,-1.38 8.297,-4.15 1.383,0 1.383,1.38 1.383,2.77 0,-1.39 0,-2.77 4.149,-2.77"
         inkscape:connector-curvature="0"
         id="path18"
         style="fill:#00a650;fill-opacity:1;fill-rule:evenodd;stroke:none" /><path
         d="m 1176.68,789.387 c -1.38,0 0,4.148 -2.76,2.765 1.38,1.383 4.15,1.383 2.76,4.149 0,1.383 -1.38,1.383 -2.76,2.761 5.53,5.536 11.06,8.301 17.97,11.067 2.77,1.383 2.77,8.297 8.3,6.914 0,2.769 2.76,2.769 2.76,5.531 2.77,0 4.16,-4.148 5.54,-2.762 4.15,2.762 5.53,6.915 11.06,8.297 0,-4.152 5.53,-1.382 5.53,-4.152 0,-1.383 -2.76,-4.145 -1.38,-5.531 2.76,-2.766 6.91,-5.528 9.68,-4.149 5.53,1.383 0,9.68 2.76,13.832 2.77,-5.535 9.68,-5.535 8.3,-13.832 0,-1.379 4.15,-1.379 5.53,-4.148 l -1.38,-1.383 c 0,-2.762 4.15,0 4.15,-2.762 l -1.38,-1.386 c 6.91,-4.149 8.29,-12.446 9.68,-20.746 l -1.39,1.386 c -2.76,-4.148 -4.14,-8.297 -5.53,-12.445 -2.76,-2.766 -4.15,-5.531 -5.53,-9.68 0,1.383 0,4.149 -1.38,4.149 -4.15,0 -6.91,-5.532 -9.68,-4.149 -2.77,2.766 -2.77,8.297 -6.92,9.68 -1.38,0 -1.38,-2.766 -2.76,-2.766 -1.39,0 -1.39,1.383 -1.39,2.766 2.77,-2.766 4.15,1.383 5.54,1.383 -1.39,1.383 -2.77,1.383 -4.15,1.383 1.38,0 2.76,0 2.76,1.382 -1.38,1.383 -2.76,2.77 -4.15,4.149 0,-2.766 -4.14,-4.149 -2.76,-6.914 0,1.383 -5.54,1.383 -1.38,4.148 -4.16,4.149 -9.68,2.766 -13.83,4.149 -1.38,0 -1.38,-1.383 -2.77,-2.762 -1.38,1.379 -1.38,1.379 -2.77,2.762 -1.38,-2.762 -5.52,-2.762 -6.91,-5.532 l 1.39,-1.382 c -1.39,0 -1.39,2.765 -4.15,2.765 -2.77,-1.383 -5.54,-2.765 -8.3,-4.148 -1.39,4.148 -4.15,-1.383 -5.53,1.383 l 1.38,1.382 c 0,1.383 -1.38,1.383 -2.76,1.383 1.38,0 2.76,0 2.76,1.387 0,1.379 -1.38,1.379 -2.76,1.379 1.38,0 2.76,0 2.76,1.383 -4.15,1.379 1.38,6.914 -4.15,6.914"
         inkscape:connector-curvature="0"
         id="path20"
         style="fill:#00a650;fill-opacity:1;fill-rule:evenodd;stroke:none" /><path
         d="m 1222.57,933.203 c -2.21,-0.875 -4.65,-2.765 -5.81,-4.148 -1.16,2.765 -4.65,4.148 -5.81,1.383 0,-1.383 1.16,-1.383 2.32,-2.766 l -1.16,1.383 c -1.16,0 -1.16,-1.383 -1.16,-2.766 l -1.16,1.383 c -2.33,-1.383 -3.49,-4.149 -4.65,-6.918 -1.16,1.387 -1.16,4.156 -3.48,5.535 4.64,2.766 6.96,6.914 11.61,9.68 0,0 1.16,-1.383 2.33,-1.383 1.16,0 1.16,1.383 1.16,2.766 1.16,0 2.32,0 3.48,0 2.33,1.382 2.33,4.148 2.33,6.914 1.15,2.765 2.32,5.535 5.8,6.918 -1.16,1.378 -1.16,1.378 -2.32,2.761 2.32,-1.383 6.97,-1.383 6.97,-4.144 0,-4.153 -4.65,-4.153 -6.97,0 -2.33,-2.77 0,-5.535 1.16,-8.301 -3.49,-1.383 -1.16,-6.914 -4.64,-8.297"
         inkscape:connector-curvature="0"
         id="path22"
         style="fill:#fff200;fill-opacity:1;fill-rule:evenodd;stroke:none" /><path
         d="m 1199.5,895.176 c 0,-2.766 -4.15,-5.531 0,-6.918 0,0 1.38,1.387 2.77,1.387 5.53,-2.766 1.38,-9.68 6.91,-13.829 1.38,-2.769 -2.77,-4.148 -4.15,-6.914 -1.38,2.766 -4.15,2.766 -5.53,4.145 0,-1.379 -1.38,-1.379 -2.77,-1.379 1.39,0 2.77,0 2.77,1.379 l -1.38,1.387 c 2.76,0 8.29,0 8.29,2.765 1.39,4.145 -4.14,2.766 -6.91,0 0,1.383 0,2.766 -1.38,2.766 1.38,0 2.76,0 2.76,1.379 -1.38,5.535 -4.15,9.683 -6.92,15.211 1.39,0 1.39,0 2.77,0 1.39,0 1.39,1.383 1.39,2.769 1.38,-1.386 1.38,-2.769 1.38,-4.148"
         inkscape:connector-curvature="0"
         id="path24"
         style="fill:#fff200;fill-opacity:1;fill-rule:evenodd;stroke:none" /><path
         d="m 1224.39,855.07 c 0,-2.761 4.15,0 4.15,-2.761 1.38,0 1.38,1.382 1.38,2.761 4.15,-1.379 8.3,-4.144 13.83,-4.144 8.3,-1.387 8.3,-15.215 17.98,-15.215 -1.39,-1.383 -2.77,-4.149 -4.15,-4.149 -4.15,1.383 -6.92,5.536 -9.68,9.68 -4.15,-4.144 -9.68,-6.914 -13.83,-1.383 -1.38,-1.379 -1.38,-1.379 -2.77,-2.761 1.39,1.382 0,4.144 2.77,4.144 -2.77,1.383 -2.77,5.531 -5.53,6.914 -4.15,0 -8.3,1.383 -8.3,4.153 -1.38,2.761 -2.76,6.914 1.38,9.675 1.39,-2.761 2.77,-4.148 5.53,-5.531 -1.38,0 -2.76,-1.383 -2.76,-1.383"
         inkscape:connector-curvature="0"
         id="path26"
         style="fill:#fff200;fill-opacity:1;fill-rule:evenodd;stroke:none" /><path
         d="m 1265.88,849.539 c 1.38,-1.383 1.38,-2.766 1.38,-4.144 -4.15,0 -6.92,-2.77 -11.06,-1.383 2.76,0 5.53,1.383 6.91,4.144 0,0 -1.38,1.383 -2.77,1.383 0,1.387 0,4.152 1.39,4.152 1.38,0 2.77,-2.765 4.15,-4.152"
         inkscape:connector-curvature="0"
         id="path28"
         style="fill:#fff200;fill-opacity:1;fill-rule:evenodd;stroke:none" /><path
         d="m 1275.56,839.859 c -4.15,-1.379 -2.77,4.153 -5.53,4.153 2.76,0 2.76,-2.77 5.53,-4.153"
         inkscape:connector-curvature="0"
         id="path30"
         style="fill:#fff200;fill-opacity:1;fill-rule:evenodd;stroke:none" /><path
         d="m 1282.47,837.098 c -2.76,-4.153 -2.76,1.382 -4.15,1.382 1.39,0 2.77,0 2.77,1.379 0,-1.379 1.38,-2.761 1.38,-2.761"
         inkscape:connector-curvature="0"
         id="path32"
         style="fill:#fff200;fill-opacity:1;fill-rule:evenodd;stroke:none" /><path
         d="m 1245.82,752.051 c -0.61,-1.239 -2.76,0 -2.76,-1.387 1.38,0 1.38,1.387 1.38,2.77 -1.38,1.382 -2.76,2.765 -5.53,2.765 l 1.39,1.379 -1.39,1.387 c 4.15,-1.387 6.91,4.148 11.06,0 -2.76,-1.387 -2.76,-4.149 -4.15,-6.914"
         inkscape:connector-curvature="0"
         id="path34"
         style="fill:#00a650;fill-opacity:1;fill-rule:evenodd;stroke:none" /><path
         d="m 1217.48,839.859 c 0.97,-0.976 1.38,0 2.76,0 -4.15,0 -11.06,-9.675 -12.44,-1.379 0,2.762 5.53,-2.769 5.53,1.379 l -1.38,1.383 c 1.38,0 4.14,0 5.53,-1.383"
         inkscape:connector-curvature="0"
         id="path36"
         style="fill:#fff200;fill-opacity:1;fill-rule:evenodd;stroke:none" /><path
         d="m 1258.27,1008.57 c 0,0 -1.93,0 -2.91,1.38 -0.96,-2.76 -2.9,-4.15 -3.87,-4.15 -5.81,0 -11.61,-1.38 -16.45,1.39 -3.88,1.38 -8.71,0 -11.62,4.14 0,-1.38 0,-1.38 -0.97,-2.76 -0.97,-1.38 -2.9,2.76 -3.87,0 -1.94,4.15 -5.81,2.76 -7.74,6.91 -1.94,-2.76 -3.88,-2.76 -5.81,0 l 0.07,0.11 c -0.31,-0.08 -0.67,-0.11 -1.04,-0.11 -4.84,2.77 3.87,8.3 -0.97,9.68 0,0 -0.97,-1.38 -1.93,-1.38 0,-1.38 0,-2.76 0.96,-4.15 -1.93,-1.38 -3.87,-4.15 -5.8,-5.53 -0.97,0 -1.94,0 -1.94,1.38 0,1.18 0.71,1.4 1.51,2.28 -1.79,-1.68 -3.59,1.87 -5.38,1.87 0.97,-1.38 1.94,-2.76 2.9,-4.15 0,-1.38 0,-2.76 -0.96,-2.76 -1.94,-1.39 -3.88,1.38 -4.84,1.38 -0.97,-1.38 -2.91,-2.77 -3.88,-2.77 -3.87,1.39 21.3,9.69 15.77,4.15 -1.38,0 -2.77,0 -2.77,1.39 0,-1.39 -1.38,-1.39 -2.77,-1.39 -1.37,1.39 -1.37,2.77 -2.76,2.77 -5.53,0 -9.68,-5.53 -15.21,-1.38 2.76,1.38 2.76,4.15 4.15,5.53 -1.39,0 -2.76,0 -2.76,1.38 l 1.37,1.38 c -6.91,0 -16.59,-4.14 -19.36,1.38 -1.38,2.77 4.15,0 8.31,1.39 -2.77,1.38 -8.31,0 -9.69,4.15 -4.14,-2.77 0,-8.3 -4.14,-11.06 -1.39,1.38 -2.77,2.76 -4.15,4.14 1.38,1.38 1.38,1.38 2.76,2.77 -6.91,-1.39 -13.83,-6.91 -20.74,-6.91 -1.38,0 -1.38,2.76 -2.77,2.76 -2.76,0 0,-4.15 -2.76,-4.15 l -1.39,1.39 c -2.76,0 0,-5.54 -2.76,-5.54 -4.15,2.77 -8.3,2.77 -12.45,2.77 1.39,0 1.39,-1.38 1.39,-2.77 0,-1.38 -1.39,-1.38 -2.77,-1.38 -1.38,1.38 -1.38,2.77 -2.77,2.77 -5.53,-1.39 -6.91,-5.54 -11.06,-1.39 1.39,-1.38 -2.76,-4.15 0,-5.53 0,-1.38 -1.38,-2.76 -2.76,-1.38 -1.39,1.38 -4.15,1.38 -4.15,5.53 0,4.15 -5.53,2.77 -8.3,0 -1.38,-1.38 -1.38,-5.53 -2.76,-5.53 -6.92,1.38 -12.45,-1.38 -19.37,-1.38 -4.14,1.38 -2.76,5.53 0,8.29 1.39,2.77 6.92,4.15 12.45,4.15 3.58,0 0.99,4.12 1.99,6.14 -0.67,-0.67 -0.93,-0.93 -1.99,-1.99 -1.38,1.38 -2.76,1.38 -4.15,1.38 -4.15,-4.14 -11.06,-2.76 -12.44,-8.29 -1.39,-1.39 -2.77,-2.77 -5.54,-2.77 -4.14,1.38 2.77,-4.15 -1.38,-5.53 -1.38,0 -2.76,0 -4.15,1.38 -2.76,-5.53 -8.3,-2.76 -12.44,-2.76 1.38,-1.39 1.38,-4.15 0,-4.15 -5.53,1.38 -5.53,-6.919 -9.68,-1.38 -1.38,2.76 4.15,2.76 2.76,4.14 -2.76,1.39 -8.29,1.39 -11.06,1.39 -6.91,1.38 -12.446,4.14 -19.36,5.53 -1.382,0 -1.382,-1.39 -2.765,-2.77 -2.766,4.15 -6.914,-1.38 -9.68,1.38 l 1.383,-1.38 c -2.766,-2.76 -6.914,-1.38 -9.68,0 l 1.383,1.38 -1.383,1.39 c -2.766,-6.92 -9.68,-2.77 -13.828,-8.3 1.383,0 2.766,0 2.766,-1.38 -1.383,-1.38 -1.383,-5.532 -4.149,-4.149 -1.383,0 -1.383,1.379 -1.383,2.769 -1.382,-4.152 -5.531,-4.152 -6.914,-8.305 -1.382,-4.144 1.383,-8.296 6.914,-6.914 0,1.387 0,2.77 1.383,2.77 1.383,0 4.149,0 4.149,-1.383 -1.383,-2.769 0,-5.531 0,-8.301 l 1.382,1.387 c 1.387,0 1.387,-1.387 1.387,-2.769 -1.387,-1.383 -1.387,-1.383 -2.769,-2.762 -1.383,2.762 -4.149,2.762 -5.532,4.144 1.383,0 1.383,1.387 1.383,2.77 -1.383,0 -5.531,1.379 -5.531,-1.383 2.766,-6.914 -2.766,-6.914 -5.531,-11.066 -1.383,0 -1.383,1.382 -1.383,2.769 -1.383,-1.387 -4.149,-1.387 -5.531,-4.152 -4.153,4.152 -6.914,11.062 -12.45,13.832 1.383,1.379 2.77,1.379 2.77,2.762 0,1.382 -1.387,1.382 -2.77,2.769 -1.379,-4.152 -4.144,-1.387 -6.914,-1.387 2.77,-2.765 5.535,-5.527 8.297,-9.679 1.387,-4.145 -2.762,-6.914 -4.144,-9.676 1.382,0 2.761,0 2.761,-1.387 0,1.387 0,1.387 0,2.766 1.383,1.383 2.77,1.383 4.153,1.383 6.914,-4.149 -1.383,-5.301 -4.153,-8.067 1.383,0 4.485,-1.652 4.153,-2.996 -3.231,-12.902 -9.68,-1.152 -16.594,-5.301 1.383,-1.382 -2.77,-7.144 0,-8.527 0,-1.383 1.84,-3.457 0.457,-3.457 3.039,-1.012 3.129,-2.145 4.574,-3.227 0.239,0.387 0.61,0.618 1.188,0.231 0,0 3.23,2.535 4.383,2.074 1.152,-0.461 1.378,-1.152 2.761,-0.23 1.352,0.898 2.699,3.097 3.617,3.207 -0.292,0.222 -0.582,0.449 -0.851,0.711 4.148,2.765 -0.457,8.066 14.293,4.843 0,0 1.383,2.762 2.766,2.762 2.722,0 5.437,1.32 6.839,-1.273 1.051,1.187 2.301,2.238 4.223,1.273 3.383,-2.258 5.844,-8.191 2.879,-11.055 1.879,-0.109 5.445,2.809 6.797,5.524 -2.762,0 -2.762,6.914 -4.141,8.297 0,1.383 1.785,2.359 2.762,1.383 1.379,-1.383 2.074,-3.227 3.457,-4.606 -1.383,-1.387 -0.692,-5.074 -2.078,-5.074 0,-1.067 3.273,-1.313 2.883,-2.637 1.035,0.953 2.265,1.695 4.035,1.254 5.531,-1.383 2.765,-6.914 6.914,-8.297 l -1.383,1.383 c 1.383,2.766 4.148,0 5.531,1.383 0,1.383 0,4.148 -1.383,5.531 0,1.203 6.797,2.93 8.567,2.445 1.371,4.071 3.484,13.36 9.41,11.383 4.15,-1.383 9.68,0 13.83,-1.383 2.77,-1.382 4.15,-5.531 6.91,-6.914 -2.76,0 -1.38,-4.148 -2.76,-4.148 -1.38,1.383 -4.15,1.383 -5.53,1.383 -2.77,1.386 -6.92,0 -11.07,1.386 -2.73,0 -6.618,-5.797 -9.396,-4.578 0.235,-2.472 0.02,-5.711 1.102,-7.871 1.383,-2.762 1.383,-6.914 -4.148,-5.531 0,-2.766 4.148,0 4.148,-2.766 0,-2.765 -4.148,-2.765 -5.531,-2.765 -2.766,1.382 -5.532,1.382 -8.297,4.148 -2.766,-2.766 -6.914,-6.914 -9.68,-4.148 -2.766,1.382 -5.531,2.765 -8.293,5.531 -1.387,0 -4.152,0 -5.535,0 -2.766,1.387 -5.535,4.148 -2.766,8.297 -4.148,1.383 -8.296,0 -12.445,0 -1.387,0 -2.766,4.148 -4.148,2.765 -1.383,-2.765 -2.766,-5.531 -4.153,-8.293 -2.183,2.188 -4.535,1.61 -3.293,3.801 -0.109,-0.113 -0.562,1.516 -0.679,1.383 -1.383,-1.613 -0.922,-3.113 -3.227,-3.113 -0.156,0 -4.398,0.117 -5.016,-0.114 -0.839,-0.316 -1.726,-0.121 -2.445,0.18 -2.289,-2.48 -0.551,-5.082 -0.551,-6.289 -1.379,-1.383 -5.527,-1.383 -6.914,-2.766 -2.761,-2.765 -1.383,-8.292 -5.527,-8.292 0,0 -1.383,2.761 -2.77,1.378 0,-1.378 0,-2.765 -1.378,-4.148 -2.77,0 0,4.148 -2.77,2.77 -2.766,-1.387 -1.383,-4.153 -2.766,-5.536 1.383,1.383 2.766,2.766 2.766,2.766 4.148,-2.766 1.387,-5.531 -2.766,-8.297 0,-1.383 0,-5.531 -2.761,-6.914 2.761,-2.769 4.144,-8.297 2.761,-11.062 -4.148,-4.149 0,-5.536 0,-9.68 2.766,1.379 2.766,-5.531 5.536,-1.383 1.378,-6.914 8.292,-11.062 12.445,-12.445 8.297,-1.383 16.594,2.765 24.89,2.765 1.379,0 2.766,-2.765 4.149,-4.148 1.383,0 2.766,0 2.766,1.383 4.148,-4.153 5.527,-6.914 5.527,-11.067 1.387,-8.297 11.07,-15.211 9.683,-24.886 0,-1.387 -2.765,-5.536 -2.765,-6.914 0,-8.301 4.152,-16.598 8.293,-24.895 0,-1.379 0,-2.766 -1.379,-4.148 1.379,-2.766 5.531,-1.383 6.914,-4.149 -4.149,-4.148 -1.383,-9.68 2.762,-9.68 2.769,-1.382 5.535,-1.382 8.3,1.383 2.766,1.383 6.915,0 9.68,0 0,1.383 0,2.766 1.383,2.766 l 1.383,-1.383 c 2.765,4.148 6.911,9.68 8.301,13.832 1.38,2.762 5.53,4.145 6.91,6.91 1.39,1.383 -2.77,4.149 0,5.532 -1.38,0 -2.77,1.386 -2.77,1.386 2.77,5.528 11.07,6.91 13.83,12.446 0,2.761 0,6.914 -2.76,9.675 0,1.383 0,2.766 1.38,4.153 0,2.761 -5.53,4.144 -4.15,6.914 4.15,4.144 5.53,9.679 9.68,13.824 2.77,1.387 6.91,2.769 8.3,4.148 2.76,4.153 6.91,6.918 8.3,12.45 5.44,-2.723 4.19,5.265 6.8,6.832 -3.34,0.961 -10.78,-2.274 -12.54,0.308 -0.91,-0.734 -2.85,-1.117 -6.25,-0.922 -5.52,0.328 -7.83,7.149 -11.98,12.68 0,0 -0.92,4.606 0.46,5.992 -1.38,-1.386 -3.69,-0.691 -5.07,2.074 -2.77,6.914 -14.29,14.52 -17.058,20.051 0,1.383 3.228,0.922 5.988,0.922 1.39,0 9.23,-3.683 10.61,-5.07 -0.7,-0.692 -1.04,-1.039 -1.38,-1.383 1.38,0 1.38,-1.383 1.38,-2.766 1.38,0 4.15,0 4.15,-1.382 0,-8.297 8.98,-19.129 9.68,-19.36 2.2,-0.734 8.93,-5.43 10,-8.672 2.58,2.707 10.95,3.571 12.12,5.907 1.38,0 2.77,0 4.15,0 4.15,4.148 6.91,9.679 12.45,12.445 -2.38,2.375 -4.7,4.754 -6.2,7.133 -2.12,-0.875 -6.59,-0.219 -7.63,-0.219 -4.15,1.383 -5.54,5.531 -9.68,6.914 0,1.383 -4.15,8.527 -2.77,8.527 2.77,0 8.3,-7.144 9.68,-8.527 1.23,-1.23 8.25,-2.273 10.79,-4.43 0.48,0.489 1.06,1.067 1.65,1.664 1.39,-2.765 4.16,-2.765 5.54,-2.765 4.14,1.383 6.91,0 11.06,1.383 1.38,-4.149 4.15,-8.297 6.92,-12.446 0,1.383 1.38,2.766 1.38,2.766 5.53,-5.535 4.15,-13.832 6.91,-20.746 1.39,-2.762 5.53,-4.145 6.92,-8.297 2.76,2.769 5.53,5.535 6.91,8.297 -1.38,1.386 -1.38,2.765 -1.38,4.152 5.53,8.297 12.44,19.356 23.51,17.977 5.53,0 4.15,-9.68 6.91,-13.828 1.38,0 2.77,0 4.15,1.382 5.53,-5.531 2.76,-13.828 5.53,-20.746 -1.38,0 -1.38,-5.527 -4.15,-1.379 0,-4.148 0,-8.297 2.77,-12.449 1.38,-1.383 -4.15,0 -2.77,-2.762 0,-1.382 1.38,-1.382 2.77,-2.765 l -1.39,1.383 c 5.54,4.144 9.69,-2.77 13.83,-6.914 5.53,0 8.3,-6.915 13.83,-8.297 5.12,-1.282 11.38,-2.512 16.67,-2.696 -0.82,0.098 -1.46,0.387 -1.46,1.309 0,1.387 0,1.387 0,2.769 -4.14,-2.769 -5.53,4.145 -8.3,0 -4.14,4.145 -12.44,2.762 -13.82,8.293 0,1.86 1.87,1.84 3.52,1.633 -0.45,0.184 -0.75,0.504 -0.75,1.133 0.39,0.395 0.78,0.895 1.17,1.387 -5.42,0 -9.51,0.086 -12.24,6.91 0,1.387 0,2.769 1.38,2.769 l 1.38,-1.382 c 1.39,4.144 -4.14,4.144 -4.14,6.914 0,1.383 2.76,1.383 2.76,2.765 0,1.379 -1.38,1.379 -2.76,2.766 5.53,2.766 15.21,6.914 13.83,13.828 0,4.149 -1.38,9.68 -6.92,11.059 1.38,2.769 1.38,6.918 4.15,6.918 1.39,0 2.77,-2.766 4.15,-4.149 0,-1.386 -1.38,-1.386 -2.76,-1.386 6.91,-1.383 2.76,8.3 8.29,8.3 1.39,0 1.39,-1.386 1.39,-2.765 1.37,1.379 1.37,1.379 2.76,2.765 1.38,0 2.77,0 2.77,-1.386 2.76,4.152 9.68,8.3 12.44,1.386 2.77,1.383 1.38,4.149 2.77,5.532 -1.39,0 -2.77,0 -2.77,1.382 2.77,1.383 1.38,4.149 2.77,5.536 1.38,4.144 -2.77,8.292 -4.16,12.441 0,1.387 4.16,2.769 4.16,5.531 0,1.383 -2.77,2.766 -2.77,2.766 2.77,4.148 -20.33,-1.383 -18.39,4.148 0.97,-2.765 3.87,-4.148 3.87,-6.914 -0.97,-2.762 -1.94,-4.144 -1.94,-6.914 2.91,1.383 5.81,5.531 4.84,9.68 0,0 -2.9,0 -2.9,1.383 0,2.765 0.97,6.914 2.9,6.914 5.81,0 9.68,8.297 14.52,12.449 0.97,1.379 0,4.144 0,6.914 0,1.379 0.97,1.379 1.94,1.379 1.93,-1.379 1.93,-5.531 1.93,-8.293 0.12,0.16 0.22,0.285 0.3,0.39 -0.17,0.254 -0.3,0.543 -0.3,0.989 0,2.765 3.88,2.765 3.88,4.148 0,1.387 -1.94,2.766 -1.94,5.531 -1.94,0 0,5.532 -2.9,2.77 -0.97,-1.383 -0.97,-4.152 -1.94,-4.152 -1.93,1.382 -4.84,1.382 -5.81,4.152 0,1.383 0,4.145 0.97,4.145 1.73,-1.235 2.69,0.82 4.26,0.293 -0.38,0.472 -0.39,1.464 -0.39,2.476 0.97,2.762 3.87,2.762 4.84,2.762 3.87,2.765 7.75,1.383 11.62,1.383 0.97,0 0.97,-1.383 0.97,-2.762 3.87,4.144 8.71,6.914 13.55,6.914 0.97,0 1.93,-1.383 0.97,-2.77 -4.84,-5.527 -9.68,-9.679 -9.68,-17.976 0,-2.766 -1.94,-6.914 -0.97,-6.914 4.84,1.383 9.68,6.914 11.61,13.832 0.97,2.762 3.88,5.531 3.88,9.676 0,1.382 1.93,1.382 2.9,1.382 0.97,0 0.97,-1.382 0.97,-2.765 0.97,5.535 4.84,1.383 6.77,5.535 0.97,0 3.88,1.383 5.81,-1.383 1.94,2.766 4.85,5.527 6.78,8.293 0.97,4.149 0.97,8.299 0,12.449 z M 969.945,976.762 c -1.383,0 -1.383,1.383 -1.383,2.765 1.383,1.387 2.766,2.77 4.149,4.149 0.562,0 1.105,-0.02 1.574,-0.117 -0.445,1.425 0.84,3.234 -0.191,4.269 -6.918,6.91 5.531,4.84 9.679,16.362 1.383,-1.38 2.766,-3.92 2.766,-5.299 0,-2.77 -5.531,-4.153 -5.531,-8.297 1.383,-4.153 4.148,-2.766 8.297,-4.153 -5.532,-4.144 -12.446,-11.058 -19.36,-9.679 z m 49.785,22.129 c 0,-1.383 -1.38,-2.77 -4.15,-2.77 -2.76,0 -5.53,5.539 -2.76,5.539 2.76,0 8.29,2.76 6.91,-2.769 z m 31.8,-60.848 c -4.15,-2.766 -8.29,0 -11.06,1.383 6.91,6.914 -4.15,9.683 -4.15,16.594 0,1.382 1.38,2.765 4.15,2.765 2.77,0 5.53,2.766 6.91,-1.383 0,-1.382 -2.76,-2.765 -2.76,-2.765 1.38,-4.149 4.15,-6.914 6.91,-9.68 0,0 -1.38,-1.383 -2.76,-1.383 1.38,0 1.38,0 2.76,-1.383 1.39,-1.382 -2.76,-2.765 0,-4.148"
         inkscape:connector-curvature="0"
         id="path38"
         style="fill:#fff200;fill-opacity:1;fill-rule:evenodd;stroke:none" /><path
         d="m 1060.55,909.223 c 0.68,0.281 1.13,0.718 1.13,1.394 -0.16,0.313 -0.42,0.602 -0.74,0.871 -0.64,-0.636 -1.11,-1.101 -1.11,-1.101 0.2,-0.387 0.47,-0.778 0.72,-1.164"
         inkscape:connector-curvature="0"
         id="path40"
         style="fill:#fff200;fill-opacity:1;fill-rule:evenodd;stroke:none" /><path
         d="m 1037.5,881.574 c 0.7,0.555 0.8,1.313 0.53,2.164 -0.48,-0.5 -0.79,-1.05 -0.79,-1.699 0.07,-0.184 0.17,-0.32 0.26,-0.465"
         inkscape:connector-curvature="0"
         id="path42"
         style="fill:#fff200;fill-opacity:1;fill-rule:evenodd;stroke:none" /><path
         d="m 920.625,937.121 c -1.113,0.371 -1.813,0.762 -2.344,1.152 -0.34,-0.535 -0.422,-1.382 -0.422,-1.382 0,0 0.618,-0.504 1.469,-0.856 0.34,0.363 0.762,0.731 1.297,1.086"
         inkscape:connector-curvature="0"
         id="path44"
         style="fill:#fff200;fill-opacity:1;fill-rule:evenodd;stroke:none" /><path
         d="m 1206,1016.87 -0.9,-1.28 c 0.51,0.12 0.9,0.42 0.9,1.28"
         inkscape:connector-curvature="0"
         id="path46"
         style="fill:#fff200;fill-opacity:1;fill-rule:evenodd;stroke:none" /><path
         d="m 1195.89,1017.76 c 0.15,0.13 0.29,0.29 0.43,0.49 -0.14,-0.21 -0.28,-0.34 -0.43,-0.49"
         inkscape:connector-curvature="0"
         id="path48"
         style="fill:#fff200;fill-opacity:1;fill-rule:evenodd;stroke:none" /><path
         d="m 1071.5,1025.77 c 0.21,0.21 0.45,0.45 0.77,0.77 -0.37,-0.18 -0.61,-0.45 -0.77,-0.77"
         inkscape:connector-curvature="0"
         id="path50"
         style="fill:#fff200;fill-opacity:1;fill-rule:evenodd;stroke:none" /><path
         d="m 1050.34,881.16 1.19,-1.195 c -0.2,0.597 -0.63,0.965 -1.19,1.195"
         inkscape:connector-curvature="0"
         id="path52"
         style="fill:#fff200;fill-opacity:1;fill-rule:evenodd;stroke:none" /><path
         d="m 1050.15,881.344 c -0.04,-0.02 -0.07,-0.055 -0.11,-0.078 0.1,-0.036 0.2,-0.067 0.3,-0.106 l -0.19,0.184"
         inkscape:connector-curvature="0"
         id="path54"
         style="fill:#fff200;fill-opacity:1;fill-rule:evenodd;stroke:none" /><path
         d="m 1156.53,844.367 c 0.84,0.41 1.48,1.028 1.48,1.028 -0.75,0 -1.1,-0.43 -1.48,-1.028"
         inkscape:connector-curvature="0"
         id="path56"
         style="fill:#fff200;fill-opacity:1;fill-rule:evenodd;stroke:none" /><path
         d="m 1155.15,844.086 c 0.07,-0.445 0.1,-0.941 0.1,-1.461 0.63,0.633 0.96,1.242 1.28,1.742 -0.41,-0.195 -0.83,-0.355 -1.28,-0.355 -0.03,0.031 -0.07,0.047 -0.1,0.074"
         inkscape:connector-curvature="0"
         id="path58"
         style="fill:#fff200;fill-opacity:1;fill-rule:evenodd;stroke:none" /><path
         d="m 1153.87,845.395 c -0.47,0 -0.76,0 -1.02,0 0.86,-0.411 1.69,-0.754 2.3,-1.309 -0.12,0.742 -0.42,1.309 -1.28,1.309"
         inkscape:connector-curvature="0"
         id="path60"
         style="fill:#fff200;fill-opacity:1;fill-rule:evenodd;stroke:none" /><path
         d="m 1149.72,848.156 c 0.37,-0.734 0.83,-1.269 1.35,-1.691 -0.07,0.945 -0.34,1.691 -1.35,1.691"
         inkscape:connector-curvature="0"
         id="path62"
         style="fill:#fff200;fill-opacity:1;fill-rule:evenodd;stroke:none" /><path
         d="m 1151.1,845.395 c 0.92,0 1.24,0 1.75,0 -0.61,0.281 -1.22,0.609 -1.78,1.07 0.02,-0.34 0.03,-0.703 0.03,-1.07"
         inkscape:connector-curvature="0"
         id="path64"
         style="fill:#fff200;fill-opacity:1;fill-rule:evenodd;stroke:none" /><path
         d="m 1188.51,834.402 c 0.41,-0.05 0.85,-0.074 1.31,-0.074 -0.41,0 -0.88,0.055 -1.31,0.074"
         inkscape:connector-curvature="0"
         id="path66"
         style="fill:#fff200;fill-opacity:1;fill-rule:evenodd;stroke:none" /><path
         d="m 1168.45,848.406 c 0.52,-0.222 1.25,-0.25 2.01,-0.25 -0.46,0 -1.21,0.145 -2.01,0.25"
         inkscape:connector-curvature="0"
         id="path68"
         style="fill:#fff200;fill-opacity:1;fill-rule:evenodd;stroke:none" /><path
         d="m 1170.11,852.246 c -0.42,-0.328 -0.83,-0.808 -1.24,-1.32 0.07,0 0.14,0 0.21,0 0.88,0 1.06,0.558 1.03,1.32"
         inkscape:connector-curvature="0"
         id="path70"
         style="fill:#fff200;fill-opacity:1;fill-rule:evenodd;stroke:none" /><path
         d="m 1171.84,852.309 c 1.38,-1.383 2.77,-4.153 4.15,-4.153 2.76,0 5.53,-1.383 8.3,0 4.15,1.383 0,9.68 5.53,8.297 5.53,-2.762 -2.77,-6.914 0,-9.68 l 1.38,1.383 c 2.76,0 0,-5.531 2.76,-5.531 4.16,0 1.39,5.531 4.16,5.531 1.38,0 2.76,0 2.76,-1.383 l -1.38,-1.378 c 1.38,1.378 4.15,-2.77 2.77,0 -4.15,8.296 1.38,12.441 6.91,17.972 1.38,1.387 0,2.77 -1.38,2.77 1.38,-4.153 -4.15,-2.77 -6.92,-6.914 -1.38,0 -2.76,0 -4.15,1.382 -1.38,-1.382 -1.38,-2.769 -2.77,-2.769 -2.76,-1.383 -2.76,1.387 -4.14,2.769 0,1.379 1.38,1.379 2.77,1.379 -1.39,0 -4.15,0 -4.15,1.383 0,1.387 4.15,2.77 2.76,5.535 -2.76,2.766 -4.15,6.914 -8.29,5.532 1.38,-1.387 1.38,-2.766 1.38,-4.153 -2.77,-5.527 -11.07,-6.914 -15.21,-12.445 1.38,0 2.76,0 2.76,-1.383 -2.83,0 -1.8,-2.566 -1.73,-4.207 0.57,0.473 1.15,0.641 1.73,0.063"
         inkscape:connector-curvature="0"
         id="path72"
         style="fill:#fff200;fill-opacity:1;fill-rule:evenodd;stroke:none" /><path
         d="m 1204.06,958.785 c -0.34,0.488 -0.67,0.789 -0.96,1.055 0,-0.828 0.05,-1.703 0.96,-1.055"
         inkscape:connector-curvature="0"
         id="path74"
         style="fill:#fff200;fill-opacity:1;fill-rule:evenodd;stroke:none" /><path
         d="m 1202.42,960.562 c 0.17,-0.25 0.4,-0.48 0.68,-0.722 -0.01,0.828 0.04,1.598 -0.68,0.722"
         inkscape:connector-curvature="0"
         id="path76"
         style="fill:#fff200;fill-opacity:1;fill-rule:evenodd;stroke:none" /><path
         d="m 1199.22,978.145 c -0.2,0.148 -0.4,0.23 -0.58,0.293 0.14,-0.176 0.32,-0.293 0.58,-0.293"
         inkscape:connector-curvature="0"
         id="path78"
         style="fill:#fff200;fill-opacity:1;fill-rule:evenodd;stroke:none" /><path
         d="m 1033.55,821.883 c -1.38,0 -2.76,0 -2.76,1.387 -1.38,-1.387 -1.38,-1.387 -2.76,-2.77 1.38,-1.383 2.76,-1.383 2.76,-2.766 0,-1.382 -1.38,-1.382 -2.76,-1.382 1.38,0 2.76,-1.383 2.76,-1.383 -2.76,-4.145 -6.91,-6.914 -5.53,-12.446 1.38,-1.382 2.77,-4.148 5.53,-2.765 5.53,4.148 9.26,10.754 11.06,17.976 1.39,5.536 -1.38,9.684 -1.38,15.211 -6.92,-1.383 -2.77,-8.297 -6.92,-11.062"
         inkscape:connector-curvature="0"
         id="path80"
         style="fill:#fff200;fill-opacity:1;fill-rule:evenodd;stroke:none" /><path
         d="m 914.633,968.465 c -1.383,1.383 -1.383,4.152 0,4.152 2.765,-1.387 4.144,0 6.914,0 -1.383,1.383 0,4.145 -4.149,4.145 -1.382,0 -1.382,0 -2.765,0 -2.77,-1.379 -2.77,-6.914 0,-8.297"
         inkscape:connector-curvature="0"
         id="path82"
         style="fill:#fff200;fill-opacity:1;fill-rule:evenodd;stroke:none" /><path
         d="m 370.469,913.688 -12.258,-64.469 42.219,5.023 -3.629,-10.863 -3.332,-17.535 -85.391,0 15.625,16.058 13.332,70.102 -8.769,20 58.257,0 -16.054,-18.316"
         inkscape:connector-curvature="0"
         id="path84"
         style="fill:#ed1c24;fill-opacity:1;fill-rule:evenodd;stroke:none" /><path
         d="m 445.238,844.289 2.789,-18.445 -52.742,0 18.117,17.496 53.586,88.664 36.157,0 23.242,-88.774 12.093,-17.386 -42.855,0 -4.766,18.445 -45.621,0 z m 33.59,54.91 -0.34,0 -20.109,-33.789 27.539,0 -7.09,33.789"
         inkscape:connector-curvature="0"
         id="path86"
         style="fill:#ed1c24;fill-opacity:1;fill-rule:evenodd;stroke:none" /><path
         d="m 657.199,825.844 -48.769,0 -2.543,17.535 -13.407,23.297 -0.335,0 -4.426,-23.258 6.719,-17.574 -50.715,0 11.172,19.113 13.14,69.094 -11.668,17.953 64.594,0 c 25.172,0 42.367,-9.996 38.051,-32.664 -2.785,-14.641 -14.992,-27.317 -33.578,-29.992 l 31.765,-43.504 z m -61.679,58.57 3.207,0 c 10.816,0 23.3,1.691 25.496,13.238 2.195,11.547 -9.649,13.235 -20.461,13.235 l -3.211,0 -5.031,-26.473"
         inkscape:connector-curvature="0"
         id="path88"
         style="fill:#ed1c24;fill-opacity:1;fill-rule:evenodd;stroke:none" /><path
         d="m 772.855,825.844 -48.769,0 -2.543,17.535 -13.406,23.297 -0.336,0 -4.426,-23.258 6.719,-17.574 -50.715,0 11.176,19.113 13.136,69.094 -11.668,17.953 64.59,0 c 25.176,0 42.371,-9.996 38.055,-32.664 -2.785,-14.641 -14.996,-27.317 -33.582,-29.992 l 31.769,-43.504 z m -61.679,58.57 3.207,0 c 10.816,0 23.301,1.691 25.496,13.238 2.195,11.547 -9.649,13.235 -20.461,13.235 l -3.211,0 -5.031,-26.473"
         inkscape:connector-curvature="0"
         id="path90"
         style="fill:#ed1c24;fill-opacity:1;fill-rule:evenodd;stroke:none" /><path
         d="m 920.953,880.898 c -6.535,-34.355 -40.707,-58.574 -81.594,-58.574 -40.89,0 -65.847,24.219 -59.312,58.574 6.105,32.098 44.18,54.625 80.84,54.625 36.668,0 66.172,-22.527 60.066,-54.625 z m -106.465,-0.14 c -3.484,-18.305 10.192,-31.684 29.961,-31.684 19.766,0 38.528,13.379 42.012,31.684 2.785,14.64 -10.895,28.015 -30.664,28.015 -19.766,0 -38.527,-13.375 -41.309,-28.015"
         inkscape:connector-curvature="0"
         id="path92"
         style="fill:#ed1c24;fill-opacity:1;fill-rule:evenodd;stroke:none" /><path
         d="m 1066.6,932.004 -18.58,-18.379 -7.86,-41.316 c -2.6,-13.661 -5.84,-27.176 -20.47,-37.454 -12.31,-8.73 -29.624,-11.828 -44.491,-11.828 -14.867,0 -31.004,3.098 -39.988,11.828 -10.719,10.278 -8.82,23.793 -6.223,37.454 l 7.871,41.41 -9.093,18.285 60.777,0 -18.555,-18.211 -7.164,-37.684 c -2.625,-13.797 -4.304,-28.863 16.981,-28.863 21.285,0 25.335,15.066 27.965,28.863 l 7.18,37.743 -9.13,18.152 60.78,0"
         inkscape:connector-curvature="0"
         id="path94"
         style="fill:#ed1c24;fill-opacity:1;fill-rule:evenodd;stroke:none" /><path
         d="m 1135.52,901.34 c -3.32,2.648 -5.72,8.098 -10.31,9.293 -2.72,0.707 -5.62,1.097 -8.65,1.097 -6.08,0 -14.75,-2.957 -15.88,-8.871 -1.17,-6.191 7.32,-8.586 12.78,-10.136 l 8.04,-2.114 c 16.91,-4.363 29.18,-11.824 25.91,-29 -2,-10.562 -8.56,-19.484 -18.61,-28.582 -9.63,-8.718 -23.76,-8.254 -38.06,-11.675 -4.2,-1.004 -24.2,1.152 -35.77,8.753 l -6.72,37.333 c 3.18,-2.696 13.7,-12.188 21.69,-16.317 9.94,-5.137 17.78,-4.723 24.06,-4.723 7.77,0 16.67,3.239 18.09,10.704 1.47,7.742 -11.03,10.418 -17.8,12.109 -19.85,4.926 -32.68,9.434 -28.77,29.988 4.1,21.543 25.19,35.621 50.71,35.621 8.43,0 17.84,-1.457 26.22,-3.976 4.37,-1.317 15.16,2.113 18.69,0.277 l -25.62,-29.781"
         inkscape:connector-curvature="0"
         id="path96"
         style="fill:#ed1c24;fill-opacity:1;fill-rule:evenodd;stroke:none" /><path
         d="m 1239.44,901.34 c -3.32,2.648 -5.72,8.098 -10.3,9.293 -2.73,0.707 -5.63,1.097 -8.65,1.097 -6.09,0 -14.76,-2.957 -15.88,-8.871 -1.18,-6.191 7.32,-8.586 12.77,-10.136 l 8.05,-2.114 c 16.91,-4.363 29.17,-11.824 25.91,-29 -2.01,-10.562 -8.57,-19.484 -18.62,-28.582 -9.63,-8.718 -23.76,-8.254 -38.06,-11.675 -4.19,-1.004 -24.2,1.152 -35.77,8.753 l -6.71,37.333 c 3.17,-2.696 13.7,-12.188 21.68,-16.317 9.94,-5.137 17.79,-4.723 24.06,-4.723 7.78,0 16.67,3.239 18.09,10.704 1.47,7.742 -11.03,10.418 -17.8,12.109 -19.85,4.926 -32.68,9.434 -28.76,29.988 4.09,21.543 25.19,35.621 50.7,35.621 8.44,0 17.84,-1.457 26.21,-3.976 4.38,-1.317 15.18,2.113 18.71,0.277 l -25.63,-29.781"
         inkscape:connector-curvature="0"
         id="path98"
         style="fill:#ed1c24;fill-opacity:1;fill-rule:evenodd;stroke:none" /><path
         d="m 1339.32,908.633 -30.07,0 -3.37,-17.738 37.33,0 -12.32,-18.684 -29.46,-4.691 -3.48,-18.301 36.35,0 19.78,4.187 -8.63,-27.562 -100.15,0 18.72,19.094 13.39,70.402 -11.91,16.664 87.57,0 5.61,-28.402 -19.36,5.031"
         inkscape:connector-curvature="0"
         id="path100"
         style="fill:#ed1c24;fill-opacity:1;fill-rule:evenodd;stroke:none" /><path
         d="m 1491.86,908.633 -31.8,0 -3.37,-17.738 36.32,0 -9.47,-18.344 -19.34,-5.031 -11.96,0 -4.28,-22.5 11.44,-19.176 -60.77,0 16.26,19.406 13.33,70.098 -11.91,16.656 88.24,0 10.64,-28.402 -23.33,5.031"
         inkscape:connector-curvature="0"
         id="path102"
         style="fill:#ed1c24;fill-opacity:1;fill-rule:evenodd;stroke:none" /><path
         d="m 1533.23,906.961 17.78,7.258 8.46,17.785 31.24,0 -16.55,-87.078 11.45,-19.082 -60.77,0 16.19,19.008 6.59,48.949 -17.93,-10.309 3.54,23.469"
         inkscape:connector-curvature="0"
         id="path104"
         style="fill:#ed1c24;fill-opacity:1;fill-rule:evenodd;stroke:none" /><path
         d="m 961.348,1105.46 c 17.687,0 33.316,-8.64 43.022,-21.9 l 0.52,0 -43.542,188.56 -43.547,-188.57 0.515,0 c 9.7,13.26 25.34,21.91 43.032,21.91"
         inkscape:connector-curvature="0"
         id="path106"
         style="fill:#ed1c24;fill-opacity:1;fill-rule:evenodd;stroke:none" /><path
         d="m 1678.46,876.129 c 0,-17.688 -8.65,-33.32 -21.91,-43.024 l 0,-0.527 188.57,43.551 -188.58,43.543 0,-0.512 c 13.26,-9.707 21.92,-25.34 21.92,-43.031"
         inkscape:connector-curvature="0"
         id="path108"
         style="fill:#ed1c24;fill-opacity:1;fill-rule:evenodd;stroke:none" /><path
         d="m 254.301,876.121 c 0,17.688 8.644,33.32 21.906,43.024 l 0,0.527 -188.5703,-43.547 188.5783,-43.547 0,0.516 c -13.262,9.699 -21.914,25.336 -21.914,43.027"
         inkscape:connector-curvature="0"
         id="path110"
         style="fill:#ed1c24;fill-opacity:1;fill-rule:evenodd;stroke:none" /></g></g><g
     inkscape:groupmode="layer"
     id="layer1"
     inkscape:label="Calque"
     transform="translate(0,-870)" /></svg>