<svg xml:space="preserve" style="max-height: 500px" viewBox="55.52058432934927 0 104.1726427622842 82.082" y="0px" x="0px" version="1.1" xmlns:xlink="http://www.w3.org/1999/xlink" xmlns="http://www.w3.org/2000/svg" width="104.1726427622842" height="82.082">
<style type="text/css">
	.st0{display:none;}
	.st1{display:inline;}
	.st2{fill-rule:evenodd;clip-rule:evenodd;fill:#DA291C;}
	.st3{fill:#FFFFFF;}
	.st4{fill:#DA291C;}
	.st5{fill-rule:evenodd;clip-rule:evenodd;fill:#FFFFFF;}
	.st6{fill-rule:evenodd;clip-rule:evenodd;}
</style>
<g class="st0" id="Layer_2">
</g>
<g id="Layer_1">
	<g>
		<g>
			<path d="M134.5,55.9c-5.4,9.1-15.3,15.3-26.7,15.3c-8.4,0-16-3.4-21.6-8.8h8.7c0,0,25-44,25.1-44.2     c0.1-0.2,0.1-0.3-0.1-0.3h-10.2c-0.2,0-0.2,0.1-0.3,0.1c-0.1,0.1-14.1,24.5-14.1,24.5H76.9c-0.1-0.8-0.1-1.5-0.1-2.3     c0-17.1,13.9-31,31-31c8.7,0,16.6,3.6,22.3,9.5c-2.4,4.1-13.4,22.8-14.9,25.5c-0.9-2-4.8-1.6-6.8-1.6c-0.9,1.5-5,9.3-5,9.3     s2.3,0,4.4,0c2,0,2.2,2.1,1.4,3.4c-0.8,1.3-4.1,7.1-4.1,7.1h10.5c0,0,12.9-22.6,20.3-35.4c1,2.1,1.8,4.4,2.3,6.7     c2.5-1.7,5.5-2.7,8.8-2.7c0,0,0,0,0,0C142.7,13.2,126.8,0,107.8,0C85.6,0,67.6,18,67.6,40.2c0,0.8,0,1.6,0.1,2.3h-5.2     c-0.3,0-0.4,0.2-0.6,0.4c-0.1,0.2-4.7,8.4-4.9,8.6c-0.1,0.2-0.1,0.3,0.1,0.3h12.2c5,16.5,20.3,28.5,38.5,28.5     c14.5,0,27.1-7.6,34.2-19.1C139,60.3,136.4,58.4,134.5,55.9z M79,51.8h10.7l-5.2,8.9C82.3,58.1,80.4,55.1,79,51.8z" class="st2"/>
			<path d="M141.6,51.1c2.8,0,6-1.4,8.8-3.9c0,0-0.4,2-0.5,2.6c-0.1,0.6,0.3,1.1,0.9,1.1h0.2c0.6,0,1.1-0.5,1.2-1.1     l1-5.6c0.1-0.6-0.3-1.1-0.9-1.1h-5.6c-0.6,0-1.2,0.3-1.3,0.9c0,0,0,0.2,0,0.3c-0.1,0.6,0.3,1,0.9,1h2.9c0,0-0.1,0.1-0.1,0.1     c-2,1.9-4.5,2.9-6.5,2.9c-2,0-4.3-1.3-4.3-4.2c0-6,5.6-9.5,8.6-9.5c-4.7,0-8.8,2.8-10.7,6.9c-0.4,1.2-0.7,2.3-0.7,3.4     C135.5,50.3,139.8,51.1,141.6,51.1z" class="st3"/>
			<path d="M146.8,34.7c-3,0-8.6,3.5-8.6,9.5c0,2.9,2.3,4.2,4.3,4.2c2,0,4.5-1,6.5-2.9c0,0,0.1-0.1,0.1-0.1h-2.9     c-0.6,0-1-0.4-0.9-1c0,0,0-0.2,0-0.3c0.1-0.6,0.7-0.9,1.3-0.9h5.6c0.6,0,1,0.5,0.9,1.1l-1,5.6c-0.1,0.6-0.5,1.1-1.2,1.1h-0.2     c-0.6,0-1-0.5-0.9-1.1c0.1-0.6,0.5-2.6,0.5-2.6c-2.7,2.5-6,3.9-8.8,3.9c-1.8,0-6.1-0.8-6.1-6.1c0-1.1,0.2-2.2,0.7-3.4     c0,0,0,0.1,0,0.1c-0.1,0.2-0.2,0.5-0.3,0.7c-0.1,0.2-0.1,0.3-0.2,0.5c-0.1,0.2-0.1,0.5-0.2,0.7c0,0.2-0.1,0.3-0.1,0.5     c-0.1,0.3-0.1,0.5-0.1,0.8c0,0.1,0,0.3-0.1,0.4c0,0.4-0.1,0.8-0.1,1.3c0,2,0.5,3.9,1.4,5.6c1.1,2,2.7,3.7,4.7,4.7     c1.7,0.9,3.6,1.4,5.6,1.4s3.9-0.5,5.6-1.4c2-1.1,3.7-2.7,4.7-4.7c0.9-1.7,1.4-3.6,1.4-5.6C158.6,40,153.3,34.7,146.8,34.7z" class="st4"/>
		</g>
	</g>
</g>
</svg>