<?xml version="1.0" encoding="UTF-8" standalone="no"?>
<!-- Created with Inkscape (http://www.inkscape.org/) -->

<svg
   xmlns:dc="http://purl.org/dc/elements/1.1/"
   xmlns:cc="http://creativecommons.org/ns#"
   xmlns:rdf="http://www.w3.org/1999/02/22-rdf-syntax-ns#"
   xmlns:svg="http://www.w3.org/2000/svg"
   xmlns="http://www.w3.org/2000/svg"
   xmlns:sodipodi="http://sodipodi.sourceforge.net/DTD/sodipodi-0.dtd"
   xmlns:inkscape="http://www.inkscape.org/namespaces/inkscape"
   version="1.1"
   width="106"
   height="50"
   id="svg2"
   xml:space="preserve"
   inkscape:version="0.48.4 r9939"
   sodipodi:docname="Prost_Grand_Prix.svg"><sodipodi:namedview
     pagecolor="#ffffff"
     bordercolor="#666666"
     borderopacity="1"
     objecttolerance="10"
     gridtolerance="10"
     guidetolerance="10"
     inkscape:pageopacity="0"
     inkscape:pageshadow="2"
     inkscape:window-width="1600"
     inkscape:window-height="838"
     id="namedview3163"
     showgrid="false"
     fit-margin-top="0"
     fit-margin-left="0"
     fit-margin-right="0"
     fit-margin-bottom="0"
     inkscape:zoom="2.5608247"
     inkscape:cx="109.47885"
     inkscape:cy="14.41449"
     inkscape:window-x="-8"
     inkscape:window-y="-8"
     inkscape:window-maximized="1"
     inkscape:current-layer="svg2" /><metadata
     id="metadata8"><rdf:RDF><cc:Work
         rdf:about=""><dc:format>image/svg+xml</dc:format><dc:type
           rdf:resource="http://purl.org/dc/dcmitype/StillImage" /></cc:Work></rdf:RDF></metadata><defs
     id="defs6" /><g
     transform="matrix(1.25,0,0,-1.25,-11.771148,154.83551)"
     id="g10"><g
       transform="scale(0.1,0.1)"
       id="g12"><path
         d="m 535.695,869.633 c 227.434,40.801 397.438,149.607 381.571,243.297 -13.602,74.05 -139.028,117.12 -303.743,111.83 -43.07,-1.51 -89.16,-6.05 -136.761,-15.12 C 249.332,1169.6 79.3281,1060.8 95.1953,967.105 111.816,872.656 309.023,829.586 535.695,869.633"
         inkscape:connector-curvature="0"
         id="path62"
         style="fill:#26478b;fill-opacity:1;fill-rule:evenodd;stroke:none" /><path
         d="m 272.754,973.148 c -1.512,0 -3.777,-0.757 -6.043,-0.757 -6.047,0 -6.801,3.023 -5.289,7.558 1.512,4.531 4.531,7.555 9.82,7.555 3.781,0 5.289,-1.512 4.535,-3.024 l -3.023,0 c 0,0.758 0,2.27 -2.266,2.27 -3.777,0 -5.289,-3.781 -6.047,-6.801 -1.507,-3.777 -1.507,-6.801 3.024,-6.801 0.758,0 1.512,0 2.269,0.754 l 1.508,3.778 c 0.758,2.269 0.758,2.269 -1.508,3.023 l 5.289,0 -2.269,-7.555"
         inkscape:connector-curvature="0"
         id="path64"
         style="fill:#c4c9cb;fill-opacity:1;fill-rule:evenodd;stroke:none" /><g
         id="g66"><path
           d="m 272.754,973.148 c -1.512,0 -3.777,-0.758 -6.043,-0.758 -6.047,0 -6.801,3.024 -5.289,7.559 1.512,4.531 4.531,7.555 9.82,7.555 3.781,0 5.289,-1.512 4.535,-3.024 l -3.023,0 c 0,0.758 0,2.27 -2.266,2.27 -3.777,0 -5.289,-3.781 -6.047,-6.801 -1.507,-3.777 -1.507,-6.801 3.024,-6.801 0.758,0 1.512,0 2.269,0.754 l 1.508,3.777 c 0.758,2.27 0.758,2.27 -1.508,3.024 l 5.289,0 -2.269,-7.555 z"
           inkscape:connector-curvature="0"
           id="path68"
           style="fill:none;stroke:#c4c9cb;stroke-width:2.46602988;stroke-linecap:butt;stroke-linejoin:miter;stroke-miterlimit:2.61310005;stroke-opacity:1;stroke-dasharray:none" /></g><path
         d="m 312.801,984.48 c 0.754,2.27 0.754,2.27 -1.512,2.27 l 0,0.754 6.801,0 c 1.512,0 6.801,0 6.047,-4.535 -1.512,-2.266 -3.024,-3.02 -5.289,-3.02 l 2.265,-7.558 -3.023,0 -2.266,6.8 -1.512,0 -2.265,-6.8 -3.024,0 3.778,12.089 z m 1.511,-4.531 1.512,0 c 1.512,0 4.531,0.754 5.289,3.02 0.754,2.269 -0.758,3.023 -3.023,3.023 -1.512,0 -1.512,0 -2.266,-1.512 l -1.512,-4.531"
         inkscape:connector-curvature="0"
         id="path70"
         style="fill:#c4c9cb;fill-opacity:1;fill-rule:evenodd;stroke:none" /><g
         id="g72"><path
           d="m 312.801,984.48 c 0.754,2.27 0.754,2.27 -1.512,2.27 l 0,0.754 6.801,0 c 1.512,0 6.801,0 6.047,-4.535 -1.512,-2.266 -3.024,-3.02 -5.289,-3.02 l 2.265,-7.559 -3.023,0 -2.266,6.801 -1.511,0 -2.266,-6.801 -3.024,0 3.778,12.09 z m 1.512,-4.531 1.511,0 c 1.512,0 4.532,0.754 5.289,3.02 0.754,2.269 -0.757,3.023 -3.023,3.023 -1.512,0 -1.512,0 -2.266,-1.512 l -1.511,-4.531 z"
           inkscape:connector-curvature="0"
           id="path74"
           style="fill:none;stroke:#c4c9cb;stroke-width:2.46602988;stroke-linecap:butt;stroke-linejoin:miter;stroke-miterlimit:2.61310005;stroke-opacity:1;stroke-dasharray:none" /></g><path
         d="m 364.18,984.48 0.758,1.512 c 0,0.758 -0.758,0.758 -1.516,0.758 l 0,0.754 4.535,0 1.512,-15.113 -2.266,0 -0.754,4.535 -6.801,0 -3.023,-4.535 -2.266,0 9.821,12.089 z m -3.778,-6.8 6.047,0 -0.758,6.8 -5.289,-6.8"
         inkscape:connector-curvature="0"
         id="path76"
         style="fill:#c4c9cb;fill-opacity:1;fill-rule:evenodd;stroke:none" /><g
         id="g78"><path
           d="m 364.18,984.48 0.758,1.512 c 0,0.758 -0.758,0.758 -1.516,0.758 l 0,0.754 4.535,0 1.512,-15.114 -2.266,0 -0.754,4.536 -6.8,0 -3.024,-4.536 -2.266,0 9.821,12.09 z m -3.778,-6.801 6.047,0 -0.758,6.801 -5.289,-6.801 z"
           inkscape:connector-curvature="0"
           id="path80"
           style="fill:none;stroke:#c4c9cb;stroke-width:2.46602988;stroke-linecap:butt;stroke-linejoin:miter;stroke-miterlimit:2.61310005;stroke-opacity:1;stroke-dasharray:none" /></g><path
         d="m 408.762,984.48 c 0.754,2.27 0.754,1.512 -1.512,2.27 l 0,0.754 6.043,0 3.777,-12.09 0,0 3.778,12.09 2.269,0 -5.293,-15.113 -2.262,0 -4.535,12.847 0,0 -4.535,-12.847 -1.512,0 3.782,12.089"
         inkscape:connector-curvature="0"
         id="path82"
         style="fill:#c4c9cb;fill-opacity:1;fill-rule:evenodd;stroke:none" /><g
         id="g84"><path
           d="m 408.762,984.48 c 0.754,2.27 0.754,1.512 -1.512,2.27 l 0,0.754 6.043,0 3.777,-12.09 0,0 3.778,12.09 2.269,0 -5.293,-15.114 -2.261,0 -4.536,12.848 0,0 -4.535,-12.848 -1.511,0 3.781,12.09 z"
           inkscape:connector-curvature="0"
           id="path86"
           style="fill:none;stroke:#c4c9cb;stroke-width:2.46602988;stroke-linecap:butt;stroke-linejoin:miter;stroke-miterlimit:2.61310005;stroke-opacity:1;stroke-dasharray:none" /></g><path
         d="m 459.383,984.48 c 0.758,2.27 0.758,2.27 -2.266,2.27 l 0.754,0.754 6.801,0 c 5.289,0 8.312,-1.512 6.047,-7.555 -2.27,-6.801 -6.801,-7.558 -12.09,-7.558 l -3.781,0 4.535,12.089 z m -0.754,-9.82 c 0,-0.758 0,-1.512 1.512,-1.512 4.531,0 6.797,2.266 8.308,6.801 0.758,3.778 1.512,6.043 -3.777,6.043 -1.512,0 -2.266,0 -2.266,-0.754 l -3.777,-10.578"
         inkscape:connector-curvature="0"
         id="path88"
         style="fill:#c4c9cb;fill-opacity:1;fill-rule:evenodd;stroke:none" /><g
         id="g90"><path
           d="m 459.383,984.48 c 0.758,2.27 0.758,2.27 -2.266,2.27 l 0.754,0.754 6.801,0 c 5.289,0 8.312,-1.512 6.047,-7.555 -2.27,-6.801 -6.801,-7.559 -12.09,-7.559 l -3.781,0 4.535,12.09 z m -0.754,-9.82 c 0,-0.758 0,-1.512 1.512,-1.512 4.531,0 6.797,2.266 8.308,6.801 0.758,3.777 1.512,6.043 -3.777,6.043 -1.512,0 -2.266,0 -2.266,-0.754 l -3.777,-10.578 z"
           inkscape:connector-curvature="0"
           id="path92"
           style="fill:none;stroke:#c4c9cb;stroke-width:2.46602988;stroke-linecap:butt;stroke-linejoin:miter;stroke-miterlimit:2.61310005;stroke-opacity:1;stroke-dasharray:none" /></g><path
         d="m 529.652,984.48 c 0.754,2.27 0.754,2.27 -1.511,2.27 l 0,0.754 8.312,0 c 3.024,0 4.531,-1.512 3.777,-4.535 -1.511,-3.778 -5.289,-3.778 -9.066,-3.778 l -0.758,0 -2.265,-6.8 -3.02,0 4.531,12.089 z m 1.512,-4.531 0.758,0 c 2.262,0 4.531,0.754 5.285,3.02 0.758,3.023 -0.754,3.023 -3.023,3.023 -0.754,0 -1.508,0 -1.508,-1.512 l -1.512,-4.531"
         inkscape:connector-curvature="0"
         id="path94"
         style="fill:#c4c9cb;fill-opacity:1;fill-rule:evenodd;stroke:none" /><g
         id="g96"><path
           d="m 529.652,984.48 c 0.754,2.27 0.754,2.27 -1.511,2.27 l 0,0.754 8.312,0 c 3.024,0 4.531,-1.512 3.778,-4.535 -1.512,-3.778 -5.289,-3.778 -9.067,-3.778 l -0.758,0 -2.265,-6.801 -3.02,0 4.531,12.09 z m 1.512,-4.531 0.758,0 c 2.262,0 4.531,0.754 5.285,3.02 0.758,3.023 -0.754,3.023 -3.023,3.023 -0.754,0 -1.508,0 -1.508,-1.512 l -1.512,-4.531 z"
           inkscape:connector-curvature="0"
           id="path98"
           style="fill:none;stroke:#c4c9cb;stroke-width:2.46602988;stroke-linecap:butt;stroke-linejoin:miter;stroke-miterlimit:2.61310005;stroke-opacity:1;stroke-dasharray:none" /></g><path
         d="m 575.746,984.48 c 0.754,2.27 0.754,2.27 -1.516,2.27 l 0,0.754 6.047,0 c 2.266,0 7.555,0 6.043,-4.535 -0.754,-2.266 -3.023,-3.02 -4.531,-3.02 l 2.266,-7.558 -3.024,0 -2.265,6.8 -2.266,0 -2.27,-6.8 -2.265,0 3.781,12.089 z m 1.508,-4.531 1.512,0 c 1.511,0 3.777,0.754 5.289,3.02 0.754,2.269 -0.758,3.023 -3.024,3.023 -1.511,0 -2.265,0 -2.265,-1.512 l -1.512,-4.531"
         inkscape:connector-curvature="0"
         id="path100"
         style="fill:#c4c9cb;fill-opacity:1;fill-rule:evenodd;stroke:none" /><g
         id="g102"><path
           d="m 575.746,984.48 c 0.754,2.27 0.754,2.27 -1.515,2.27 l 0,0.754 6.046,0 c 2.266,0 7.555,0 6.043,-4.535 -0.753,-2.266 -3.023,-3.02 -4.531,-3.02 l 2.266,-7.559 -3.024,0 -2.265,6.801 -2.266,0 -2.269,-6.801 -2.266,0 3.781,12.09 z m 1.508,-4.531 1.512,0 c 1.511,0 3.777,0.754 5.289,3.02 0.754,2.269 -0.758,3.023 -3.024,3.023 -1.511,0 -2.265,0 -2.265,-1.512 l -1.512,-4.531 z"
           inkscape:connector-curvature="0"
           id="path104"
           style="fill:none;stroke:#c4c9cb;stroke-width:2.46602988;stroke-linecap:butt;stroke-linejoin:miter;stroke-miterlimit:2.61310005;stroke-opacity:1;stroke-dasharray:none" /></g><path
         d="m 624.102,984.48 c 0.753,1.512 0.753,1.512 -1.512,2.27 l 0,0 6.043,0.754 -5.289,-15.113 -3.024,0 3.782,12.089"
         inkscape:connector-curvature="0"
         id="path106"
         style="fill:#c4c9cb;fill-opacity:1;fill-rule:evenodd;stroke:none" /><g
         id="g108"><path
           d="m 624.102,984.48 c 0.754,1.512 0.754,1.512 -1.512,2.27 l 0,0 6.043,0.754 -5.289,-15.114 -3.024,0 3.782,12.09 z"
           inkscape:connector-curvature="0"
           id="path110"
           style="fill:none;stroke:#c4c9cb;stroke-width:2.46602988;stroke-linecap:butt;stroke-linejoin:miter;stroke-miterlimit:2.61310005;stroke-opacity:1;stroke-dasharray:none" /></g><path
         d="m 667.168,979.949 -1.512,5.289 c -0.754,0.754 -0.754,1.512 -3.023,1.512 l 0,0.754 5.293,0 2.265,-6.043 6.043,6.043 1.512,0 -6.801,-6.801 2.27,-8.312 -3.024,0 -2.265,6.8 -6.801,-6.8 -1.512,0 7.555,7.558"
         inkscape:connector-curvature="0"
         id="path112"
         style="fill:#c4c9cb;fill-opacity:1;fill-rule:evenodd;stroke:none" /><g
         id="g114"><path
           d="m 667.168,979.949 -1.512,5.289 c -0.754,0.754 -0.754,1.512 -3.023,1.512 l 0,0.754 5.293,0 2.266,-6.043 6.042,6.043 1.512,0 -6.801,-6.801 2.27,-8.313 -3.023,0 -2.266,6.801 -6.801,-6.801 -1.512,0 7.555,7.559 z"
           inkscape:connector-curvature="0"
           id="path116"
           style="fill:none;stroke:#c4c9cb;stroke-width:2.46602988;stroke-linecap:butt;stroke-linejoin:miter;stroke-miterlimit:2.61310005;stroke-opacity:1;stroke-dasharray:none" /></g><path
         d="m 746.504,945.945 -18.887,6.801 c 3.02,1.512 5.285,3.024 8.309,4.535 l 19.644,-6.801 -9.066,-4.535 z m -29.465,-12.843 -15.871,8.312 c 3.023,0.754 6.047,2.266 8.312,3.777 l 17.379,-8.312 -9.82,-3.777 z m -29.473,-12.09 -14.351,9.066 c 2.262,0.758 5.289,2.27 7.555,3.024 l 15.867,-9.067 -9.071,-3.023 z m 217.61,173.028 -28.711,-4.53 c 0,2.27 0.754,4.53 0.754,6.8 l 27.957,4.53 c 0.758,-2.27 0,-4.53 0,-6.8 z m 0,14.36 -27.957,-5.29 c -0.754,2.27 -0.754,4.53 -1.508,6.8 l 28.711,5.29 c 0,-1.51 0.754,-6.8 0.754,-6.8 z m -3.024,13.6 -27.953,-6.05 c -0.758,1.51 -1.511,3.78 -3.027,6.05 l 28.715,6.8 c 0.754,-2.27 1.511,-5.29 2.265,-6.8 z m -90.668,49.87 24.176,10.58 c 3.028,-1.52 6.047,-3.03 8.317,-3.79 l -24.18,-11.33 c -3.024,1.51 -6.047,3.03 -8.313,4.54 z m 23.422,-13.6 c -2.265,1.51 -5.289,3.77 -7.554,5.28 l 26.445,9.83 c 2.265,-1.51 4.531,-3.02 7.555,-4.54 l -26.446,-10.57 z m 12.844,-9.07 c -2.266,1.51 -4.531,3.02 -6.801,4.53 l 27.961,9.82 c 2.262,-2.26 4.531,-3.77 6.801,-5.28 l -27.961,-9.07 z m 11.336,-10.58 c -1.512,2.27 -3.777,3.78 -6.047,5.29 l 28.715,8.31 c 2.266,-1.51 3.777,-3.78 5.289,-5.29 l -27.957,-8.31 z m 33.246,2.27 c 0.754,-2.27 3.02,-4.54 3.777,-6.05 l -27.957,-7.55 c -1.511,2.26 -3.023,3.77 -4.531,6.04 l 28.711,7.56"
         inkscape:connector-curvature="0"
         id="path118"
         style="fill:#c4c9cb;fill-opacity:1;fill-rule:evenodd;stroke:none" /><path
         d="m 515.297,887.77 0.754,-9.071 c 2.269,0.754 5.289,0.754 7.558,1.512 l -1.515,9.07 c -2.262,0 -3.774,-0.758 -6.797,-1.511"
         inkscape:connector-curvature="0"
         id="path120"
         style="fill:#c4c9cb;fill-opacity:1;fill-rule:evenodd;stroke:none" /><path
         d="m 482.809,880.969 -0.758,-6.801 c 2.265,0 5.289,0 7.558,0.754 l 0,7.558 c -2.269,-0.757 -3.781,-0.757 -6.8,-1.511"
         inkscape:connector-curvature="0"
         id="path122"
         style="fill:#c4c9cb;fill-opacity:1;fill-rule:evenodd;stroke:none" /><path
         d="m 548.543,895.324 2.266,-9.824 c 3.023,0 5.289,0.754 7.554,1.512 l -3.019,9.824 c -2.27,-0.758 -4.535,-0.758 -6.801,-1.512"
         inkscape:connector-curvature="0"
         id="path124"
         style="fill:#c4c9cb;fill-opacity:1;fill-rule:evenodd;stroke:none" /><path
         d="m 579.52,902.879 6.046,-10.578 c 2.266,0.754 5.289,1.511 7.555,2.269 l -6.043,9.821 c -2.269,-0.758 -5.289,-0.758 -7.558,-1.512"
         inkscape:connector-curvature="0"
         id="path126"
         style="fill:#c4c9cb;fill-opacity:1;fill-rule:evenodd;stroke:none" /><path
         d="m 611.258,910.434 9.062,-9.821 c 2.27,0.754 5.289,1.512 8.313,2.266 l -9.067,9.824 c -2.265,-0.758 -5.289,-1.512 -8.308,-2.269"
         inkscape:connector-curvature="0"
         id="path128"
         style="fill:#c4c9cb;fill-opacity:1;fill-rule:evenodd;stroke:none" /><path
         d="m 642.992,919.504 10.574,-9.824 c 3.024,1.511 6.801,2.265 9.067,3.023 l -11.332,9.82 c -3.02,-0.757 -5.289,-1.511 -8.309,-3.019"
         inkscape:connector-curvature="0"
         id="path130"
         style="fill:#c4c9cb;fill-opacity:1;fill-rule:evenodd;stroke:none" /><path
         d="m 774.461,959.547 c 2.266,0.758 5.289,2.269 9.066,4.535 l -23.422,6.043 c -2.265,-1.508 -5.293,-3.02 -8.312,-4.535 l 22.668,-6.043"
         inkscape:connector-curvature="0"
         id="path132"
         style="fill:#c4c9cb;fill-opacity:1;fill-rule:evenodd;stroke:none" /><path
         d="m 774.461,978.438 26.445,-5.29 c 2.266,1.512 6.047,3.778 9.067,5.29 l -26.446,5.289 c -3.023,-1.512 -6.043,-3.024 -9.066,-5.289"
         inkscape:connector-curvature="0"
         id="path134"
         style="fill:#c4c9cb;fill-opacity:1;fill-rule:evenodd;stroke:none" /><path
         d="m 796.375,992.039 27.199,-4.535 c 2.266,2.266 6.043,4.535 8.313,6.047 l -27.961,4.531 c -3.02,-1.512 -5.289,-3.777 -7.551,-6.043"
         inkscape:connector-curvature="0"
         id="path136"
         style="fill:#c4c9cb;fill-opacity:1;fill-rule:evenodd;stroke:none" /><path
         d="m 814.508,1005.64 28.711,-3.03 c 2.265,2.27 5.289,4.54 7.558,6.8 l -28.715,2.27 c -2.265,-1.51 -4.535,-3.78 -7.554,-6.04"
         inkscape:connector-curvature="0"
         id="path138"
         style="fill:#c4c9cb;fill-opacity:1;fill-rule:evenodd;stroke:none" /><path
         d="m 831.129,1019.99 29.469,-1.51 c 2.265,1.51 5.289,4.54 6.8,6.05 l -29.468,1.51 c -2.27,-1.51 -4.535,-3.78 -6.801,-6.05"
         inkscape:connector-curvature="0"
         id="path140"
         style="fill:#c4c9cb;fill-opacity:1;fill-rule:evenodd;stroke:none" /><path
         d="m 845.484,1034.35 30.227,-1.51 c 1.508,2.27 4.531,5.28 6.043,7.55 l -29.469,0 c -2.265,-2.27 -4.535,-4.53 -6.801,-6.04"
         inkscape:connector-curvature="0"
         id="path142"
         style="fill:#c4c9cb;fill-opacity:1;fill-rule:evenodd;stroke:none" /><path
         d="m 857.574,1047.95 29.469,0.76 c 1.512,2.26 3.777,5.29 5.289,7.55 l -29.469,-0.75 c -1.511,-3.03 -3.023,-5.3 -5.289,-7.56"
         inkscape:connector-curvature="0"
         id="path144"
         style="fill:#c4c9cb;fill-opacity:1;fill-rule:evenodd;stroke:none" /><path
         d="m 870.418,1069.11 c -0.754,-2.27 -2.266,-4.54 -3.777,-6.81 l 29.468,1.52 c 1.512,2.27 3.024,5.29 3.778,7.56 l -29.469,-2.27"
         inkscape:connector-curvature="0"
         id="path146"
         style="fill:#c4c9cb;fill-opacity:1;fill-rule:evenodd;stroke:none" /><path
         d="m 872.688,1075.91 29.464,3.02 c 0.758,2.27 1.512,5.29 2.27,7.55 l -29.469,-3.77 c -0.754,-1.51 -1.512,-3.78 -2.265,-6.8"
         inkscape:connector-curvature="0"
         id="path148"
         style="fill:#c4c9cb;fill-opacity:1;fill-rule:evenodd;stroke:none" /><path
         d="m 801.664,1175.64 24.176,11.34 c -2.266,1.51 -8.313,3.77 -9.067,3.77 l -23.421,-11.33 c 3.023,-1.51 6.043,-2.26 8.312,-3.78"
         inkscape:connector-curvature="0"
         id="path150"
         style="fill:#c4c9cb;fill-opacity:1;fill-rule:evenodd;stroke:none" /><path
         d="m 782.016,1183.2 22.668,12.09 c -3.02,0.75 -6.047,1.51 -9.067,3.02 l -22.668,-12.09 c 3.024,-0.76 6.043,-2.26 9.067,-3.02"
         inkscape:connector-curvature="0"
         id="path152"
         style="fill:#c4c9cb;fill-opacity:1;fill-rule:evenodd;stroke:none" /><path
         d="m 760.859,1189.25 20.403,12.84 c -2.27,0.75 -5.289,1.51 -9.821,2.27 l -20.402,-12.85 c 3.02,-0.76 6.043,-1.51 9.82,-2.26"
         inkscape:connector-curvature="0"
         id="path154"
         style="fill:#c4c9cb;fill-opacity:1;fill-rule:evenodd;stroke:none" /><path
         d="m 755.57,1207.38 -18.132,-12.84 c -3.778,0.75 -6.801,1.5 -10.579,1.5 l 18.133,12.85 10.578,-1.51"
         inkscape:connector-curvature="0"
         id="path156"
         style="fill:#c4c9cb;fill-opacity:1;fill-rule:evenodd;stroke:none" /><path
         d="m 711.746,1199.07 15.871,12.84 c -3.781,0 -6.801,0.76 -10.578,0.76 l -15.113,-12.85 c 3.023,0 6.043,-0.75 9.82,-0.75"
         inkscape:connector-curvature="0"
         id="path158"
         style="fill:#c4c9cb;fill-opacity:1;fill-rule:evenodd;stroke:none" /><path
         d="m 685.305,1202.09 12.843,12.09 c -3.023,0.75 -6.046,0.75 -9.07,0.75 l -13.601,-12.09 c 3.781,-0.75 6.046,-0.75 9.828,-0.75"
         inkscape:connector-curvature="0"
         id="path160"
         style="fill:#c4c9cb;fill-opacity:1;fill-rule:evenodd;stroke:none" /><path
         d="m 658.855,1204.36 10.579,11.33 c -3.02,0.76 -6.801,0.76 -9.821,0.76 l -10.578,-12.09 c 3.02,0 6.047,0 9.82,0"
         inkscape:connector-curvature="0"
         id="path162"
         style="fill:#c4c9cb;fill-opacity:1;fill-rule:evenodd;stroke:none" /><path
         d="m 631.656,1205.11 9.824,11.34 c -3.027,0 -6.8,0 -9.824,0 l -8.312,-10.58 c 3.023,0 5.289,-0.76 8.312,-0.76"
         inkscape:connector-curvature="0"
         id="path164"
         style="fill:#c4c9cb;fill-opacity:1;fill-rule:evenodd;stroke:none" /><path
         d="m 587.078,1105.38 70.266,64.98 c 0,0 -128.449,-41.56 -130.711,-43.07 25.687,3.02 52.887,-6.05 60.445,-21.91"
         inkscape:connector-curvature="0"
         id="path166"
         style="fill:#ea1f33;fill-opacity:1;fill-rule:evenodd;stroke:none" /><path
         d="m 936.156,1113.69 c -6.047,35.51 -40.047,64.97 -95.961,85.38 -52.133,18.89 -130.715,27.95 -209.293,26.44 l -1.511,0 0.754,-1.51 0.757,0 c 157.914,3.02 272.762,-42.31 284.852,-111.82 15.867,-92.19 -154.895,-200.989 -381.57,-241.035 -12.844,-2.266 -58.176,-9.067 -58.934,-9.067 l -0.754,0 0,-2.266 1.512,0 c 15.109,1.508 57.422,6.797 72.535,9.821 109.559,18.89 216.098,55.914 287.117,101.246 34.758,22.672 61.203,46.091 78.582,70.271 17.379,24.94 26.446,49.12 21.914,72.54"
         inkscape:connector-curvature="0"
         id="path168"
         style="fill:#ea1f33;fill-opacity:1;fill-rule:evenodd;stroke:none" /><path
         d="m 207.777,1008.66 43.821,0 -5.289,3.78 c -3.778,3.02 -3.778,6.04 -1.508,12.09 l 17.379,57.42 c 5.285,0.76 9.062,0.76 12.086,0.76 9.824,0 17.379,-2.27 19.648,-6.05 1.508,-1.51 2.262,-3.77 0.754,-6.8 -2.266,-9.82 -15.867,-15.86 -37.023,-18.13 l 0,-3.78 c 4.535,-0.75 9.066,-1.51 13.597,-1.51 23.426,0 42.313,9.82 46.848,23.42 1.512,5.29 0.758,10.58 -2.266,14.36 -5.289,6.8 -17.379,11.33 -34.758,11.33 l -48.355,0 4.531,-3.77 c 4.535,-3.03 3.778,-6.05 2.266,-12.09 l -16.621,-53.65 c -2.266,-6.8 -7.555,-14.36 -15.11,-17.38"
         inkscape:connector-curvature="0"
         id="path170"
         style="fill:#ffffff;fill-opacity:1;fill-rule:evenodd;stroke:none" /><path
         d="m 485.828,1005.64 c 16.625,0 32.492,4.53 46.848,12.84 15.109,8.31 25.687,20.4 29.469,33.25 3.773,13.6 0.753,25.69 -9.071,34 -9.066,8.31 -24.179,12.09 -42.312,12.09 -21.153,0 -40.801,-6.04 -56.668,-18.89 -9.821,-7.55 -16.621,-17.38 -19.645,-27.2 -3.777,-12.85 0,-24.94 9.824,-33.25 9.067,-8.31 23.422,-12.84 41.555,-12.84 z m 22.668,79.34 c 12.09,0 21.91,-3.78 27.199,-11.34 3.782,-6.04 4.535,-13.6 2.27,-21.91 -5.289,-18.89 -25.692,-32.49 -49.113,-32.49 -12.09,0 -21.914,4.53 -27.204,11.33 -3.777,6.05 -4.531,13.6 -2.265,21.91 5.289,18.9 25.691,32.5 49.113,32.5"
         inkscape:connector-curvature="0"
         id="path172"
         style="fill:#ffffff;fill-opacity:1;fill-rule:evenodd;stroke:none" /><path
         d="m 603.699,1006.39 c 16.621,0 31.735,3.02 42.313,8.31 6.043,3.03 10.578,6.05 12.843,9.83 3.778,3.77 5.29,7.55 5.29,12.09 0,6.04 -2.266,10.58 -8.309,14.35 -4.535,3.78 -11.336,6.05 -18.891,9.07 l -3.023,0.76 c -15.863,6.04 -22.664,9.06 -21.156,14.35 1.511,4.54 9.824,9.07 24.179,9.07 18.137,0 29.469,-8.31 29.469,-8.31 l 0.754,0 0,0 5.289,17.38 0,0 c 0,0 -16.621,3.77 -30.977,3.77 -27.957,0 -49.113,-9.06 -52.894,-23.42 -2.266,-6.04 0,-12.09 6.047,-16.62 4.535,-3.78 11.336,-6.05 14.355,-7.56 0.754,0 1.512,0 1.512,-0.75 1.512,0 3.023,-0.76 5.289,-1.51 7.555,-3.03 20.402,-7.56 21.91,-10.58 0.754,-1.51 1.512,-3.03 0.754,-4.54 -1.508,-6.04 -11.332,-12.09 -29.465,-12.09 -12.843,0 -24.179,3.03 -36.269,9.07 l -3.02,2.27 0,0 1.508,-20.4 0,0 c 7.559,-2.27 21.16,-4.54 32.492,-4.54"
         inkscape:connector-curvature="0"
         id="path174"
         style="fill:#ffffff;fill-opacity:1;fill-rule:evenodd;stroke:none" /><path
         d="m 358.891,1055.51 8.312,27.2 c 5.289,0.75 9.067,0.75 12.09,0.75 7.555,0 14.355,-2.26 16.621,-5.28 1.512,-1.52 2.27,-3.79 1.512,-6.05 -3.024,-8.31 -15.114,-14.36 -35.512,-16.62 l -3.023,0 z m -9.067,-30.98 9.067,29.47 1.511,-1.52 24.934,-34 c 4.535,-6.04 12.848,-9.07 21.914,-9.07 l 1.512,0 9.062,0 6.047,0 -5.289,3.78 c -5.289,3.78 -9.066,7.56 -12.09,10.58 0,0 -15.109,19.65 -20.398,26.44 18.133,4.54 29.468,9.83 33.242,21.92 1.512,4.53 0.758,9.07 -2.266,12.85 -5.289,6.8 -16.621,10.57 -32.488,10.57 l -46.848,0 5.289,-3.77 c 3.778,-3.03 3.778,-6.05 1.512,-12.09 l -16.621,-53.65 c -2.269,-6.8 -7.559,-14.36 -15.113,-17.38 l 43.066,0 -4.531,3.78 c -3.777,3.02 -3.777,6.04 -1.512,12.09"
         inkscape:connector-curvature="0"
         id="path176"
         style="fill:#ffffff;fill-opacity:1;fill-rule:evenodd;stroke:none" /><path
         d="m 684.547,1078.18 13.601,17.37 89.157,0 -12.09,-16.62 -1.512,-2.27 -1.508,2.27 c -2.269,2.27 -6.8,3.78 -15.113,3.78 l -11.332,0 -18.133,-58.18 c -1.515,-6.05 -2.269,-9.07 2.262,-12.09 l 4.539,-3.78 -45.34,0 c 7.559,3.02 12.848,10.58 15.113,17.38 l 17.379,56.67 -11.332,0 c -12.847,0 -19.644,-1.51 -25.691,-4.53"
         inkscape:connector-curvature="0"
         id="path178"
         style="fill:#ffffff;fill-opacity:1;fill-rule:evenodd;stroke:none" /></g></g></svg>