<?xml version="1.0" encoding="UTF-8" standalone="no"?>
<svg
   xmlns:svg="http://www.w3.org/2000/svg"
   xmlns="http://www.w3.org/2000/svg"
   version="1.0"
   width="500.00195"
   height="90"
   id="svg2"
   xml:space="preserve"><defs
     id="defs6" /><g
     transform="matrix(0,1.25,1.25,0,-445.9125,-34.265775)"
     id="g12"><path
       d="m 68.81026,457.0112 c -0.602052,44.52831 -0.602052,54.446 -0.933914,105.95517 -0.672535,109.97864 -0.246694,177.80483 -0.246694,181.05883 l 0.393536,-1.6651 c 0.892798,-85.90249 0.810567,-87.53831 2.522742,-177.94293 0.716588,-37.8382 1.973554,-94.81575 6.287766,-126.1048 0,0 -4.860464,14.61369 -8.023436,18.69883"
       id="path4384"
       style="fill:#d7404c;fill-opacity:1;fill-rule:evenodd;stroke:none" /><path
       d="m 59.926331,703.1034 c 0.196768,1.113 -0.651978,3.6035 0.972093,3.207 0.164463,-0.3231 0.496325,-0.558 0.716588,-0.8311 0.484578,-0.7254 0.969156,-1.4538 1.45667,-2.1762 0.361231,-0.4582 0.722462,-0.9163 1.080756,-1.3745 0.728335,-1.254 1.180608,-2.5433 1.891322,-3.8619 -0.02349,-0.026 -0.04405,-0.047 -0.07048,-0.067 -3.961791,2.5873 -4.45518,1.903 -6.046945,5.1042"
       id="path4386"
       style="fill:#777f83;fill-opacity:1;fill-rule:evenodd;stroke:none" /><path
       d="m 72.757367,655.87611 c -0.135094,1.70631 0.305431,2.27312 0.68722,3.33625 0.149779,0.49339 0.296621,0.9809 0.449336,1.46842 0.04993,-0.006 0.09985,-0.009 0.149779,-0.0118 2.684268,-2.97208 4.801726,-6.6255 7.05428,-9.99699 0.754767,-1.19823 1.51247,-2.39646 2.267237,-3.59469 0.804693,0.44347 1.389124,1.59764 1.923628,2.3436 1.083692,1.52422 2.293669,2.98676 3.23933,4.66369 0.364167,0.88693 0.810566,1.98531 1.177671,2.8781 0.02937,-0.0294 -0.02349,-0.25256 0.0059,-0.28193 -0.170337,-0.74596 -0.155653,-1.53597 -0.299558,-2.13214 0.34361,0.27899 0.34361,0.7019 0.502199,0.8135 -0.05286,-0.36711 -0.12041,-0.82525 -0.170336,-1.19236 0.320115,0.17034 0.299557,0.38473 0.490451,0.68722 0.02349,-0.0117 0.04112,0.091 0.06755,0.0764 0.0059,-0.11454 0.02643,-0.35242 0.03231,-0.47283 0.07929,0.10573 0.07342,0.18502 0.152715,0.25257 -0.0088,-0.044 0.0059,-0.3025 0,-0.35536 0.05874,-0.25844 -0.08517,-0.60792 -0.173273,-0.85756 0.04993,-0.0705 0.23201,0.0999 0.367105,0.23789 0.904545,-5.80906 -2.546237,-8.40816 -4.599086,-11.5682 -0.167399,-0.29662 -0.343609,-0.58737 -0.516883,-0.88105 -0.28781,-0.97797 0.05286,-2.06753 -0.654914,-2.57267 -0.281936,0.11454 -0.869304,0.33774 -1.101314,0.64023 -0.278999,0.59912 -0.552125,1.20117 -0.828187,1.80909 -0.469894,0.87224 -0.939788,1.75036 -1.412619,2.62847 -0.06461,0.31424 -0.135094,0.62848 -0.205578,0.94566 -0.179147,0.23201 -0.355357,0.4699 -0.534504,0.70484 -1.09544,1.77973 -2.211438,3.79146 -3.797329,5.07779 0.743019,-2.25549 1.080755,-4.5051 1.794407,-6.64018 0.234946,-0.80763 0.469893,-1.61526 0.707777,-2.41702 1.55065,-0.90748 3.104236,-1.8179 4.651948,-2.72245 3.894245,-2.29073 10.008737,-4.98087 12.422817,-8.57262 -0.0088,-0.14391 -0.01469,-0.22907 -0.09692,-0.29956 -0.951535,-0.37298 -3.961792,0.72246 -4.8634,1.08076 -0.898672,0.33186 -1.79147,0.6696 -2.687205,1.00146 -0.3906,0.58149 -0.74302,0.98971 -1.127745,1.5624 -0.208516,0.16446 -1.019082,0.54037 -2.193817,1.15711 -1.56827,0.83112 -3.298067,1.69162 -4.875148,2.62847 0.452273,-1.18355 0.678409,-2.46107 0.972093,-3.67105 0.135095,-0.56387 0.199705,-1.35975 -0.06167,-1.58295 -1.136556,0.60205 -3.007321,2.74594 -3.650488,3.87075 -0.646104,1.12481 -0.76064,2.46694 -1.283397,3.73859 -1.254029,3.06312 -1.985301,6.2584 -2.801741,9.62695 -0.325989,1.69162 -0.651978,3.37736 -0.977967,5.06898 -0.06755,0.50513 -0.135094,1.01614 -0.202642,1.52421"
       id="path4388"
       style="fill:#77787b;fill-opacity:1;fill-rule:evenodd;stroke:none" /><path
       d="m 49.274427,756.73 c 0.0029,-0.041 0.07342,-0.2026 0.07342,-0.2408 0.47283,-1.0749 0.910419,-2.0705 1.38325,-3.1454 0.446399,-0.9104 0.810566,-1.8179 1.309828,-2.6725 0.97503,-1.8737 1.289271,-2.4434 2.349469,-4.2202 1.245219,-2.467 2.25549,-4.0998 3.577066,-6.4552 1.444924,-2.5756 2.895721,-4.5726 4.422875,-6.7723 0,-0.012 0.0029,-0.023 0.0029,-0.035 -1.350944,0.4082 -1.870764,1.5389 -2.983825,2.2026 -0.07342,-0.01 -0.149779,-0.01 -0.226136,-0.015 -0.461084,-0.9956 -0.922167,-1.9941 -1.38325,-2.9839 -0.09692,-0.5521 0.748893,-2.5579 0.99265,-3.1482 1.256966,-3.0426 2.687205,-5.674 4.74299,-7.9765 0.610862,-0.6813 1.418492,-1.2423 2.161512,-1.8061 0.525693,-0.3965 2.1527,-3.445 2.3759,-4.1909 -1.436113,0.8223 -2.707763,2.0822 -3.952981,3.1248 -0.411157,0.3436 -0.842872,1.2834 -1.409682,1.2922 -0.117473,-0.5727 -0.555062,-2.7783 -0.372978,-3.4332 0.466957,-1.6563 1.509534,-3.0455 2.419953,-4.3112 1.850207,-2.5874 3.691603,-5.0279 5.762072,-7.3891 0.654915,-0.7489 1.538902,-1.4332 2.038165,-2.3231 -2.452258,1.489 -4.67838,3.4978 -6.390556,5.7122 -0.466956,0.602 -1.242281,1.2393 -1.488975,2.0117 -0.07636,0.032 -0.152716,0.068 -0.23201,0.094 -0.352421,-1.2452 -0.217326,-3.8267 0.557998,-5.0543 0.173274,-0.2731 0.478705,-0.649 0.772388,-0.8194 0.114537,0.082 0.387663,0.029 0.537441,-0.085 0.766514,-0.5727 1.371503,-1.4626 2.102775,-2.0999 0.446399,-0.5051 0.895735,-1.0103 1.345071,-1.5095 1.650502,-1.7886 3.148288,-3.6711 4.593211,-5.6681 0.443462,-0.6109 2.8781,-3.3598 2.813489,-3.8913 0.0029,-0.029 0.0029,-0.053 0.0059,-0.082 -0.610862,0.4846 -1.224661,0.9575 -1.835523,1.445 -1.236408,0.9133 -2.560921,2.2907 -3.706287,3.4772 -0.18502,0.1938 -0.328925,0.2995 -0.499262,0.4816 0.02056,-0.018 -0.164463,0.1674 -0.138031,0.1557 -0.46402,0.5668 -0.757704,0.8135 -1.107187,1.2511 -0.337736,0.4111 -0.637294,0.8575 -0.969156,1.2657 -0.437589,0.5463 -1.019082,0.9398 -1.368566,1.5654 -0.01175,0.01 -0.02349,0.01 -0.04111,0.01 -0.114537,-0.141 0.155652,-1.3715 0.293683,-1.7239 0.04112,0.065 0.164463,-1.0309 0.267252,-1.3363 0.290747,-0.9104 0.57562,-1.9442 0.549189,-2.9486 0.226136,-0.1527 0.449335,-0.3142 0.675472,-0.4699 0.675472,-0.7401 1.356818,-1.4743 2.03229,-2.2114 1.101314,-1.4479 2.196754,-2.8987 3.298067,-4.3495 0.643167,-1.0073 1.286334,-2.0205 1.926565,-3.0249 0.804693,-1.163 2.14389,-2.9662 2.422889,-3.6417 0.469894,-1.1219 1.524218,-1.8972 0.748893,-3.1072 -1.239344,0.1733 -2.120395,1.1542 -2.886909,1.8268 -1.565334,1.3891 -2.578542,2.8692 -3.409667,4.9309 -0.311305,0.7724 -0.267252,1.7386 -0.599114,2.4581 -0.317179,0.6843 -0.619673,1.2276 -0.757704,1.9853 -0.02937,0.012 -0.05286,0.1469 -0.07636,0.1616 0.0029,-0.085 0.0059,-0.2937 0.0088,-0.3818 -0.06167,0.1821 -0.120411,0.3583 -0.182084,0.5433 -0.05286,0.01 -0.07636,0.2526 -0.129221,0.2555 -0.0088,-0.097 -0.03818,-0.4405 -0.04699,-0.5374 -0.01175,0 -0.02349,0 -0.03818,0 -0.09692,0.138 -0.149779,0.4464 -0.155653,0.7635 -0.02643,0.015 -0.0088,0.1381 -0.03524,0.1527 -0.490451,-0.3377 -1.418491,-4.1262 -1.077818,-5.3626 0.249631,-0.8987 0.663725,-1.7386 1.098376,-2.5404 0.804693,-1.4684 1.627007,-2.8105 2.83111,-4.1233 0.875177,-0.83699 1.747418,-1.6828 2.622595,-2.52567 0.566809,-0.77826 1.151239,-1.58883 2.067532,-2.84873 1.174735,-1.66813 2.560921,-3.19528 3.676919,-4.95151 0.0029,-0.0118 0.0029,-0.0206 0.0029,-0.0352 -1.794407,0.7577 -6.029325,3.82082 -6.939744,5.34798 -0.02643,0.0117 -0.04993,0.0264 -0.07929,0.0382 -0.481641,-1.01321 -0.945661,-2.23494 -1.130682,-3.5154 -0.0558,-0.37885 0.922166,-2.76356 1.107187,-3.29219 1.024956,-2.94271 2.231995,-5.41553 3.98235,-7.64752 0.555062,-0.62261 1.115997,-1.24816 1.668122,-1.8737 0.651978,-0.80176 2.839921,-3.21877 3.715098,-3.59763 0.499262,-0.044 0.992651,-0.0822 1.491913,-0.12922 0.731272,0.90749 2.343595,4.77236 1.333323,6.65781 -0.466957,0.87224 -1.071945,1.70924 -1.665186,2.47869 -0.328925,0.38766 -0.657851,0.78413 -0.98384,1.17473 0.328926,-0.17914 0.675472,-0.24669 1.010272,-0.34948 0.80763,0.52276 0.276062,2.54624 -0.161526,3.51246 -0.381789,0.84287 -1.283398,1.48897 -1.844333,2.19381 -1.180608,1.58296 -2.36709,3.16591 -3.550635,4.74887 0.249631,0.0352 0.719525,-0.14097 1.115998,-0.17034 0.458146,0.6696 1.301018,1.90307 1.524218,2.68721 0.24082,0.85168 -0.719525,2.92509 -1.051388,3.63289 -1.057261,2.2731 -2.364153,4.2584 -3.785581,6.1938 -0.549189,0.7195 -1.098377,1.4302 -1.644628,2.1409 0.99265,-0.5962 1.938311,-1.2511 3.465466,-1.3539 0.839935,0.7783 0.478704,3.2364 -0.01175,4.2173 -0.469894,0.652 -0.939788,1.3128 -1.406745,1.9677 -1.110124,1.5184 -2.387647,2.8605 -3.52714,4.3289 -0.572683,0.6667 -1.145366,1.3304 -1.715112,1.9971 1.071945,-0.4523 1.879575,-1.2511 3.17472,-1.5536 0.305431,0.3994 0.989713,2.2525 0.716588,2.8311 -0.28781,0.3142 -0.572683,0.6314 -0.857556,0.9398 -0.80763,0.9956 -1.806155,1.8267 -2.637279,2.79 -2.146827,2.4845 -4.778232,4.972 -6.328882,7.9647 0.878114,-0.4464 4.431686,-3.2041 5.621104,-2.9721 0.393536,0.1762 0.431715,2.2144 0.105726,2.8135 -1.262839,2.3348 -3.691602,4.0322 -4.719495,6.5462 2.208501,1.4067 -0.12041,5.7855 -0.933914,7.6446 1.057261,-1.0661 1.456671,-1.6564 2.07047,-2.3906 0.854619,-1.022 1.691617,-2.0646 2.587352,-3.0573 0.478704,-0.6079 0.957409,-1.2099 1.43905,-1.8179 0.04405,-0.1263 2.510994,-1.348 3.004383,-1.2393 0.578557,0.1292 0.819377,0.8311 1.227597,1.1336 0.522757,0.3877 0.822314,0.9192 1.133619,1.5213 0.375915,0.7166 0.825251,1.4243 0.972093,2.3964 0.246694,1.6946 -2.681331,2.6109 -3.841382,3.163 -2.481626,1.1689 -4.883958,2.4082 -7.186437,3.6299 -0.696031,0.373 -1.509534,0.6432 -2.164449,1.163 -0.367104,0.467 -0.737145,0.9193 -1.107187,1.3774 -0.193831,0.2467 -0.593241,0.6344 -0.925103,1.0044 -0.0088,0.079 -0.252568,0.3025 -0.258442,0.3789 -0.405283,0.4493 -0.886924,1.16 -1.295144,1.6123 -0.80763,1.0484 -2.872226,3.997 -3.060183,4.1967 -0.593241,1.0044 -1.720986,2.8781 -2.437574,4 -1.286334,2.0117 -1.541839,2.7459 -2.88691,4.7929 -0.69603,1.0631 -1.251092,2.2203 -1.897196,3.3274 -0.443462,0.746 -0.745956,1.4567 -1.189419,2.1968 -0.496325,0.975 -1.11306,1.9236 -1.806154,2.8781 0.02937,-0.1968 0.132158,-0.514 0.182084,-0.7988 -0.02937,0 -0.331862,0.4522 -0.75183,1.1277 -0.02349,0.018 -0.202642,0.2761 -0.229073,0.2937 z m 34.337486,-95.7526 c 0.461084,-0.837 0.173274,-1.87958 -0.290746,-2.232 -0.129221,0.0235 -0.255505,0.047 -0.384726,0.0705 -1.20704,1.13655 -2.546237,2.44932 -3.280446,4.00878 -0.167399,0.46402 -0.331862,0.93391 -0.499262,1.40087 -0.04112,0.63142 -0.04993,1.22172 0.05874,1.6505 0.06167,0.0411 0.12041,0.0852 0.182084,0.13803 1.107187,-0.79588 3.541824,-3.80907 4.214359,-5.03667 z m -7.2393,61.4151 c -0.185021,-0.2555 -0.63142,-0.5785 -1.121872,-0.3935 -1.418492,1.3803 -2.452258,2.3847 -3.312751,3.2217 0.255505,-0.035 4.246665,-2.5316 4.434623,-2.8282 z m -13.629856,7.3597 c 1.113061,-0.975 1.882512,-2.5873 2.698952,-3.8414 0.543315,-0.8399 1.409681,-1.8766 1.286334,-3.1629 -0.831124,0.094 -1.979427,1.345 -2.419953,1.9001 -0.93685,1.2041 -1.356818,1.859 -1.882512,2.6901 -0.75183,1.1865 -1.262839,2.5874 -1.96768,3.7445 -0.0029,0.053 -0.0088,0.1028 -0.01175,0.1498 0.766514,-0.4934 1.530091,-0.9868 2.296606,-1.4802"
       id="path4390"
       style="fill:#77787b;fill-opacity:1;fill-rule:evenodd;stroke:none" /><path
       d="m 46.631274,600.44627 c 0,-4.88102 3.955918,-8.834 8.834003,-8.834 4.878085,0 8.828129,3.95298 8.828129,8.834 0,4.87809 -3.950044,8.834 -8.828129,8.834 -4.878085,0 -8.834003,-3.95591 -8.834003,-8.834 z m 14.496223,0 c 0,-2.71951 -2.53449,-4.91626 -5.66222,-4.91626 -3.12773,0 -5.668093,2.19675 -5.668093,4.91626 0,2.71364 2.540363,4.91627 5.668093,4.91627 3.12773,0 5.66222,-2.20263 5.66222,-4.91627"
       id="path4392"
       style="fill:#d7404c;fill-opacity:1;fill-rule:evenodd;stroke:none" /><path
       d="m 47.112916,609.36251 0,4.41406 7.089522,4.12626 -7.089522,4.21142 0,4.32889 10.249557,-6.74003 6.416987,0 0,-3.6035 -6.416987,0.006 -10.249557,-6.74297"
       id="path4394"
       style="fill:#d7404c;fill-opacity:1;fill-rule:evenodd;stroke:none" /><path
       d="m 47.115852,669.65281 -0.0029,-4.59615 16.666545,-6.78115 0,4.16443 -3.75034,1.37151 0,7.08952 3.75034,1.3715 0,4.17324 -16.663608,-6.7929 m 10.082158,-4.79585 -6.804649,2.49925 6.807586,2.50218 -0.0029,-5.00143"
       id="path4396"
       style="fill:#d7404c;fill-opacity:1;fill-rule:evenodd;stroke:none" /><path
       d="m 50.405109,645.02157 -3.28632,0 0,14.32882 3.280446,0 0,-5.36266 13.380225,0 0,-3.59469 -13.374351,0 0,-5.37147"
       id="path4398"
       style="fill:#d7404c;fill-opacity:1;fill-rule:evenodd;stroke:none" /><path
       d="m 50.402172,576.4582 -3.28632,0 0,14.32882 3.280446,0 0,-5.35679 13.380225,0 0,-3.60056 -13.374351,0 0,-5.37147"
       id="path4400"
       style="fill:#d7404c;fill-opacity:1;fill-rule:evenodd;stroke:none" /><path
       d="m 46.598969,635.37113 c 0,-4.88103 3.955918,-8.83107 8.834003,-8.83107 4.881021,0 8.831066,3.95004 8.831066,8.83107 0,4.87808 -3.950045,8.834 -8.831066,8.834 -4.878085,0 -8.834003,-3.95592 -8.834003,-8.834 z m 14.502096,0 c 0,-2.7107 -2.540363,-4.91039 -5.668093,-4.91039 -3.12773,0 -5.668094,2.19969 -5.668094,4.91039 0,2.71363 2.540364,4.91626 5.668094,4.91626 3.12773,0 5.668093,-2.20263 5.668093,-4.91626"
       id="path4402"
       style="fill:#d7404c;fill-opacity:1;fill-rule:evenodd;stroke:none" /><path
       d="m 58.939554,478.65862 c -0.161526,0.57562 -0.340673,1.0602 -0.593241,1.60645 0.440526,0.0529 0.819377,0.0529 1.256966,-0.0118 0.323052,-0.0411 0.58443,-0.13803 0.860493,-0.31424 l 2.070469,0.28487 c 0.290747,0.0881 0.537441,0.1674 0.828188,0.27019 0.161526,0.0529 0.28781,0.12629 0.414094,0.24082 l 0,4.44637 c -0.302494,-0.19089 -0.593241,-0.28781 -0.951535,-0.3113 -0.99265,-0.0646 -1.835522,-0.10279 -2.83111,-0.12922 -1.309829,-0.0176 -2.414079,-0.0352 -3.720971,-0.047 -0.707777,-0.006 -1.303955,-0.0822 -1.988238,-0.25551 -0.895735,-0.23494 -1.577081,-0.75476 -2.026417,-1.55652 -0.273126,-0.48751 -0.446399,-0.93685 -0.560936,-1.47429 -0.372978,-1.7298 -0.405283,-3.25989 -0.102789,-5.00143 0.0881,-0.48752 0.208516,-0.8928 0.396473,-1.35388 0.440526,-1.06314 1.245219,-1.79147 2.349469,-2.13508 0.422904,-0.12629 0.804693,-0.1674 1.245218,-0.11748 0.07929,0.0118 0.146842,0.0323 0.220263,0.0705 l 0.09691,4.03227 c -0.258441,-0.009 -0.475767,0.0235 -0.716588,0.1116 -0.372978,0.12922 -0.634356,0.39354 -0.772388,0.76064 -0.196768,0.54332 -0.205578,1.06314 -0.02349,1.61233 0.117474,0.36123 0.378852,0.61379 0.74302,0.72833 0.229073,0.0705 0.452273,0.0352 0.649041,-0.10279 0.173273,-0.12041 0.284873,-0.26431 0.36123,-0.45814 0.04405,-0.12335 0.0793,-0.2232 0.1116,-0.34949 0.152716,-0.558 0.258442,-1.03964 0.352421,-1.61232 0.07636,-0.45227 0.146841,-0.83113 0.234946,-1.28634 0.126284,-0.60792 0.258442,-1.12187 0.45521,-1.71511 0.173273,-0.53744 0.422904,-0.96328 0.813504,-1.38031 0.499262,-0.54625 1.092503,-0.85462 1.826712,-0.96328 0.490451,-0.0705 0.922166,-0.0529 1.406744,0.0558 1.254029,0.28193 2.185006,1.15417 2.546237,2.38177 0.396472,1.36269 0.331862,2.64903 -0.202642,3.96767 -0.258442,0.63729 -0.616736,1.13068 -1.154177,1.5712 l -2.070469,-0.28487 c 0.314242,-0.20264 0.531568,-0.45521 0.681346,-0.80176 0.140968,-0.31717 0.214389,-0.60498 0.252568,-0.95447 0.02937,-0.29368 0.0059,-0.54038 -0.07048,-0.81937 -0.06461,-0.22908 -0.170337,-0.40822 -0.34361,-0.56975 -0.149778,-0.14097 -0.308368,-0.2232 -0.508072,-0.26138 -0.305431,-0.0646 -0.593241,0.0352 -0.79882,0.26725 -0.135094,0.16153 -0.223199,0.31718 -0.293683,0.51101 -0.176211,0.46696 -0.305431,0.86637 -0.443463,1.34801"
       id="path4404"
       style="fill:#005aaa;fill-opacity:1;fill-rule:evenodd;stroke:none" /><path
       d="m 60.463772,506.85518 c 0.314241,-0.1997 0.531567,-0.45521 0.681346,-0.79588 0.140968,-0.31718 0.214389,-0.60792 0.252568,-0.95741 0.02937,-0.29075 0.0059,-0.54038 -0.07048,-0.81938 -0.06461,-0.22907 -0.170337,-0.40822 -0.34361,-0.56974 -0.149779,-0.14097 -0.308368,-0.2232 -0.508073,-0.26138 -0.305431,-0.0646 -0.593241,0.0323 -0.798819,0.27019 -0.135095,0.15859 -0.2232,0.31424 -0.293684,0.50807 -0.17621,0.46402 -0.305431,0.86637 -0.443462,1.34801 -0.161526,0.57856 -0.340673,1.05726 -0.593241,1.60645 0.440526,0.0529 0.819377,0.0499 1.256966,-0.0118 0.323052,-0.047 0.58443,-0.13803 0.860493,-0.31718 l 2.070469,0.28781 c 0.290747,0.0881 0.537441,0.16447 0.828188,0.27019 0.161526,0.0529 0.28781,0.12629 0.414094,0.24082 l 0,4.44637 c -0.302494,-0.19383 -0.593241,-0.29075 -0.951535,-0.3113 -0.99265,-0.0675 -1.835522,-0.10279 -2.83111,-0.12629 -1.309829,-0.0264 -2.414079,-0.0382 -3.720971,-0.047 -0.707777,-0.009 -1.303955,-0.0881 -1.988238,-0.25844 -0.895735,-0.23201 -1.577081,-0.75476 -2.026417,-1.55652 -0.273126,-0.48458 -0.446399,-0.93685 -0.560936,-1.47723 -0.372978,-1.7298 -0.405283,-3.25695 -0.102789,-4.99849 0.0881,-0.48752 0.208516,-0.89574 0.396473,-1.35095 0.440526,-1.06607 1.245219,-1.79441 2.349469,-2.13802 0.422904,-0.12922 0.804693,-0.16446 1.245218,-0.11453 0.07929,0.0118 0.146842,0.0294 0.220263,0.0617 l 0.09692,4.03815 c -0.258441,-0.009 -0.475767,0.0206 -0.716588,0.10866 -0.372978,0.1351 -0.634356,0.3906 -0.772388,0.76358 -0.196768,0.54038 -0.205578,1.0602 -0.0235,1.60939 0.117474,0.35829 0.378852,0.61673 0.74302,0.73127 0.229073,0.0705 0.452273,0.0352 0.649041,-0.10279 0.173273,-0.12041 0.284873,-0.27019 0.36123,-0.46402 0.04405,-0.11454 0.07929,-0.21733 0.1116,-0.34361 0.152716,-0.56387 0.258442,-1.03964 0.352421,-1.61232 0.07636,-0.45228 0.146841,-0.837 0.234946,-1.28634 0.126284,-0.60792 0.258442,-1.12187 0.45521,-1.71511 0.173273,-0.54038 0.422904,-0.96328 0.813504,-1.38031 0.499262,-0.54625 1.092503,-0.86049 1.826712,-0.96328 0.490451,-0.0705 0.922166,-0.0529 1.406744,0.0558 1.254029,0.279 2.185006,1.15417 2.546237,2.38471 0.396472,1.35975 0.331862,2.64609 -0.202642,3.96179 -0.258442,0.6461 -0.616736,1.13362 -1.154177,1.57414 l -2.070469,-0.28781"
       id="path4406"
       style="fill:#005aaa;fill-opacity:1;fill-rule:evenodd;stroke:none" /><path
       d="m 58.872007,533.45411 c 0.419967,-0.0617 0.769451,-0.1674 1.16005,-0.34361 l 2.822299,2.58148 c -0.854619,1.11306 -1.908943,1.8179 -3.268698,2.19381 -0.886924,0.24963 -1.676933,0.32012 -2.593226,0.23789 -1.49485,-0.14097 -2.725384,-0.72247 -3.762087,-1.80028 -0.972093,-1.01028 -1.527155,-2.1204 -1.744481,-3.50365 -0.07342,-0.46696 -0.105726,-0.87224 -0.105726,-1.35388 0,-0.48164 0.03231,-0.88399 0.105726,-1.35976 0.217326,-1.37737 0.772388,-2.49043 1.744481,-3.49483 1.036703,-1.07782 2.267237,-1.66225 3.762087,-1.80028 0.916293,-0.0793 1.706302,-0.0118 2.593226,0.23494 1.359755,0.37298 2.414079,1.08076 3.268698,2.19382 0.569747,0.73421 0.907483,1.46548 1.107188,2.37296 0.140968,0.6373 0.202641,1.19236 0.202641,1.85315 0,0.65785 -0.06167,1.21585 -0.202641,1.85608 -0.199705,0.90748 -0.537441,1.63582 -1.107188,2.37003 l -2.822299,-2.58148 c 0.916293,-0.40822 1.321576,-1.47723 0.910419,-2.38471 -0.187957,-0.41997 -0.487515,-0.71953 -0.910419,-0.90749 -0.390599,-0.17327 -0.740083,-0.27606 -1.16005,-0.33773 -0.851683,-0.12629 -1.585892,-0.10867 -2.42289,0.0499 -0.437588,0.0852 -0.795882,0.23201 -1.168861,0.47283 -0.810566,0.52863 -1.036703,1.60939 -0.508072,2.41996 0.140968,0.21439 0.29662,0.3671 0.508072,0.50807 0.372979,0.24376 0.731273,0.38472 1.168861,0.47283 0.836998,0.15859 1.571207,0.17327 2.42289,0.0499"
       id="path4408"
       style="fill:#005aaa;fill-opacity:1;fill-rule:evenodd;stroke:none" /><path
       d="m 58.578323,465.95387 0,-3.07781 -3.955918,0 0,1.99999 c 0,0.37885 -0.0088,0.69897 -0.03231,1.07782 -0.02937,0.52863 -0.264315,0.96328 -0.690156,1.27752 -0.226137,0.1674 -0.45521,0.25844 -0.734209,0.29956 -0.234947,0.0323 -0.434652,0.0411 -0.669599,0.0206 -0.881051,-0.0881 -1.541839,-0.81644 -1.541839,-1.69456 l 0,-2.98089 12.822226,0 0,-5.09541 -16.880933,0 0,8.32593 c 0,0.3348 0.01175,0.61087 0.02643,0.94273 0.117473,2.2085 1.353881,4.0264 3.368551,4.96031 1.04845,0.49339 2.055785,0.65492 3.207025,0.52863 2.425826,-0.26431 4.308338,-1.94418 4.831095,-4.31714 0.17621,-0.78414 0.249631,-1.46842 0.249631,-2.26724"
       id="path4410"
       style="fill:#005aaa;fill-opacity:1;fill-rule:evenodd;stroke:none" /><path
       d="m 59.338964,518.44394 c 0.06167,0.34067 0.132157,0.62554 0.243757,0.95741 0.0881,0.279 0.305431,0.46402 0.587367,0.52863 0.311305,0.0617 0.604989,-0.0235 0.831125,-0.2467 0.229073,-0.2232 0.355357,-0.48164 0.40822,-0.79882 0.07048,-0.41703 0.03524,-0.79588 -0.1116,-1.20116 -0.07342,-0.19383 -0.161526,-0.34655 -0.29662,-0.50808 -0.173273,-0.20557 -0.372978,-0.33773 -0.63142,-0.41996 -0.220262,-0.0646 -0.414094,-0.0881 -0.643167,-0.0881 l 0,-4.3935 0.258442,0 c 0.414094,0 0.766514,0.0675 1.154176,0.21145 0.584431,0.2232 1.03964,0.52275 1.465481,0.97796 0.557999,0.59912 0.907483,1.21879 1.130682,1.99705 0.466957,1.62407 0.557999,3.08662 0.302494,4.75768 -0.12041,0.77826 -0.334799,1.4273 -0.701903,2.1292 -0.161526,0.31424 -0.325989,0.56094 -0.552126,0.82232 -1.004398,1.18942 -2.531552,1.62994 -4.014654,1.15417 -0.555062,-0.17914 -0.986777,-0.45814 -1.371503,-0.90161 -0.52863,-0.61086 -0.86343,-1.22172 -1.086629,-1.98236 -0.05286,-0.17327 -0.09398,-0.31718 -0.140968,-0.48751 -0.261379,-0.93686 -0.437589,-1.74449 -0.578557,-2.71364 -0.03818,-0.25844 -0.08223,-0.47577 -0.140968,-0.72834 -0.02349,-0.11747 -0.06167,-0.21732 -0.1116,-0.32892 -0.12041,-0.26725 -0.443462,-0.3906 -0.713651,-0.26725 -0.01175,0.003 -0.02643,0.0147 -0.03818,0.0235 -0.261378,0.14097 -0.434652,0.35829 -0.516883,0.64023 -0.143905,0.49926 -0.132158,0.96328 0.03818,1.45667 0.158589,0.47283 0.593241,0.76652 1.098377,0.74596 l 0,4.22904 c -0.522757,0 -0.966219,-0.0822 -1.459608,-0.25844 -0.496325,-0.17915 -0.875177,-0.45227 -1.204103,-0.86049 -0.284873,-0.36123 -0.484578,-0.70484 -0.64904,-1.13068 -0.164463,-0.41997 -0.264316,-0.78708 -0.340673,-1.2276 -0.185021,-1.04845 -0.234947,-1.95006 -0.173274,-3.01026 0.03524,-0.60792 0.1116,-1.12187 0.252568,-1.71511 0.185021,-0.79882 0.499262,-1.44199 1.007335,-2.08515 0.431715,-0.55213 0.936851,-0.91042 1.600576,-1.1395 0.29662,-0.10279 0.563872,-0.15565 0.88105,-0.17327 0.525694,-0.0235 0.980904,0.0587 1.471355,0.25257 0.881051,0.34654 1.50366,0.96328 1.853144,1.84139 0.179147,0.44934 0.29662,0.83113 0.393536,1.30396 0.190894,0.92217 0.340673,1.7063 0.499262,2.63728"
       id="path4412"
       style="fill:#005aaa;fill-opacity:1;fill-rule:evenodd;stroke:none" /><path
       d="m 52.992461,490.18276 c -0.516883,0.58444 -0.883987,1.14831 -1.212913,1.85902 -0.540378,1.15712 -0.625546,2.3201 -0.267252,3.54183 0.384725,1.3157 1.318639,2.2643 2.628468,2.67545 0.63142,0.19971 1.195292,0.28781 1.85608,0.28781 l 7.779679,0 0,-4.76061 -6.995543,0 c -0.234947,0 -0.434652,-0.0294 -0.657852,-0.0998 -0.402346,-0.12628 -0.69603,-0.38473 -0.863429,-0.77239 -0.361231,-0.84287 -0.04112,-1.80322 0.754766,-2.26724 0.331863,-0.19383 0.660789,-0.28193 1.042577,-0.28193 l 6.719481,0 0,-4.61083 -12.058649,0 0,4.32302 1.274587,0.10572"
       id="path4414"
       style="fill:#005aaa;fill-opacity:1;fill-rule:evenodd;stroke:none" /><path
       d="m 52.992461,543.21321 c -0.516883,0.59031 -0.883987,1.15124 -1.212913,1.86196 -0.540378,1.15711 -0.625546,2.3201 -0.267252,3.54182 0.384725,1.31864 1.318639,2.26724 2.628468,2.67839 0.63142,0.19384 1.195292,0.28488 1.85608,0.28488 l 7.779679,0 0,-4.76649 -6.995543,0 c -0.234947,0 -0.434652,-0.0294 -0.657852,-0.091 -0.402346,-0.12335 -0.69603,-0.39353 -0.863429,-0.77532 -0.361231,-0.84875 -0.04112,-1.80028 0.754766,-2.2643 0.331863,-0.19677 0.660789,-0.28194 1.042577,-0.28194 l 6.719481,0 0,-4.61671 -12.058649,0 0,4.32596 1.274587,0.10279"
       id="path4416"
       style="fill:#005aaa;fill-opacity:1;fill-rule:evenodd;stroke:none" /><path
       d="m 51.717874,552.49949 12.057181,0 0,4.48425 -12.057181,0 0,-4.48425 z"
       id="path4418"
       style="fill:#005aaa;fill-opacity:1;fill-rule:nonzero;stroke:none" /><path
       d="m 46.89559,552.49949 3.186467,0 0,4.48425 -3.186467,0 0,-4.48425 z"
       id="path4420"
       style="fill:#005aaa;fill-opacity:1;fill-rule:nonzero;stroke:none" /><path
       d="m 62.208253,569.02506 c 0.957408,-0.90748 1.527154,-1.93537 1.788533,-3.21877 0.17621,-0.87224 0.214389,-1.62994 0.12041,-2.51687 -0.12041,-1.17179 -0.499262,-2.13508 -1.20704,-3.08074 -0.578556,-0.77239 -1.204102,-1.32451 -2.041101,-1.80909 -0.651977,-0.3671 -1.256965,-0.58443 -1.994111,-0.70484 -1.027893,-0.17034 -1.926565,-0.12628 -2.928026,0.14391 -2.281921,0.61379 -3.894244,2.31716 -4.375885,4.61964 -0.273126,1.30983 -0.246695,2.47575 0.09104,3.7709 0.240821,0.92804 0.640231,1.66225 1.298082,2.36415 0.40822,0.43759 0.822314,0.75183 1.359755,1.02789 0.63142,0.33186 1.248155,0.46108 1.95887,0.42291 l 0,-4.09689 c -0.552126,-0.0881 -0.992651,-0.35242 -1.330387,-0.79588 -0.440526,-0.57562 -0.472831,-1.30983 -0.09398,-1.92657 0.261378,-0.41996 0.619672,-0.69309 1.092503,-0.83993 1.124808,-0.35536 2.170322,-0.37004 3.306877,-0.0558 0.481641,0.13216 0.857556,0.36123 1.198229,0.71659 0.390599,0.41409 0.552125,0.9251 0.472831,1.48016 -0.05286,0.35242 -0.205579,0.63729 -0.469894,0.8693 -0.273126,0.24376 -0.566809,0.38767 -0.92804,0.45521 -0.255505,0.0411 -0.472831,0.0646 -0.731272,0.0764 l 0,4.3289 c 1.312765,0.0852 2.458132,-0.3348 3.412604,-1.23054"
       id="path4422"
       style="fill:#005aaa;fill-opacity:1;fill-rule:evenodd;stroke:none" /><path
       d="m 37.524146,428.67073 c -4.34358,12.4933 -9.438991,30.17599 -9.438991,30.17599 0,0 3.459593,-2.32891 10.795809,-7.80611 6.369998,-4.75767 6.396429,-7.64164 10.848672,-22.24947 3.967666,-13.01018 7.459564,-14.63131 13.450709,-19.05712 0,0 -0.246694,1.42436 -0.505136,3.80907 -0.278999,2.58148 -0.384725,5.41553 -0.384725,5.41553 0,0 0.587367,-6.66956 11.380239,-12.32003 14.56377,-7.62109 21.770766,-5.99995 23.101152,-17.19224 0.904546,-7.59172 0.816441,-11.99697 0.816441,-11.99697 0,0 -12.678321,9.90007 -32.883753,22.06445 -18.446267,11.0983 -21.835375,13.78257 -27.180417,29.1569"
       id="path4424"
       style="fill:#d7404c;fill-opacity:1;fill-rule:evenodd;stroke:none" /><path
       d="m 34.742962,418.97918 c 4.370012,-26.64592 4.361202,-29.51521 11.480092,-44.04961 4.79879,-9.78847 9.565275,-17.62101 9.565275,-17.62101 0,0 -4.637264,3.27457 -11.436039,10.66952 -8.531509,9.28628 -10.264242,13.75908 -12.123259,33.89696 -1.647565,17.83541 -1.509534,18.7194 -2.390585,29.83238 -0.743019,9.37438 -2.425826,27.33607 -2.425826,27.33607 0,0 3.700413,-17.9147 7.330342,-40.06431"
       id="path4426"
       style="fill:#77787b;fill-opacity:1;fill-rule:evenodd;stroke:none" /><path
       d="m 48.977806,380.97945 c 2.604974,-10.96027 7.62109,-24.24945 7.62109,-24.24945 0,0 -0.842872,9.25103 -1.606449,19.36256 -0.431715,5.66516 -0.387663,10.04398 1.262839,11.45366 1.73567,1.47723 5.67103,0.90161 12.684195,-1.14537 15.112958,-4.39938 28.663519,-9.66512 28.663519,-9.66512 0,0 -11.406671,7.58291 -29.421223,15.61809 -9.362633,4.18206 -16.590187,6.2349 -18.880919,4.78411 -2.290732,-1.4508 -2.531552,-6.86633 -0.323052,-16.15848"
       id="path4428"
       style="fill:#231f20;fill-opacity:1;fill-rule:evenodd;stroke:none" /></g></svg>