<svg id="Layer_1" data-name="Layer 1" xmlns="http://www.w3.org/2000/svg" xmlns:xlink="http://www.w3.org/1999/xlink" viewBox="0 0 112 112"><defs><linearGradient id="linear-gradient" x1="-13.11" y1="608.97" x2="-12.35" y2="608.33" gradientTransform="matrix(109.55, 0, 0, -109.55, 1706.48, 66986.73)" gradientUnits="userSpaceOnUse"><stop offset="0" stop-color="#fff"/><stop offset="0.1" stop-color="#e7e8e6"/><stop offset="0.1" stop-color="#cdd0d0"/><stop offset="0.2" stop-color="#b5bbbd"/><stop offset="0.2" stop-color="#a5acaf"/><stop offset="0.3" stop-color="#9ba3a7"/><stop offset="0.3" stop-color="#98a0a4"/><stop offset="0.4" stop-color="#828a8f"/><stop offset="0.5" stop-color="#667075"/><stop offset="0.6" stop-color="#535c63"/><stop offset="0.7" stop-color="#475158"/><stop offset="0.8" stop-color="#434d54"/><stop offset="1" stop-color="#475157"/></linearGradient><linearGradient id="linear-gradient-2" x1="-13" y1="608.92" x2="-12.23" y2="608.28" gradientTransform="matrix(102.9, 0, 0, -102.9, 1610.05, 62933.55)" gradientUnits="userSpaceOnUse"><stop offset="0" stop-color="#0b1f2a"/><stop offset="0.2" stop-color="#333f47"/><stop offset="0.5" stop-color="#777f84"/><stop offset="0.5" stop-color="#81898d"/><stop offset="0.7" stop-color="#b3b8b8"/><stop offset="0.8" stop-color="#d2d5d3"/><stop offset="0.8" stop-color="#dee0dd"/><stop offset="1" stop-color="#fbfbfb"/></linearGradient><linearGradient id="linear-gradient-3" x1="-12.6" y1="608.2" x2="-12.94" y2="609.14" gradientTransform="matrix(112, 0, 0, -112, 1742, 68480)" gradientUnits="userSpaceOnUse"><stop offset="0" stop-color="#e1e3e1"/><stop offset="0.1" stop-color="#c1c5c4"/><stop offset="0.3" stop-color="#9ba1a2"/><stop offset="0.5" stop-color="#7d8487"/><stop offset="0.7" stop-color="#687074" stop-opacity="0"/><stop offset="0.8" stop-color="#5b6469" stop-opacity="0"/><stop offset="1" stop-color="#576065" stop-opacity="0"/></linearGradient><linearGradient id="linear-gradient-4" x1="-12.74" y1="608.97" x2="-12.24" y2="608.1" gradientTransform="matrix(96.6, 0, 0, -96.6, 1518.7, 59093.7)" xlink:href="#linear-gradient-3"/><linearGradient id="linear-gradient-5" x1="-9.96" y1="605.73" x2="-10.03" y2="605.67" gradientTransform="matrix(42.7, 0, 0, -24.6, 758.85, 15225.62)" gradientUnits="userSpaceOnUse"><stop offset="0" stop-color="#27343c"/><stop offset="1" stop-color="#00111e" stop-opacity="0"/></linearGradient><linearGradient id="linear-gradient-6" x1="11.89" y1="607.12" x2="11.87" y2="607.29" gradientTransform="matrix(7.35, 0, 0, -47.42, 228.95, 29096.95)" gradientUnits="userSpaceOnUse"><stop offset="0.1" stop-color="#02131f"/><stop offset="0.9" stop-color="#02131f" stop-opacity="0"/></linearGradient><linearGradient id="linear-gradient-7" x1="-9.49" y1="605.81" x2="-9.66" y2="605.79" gradientTransform="matrix(43.05, 0, 0, -24.7, 720.53, 15285.83)" gradientUnits="userSpaceOnUse"><stop offset="0.2" stop-color="#02131f"/><stop offset="0.9" stop-color="#02131f" stop-opacity="0"/></linearGradient><linearGradient id="linear-gradient-8" x1="-9.79" y1="605.57" x2="-9.82" y2="605.61" gradientTransform="matrix(41.47, 0, 0, -23.99, 698.47, 14852.13)" gradientUnits="userSpaceOnUse"><stop offset="0" stop-color="#02131f"/><stop offset="0.1" stop-color="#02131f"/><stop offset="1" stop-color="#02131f" stop-opacity="0"/></linearGradient><linearGradient id="linear-gradient-9" x1="9.08" y1="607.63" x2="9.06" y2="607.61" gradientTransform="matrix(8.23, 0, 0, -48.7, 241.2, 29872.87)" gradientUnits="userSpaceOnUse"><stop offset="0.3" stop-color="#02131f"/><stop offset="0.8" stop-color="#02131f" stop-opacity="0"/></linearGradient><linearGradient id="linear-gradient-10" x1="9.08" y1="607.63" x2="9.07" y2="607.62" gradientTransform="matrix(8.23, 0, 0, -48.7, 241.2, 29872.87)" gradientUnits="userSpaceOnUse"><stop offset="0.4" stop-color="#27343c"/><stop offset="1" stop-color="#3b474e" stop-opacity="0"/></linearGradient><linearGradient id="linear-gradient-11" x1="-9.78" y1="608.28" x2="-9.4" y2="607.88" gradientTransform="matrix(39.03, 0, 0, -70.53, 648.6, 43215.25)" gradientUnits="userSpaceOnUse"><stop offset="0" stop-color="#24303a" stop-opacity="0"/><stop offset="0" stop-color="#25323b" stop-opacity="0"/><stop offset="0.1" stop-color="#27343c"/></linearGradient><linearGradient id="linear-gradient-12" x1="108.67" y1="597.77" x2="108.67" y2="598.78" gradientTransform="matrix(1.58, 0, 0, -8.3, 140.75, 5278.45)" gradientUnits="userSpaceOnUse"><stop offset="0.3" stop-color="#a5abaf"/><stop offset="1" stop-color="#a5abaf" stop-opacity="0"/></linearGradient><linearGradient id="linear-gradient-13" x1="-10.96" y1="609.13" x2="-10.96" y2="608.13" gradientTransform="matrix(54.78, 0, 0, -106.75, 939.63, 65281.53)" gradientUnits="userSpaceOnUse"><stop offset="0" stop-color="#dee0dd"/><stop offset="0" stop-color="#c5c9c7"/><stop offset="0" stop-color="#9ea4a5"/><stop offset="0" stop-color="#82898c"/><stop offset="0" stop-color="#71797d"/><stop offset="0" stop-color="#6b7378"/><stop offset="0.2" stop-color="#333f47"/><stop offset="0.5" stop-color="#27343c"/><stop offset="0.8" stop-color="#333f47"/><stop offset="1" stop-color="#434d54"/></linearGradient><linearGradient id="linear-gradient-14" x1="354.52" y1="517" x2="355.52" y2="517" gradientTransform="matrix(0.53, 0, 0, -1, 125.88, 771.23)" xlink:href="#linear-gradient-13"/><linearGradient id="linear-gradient-15" x1="-10.17" y1="608.59" x2="-10.39" y2="608.1" gradientTransform="matrix(46.18, 0, 0, -71.57, 816.01, 43826.17)" gradientUnits="userSpaceOnUse"><stop offset="0.7" stop-color="#27343c"/><stop offset="0.7" stop-color="#2b373f"/><stop offset="0.7" stop-color="#36424a"/><stop offset="0.7" stop-color="#49545b"/><stop offset="0.8" stop-color="#646d73" stop-opacity="0"/><stop offset="0.8" stop-color="#868d92" stop-opacity="0"/><stop offset="0.8" stop-color="#b0b5b8" stop-opacity="0"/><stop offset="0.8" stop-color="#e1e3e4" stop-opacity="0"/><stop offset="0.8" stop-color="#fff" stop-opacity="0"/></linearGradient></defs><title>Mercedes-Benz Star logo - Brandlogos.net</title><g id="Logo_with_name" data-name="Logo with name"><g id="Group"><path id="outer" d="M366.78,309A54.78,54.78,0,1,1,312,254.23,54.74,54.74,0,0,1,366.78,309ZM312,257.55A51.45,51.45,0,1,0,363.45,309,51.31,51.31,0,0,0,312,257.55Z" transform="translate(-256 -253)" style="fill:url(#linear-gradient)"/><path id="Shape" d="M312,257.55A51.45,51.45,0,1,0,363.45,309,51.31,51.31,0,0,0,312,257.55Zm0,99.57A48.13,48.13,0,1,1,360.13,309,48.1,48.1,0,0,1,312,357.13Z" transform="translate(-256 -253)" style="fill:url(#linear-gradient-2)"/><path id="Shape-2" data-name="Shape" d="M312,363.78A54.78,54.78,0,1,0,257.23,309,54.74,54.74,0,0,0,312,363.78ZM312,253a56,56,0,1,1-56,56,56.16,56.16,0,0,1,56-56Z" transform="translate(-256 -253)" style="opacity:0.4000000059604645;isolation:isolate;fill:url(#linear-gradient-3)"/><path id="Shape-3" data-name="Shape" d="M259.85,309.17A52.32,52.32,0,0,1,312,256.85h0a52.21,52.21,0,0,1,52.15,52.32h0a52,52,0,0,1-52.15,52h0a52,52,0,0,1-52.15-52Zm16.28-36a51,51,0,0,0-15.05,36h0A50.8,50.8,0,0,0,276,345.05h0a51.53,51.53,0,0,0,36,14.88h0a50.08,50.08,0,0,0,35.88-14.87h0a50.08,50.08,0,0,0,14.88-35.88h0a51.53,51.53,0,0,0-14.87-36h0A50.23,50.23,0,0,0,312,258.07h0a50.23,50.23,0,0,0-35.87,15.05Z" transform="translate(-256 -253)" style="fill:#fff"/><path id="Shape-4" data-name="Shape" d="M312,357.3a48.4,48.4,0,1,1,34.13-14.18A47.92,47.92,0,0,1,312,357.3Zm0-1.4a46.73,46.73,0,1,0-33.08-79.8A45.5,45.5,0,0,0,265.1,309,46.9,46.9,0,0,0,312,355.9Z" transform="translate(-256 -253)" style="opacity:0.4000000059604645;isolation:isolate;fill:url(#linear-gradient-4)"/><path id="Shape-5" data-name="Shape" d="M354.53,331.75l-34.65-27.47-7.87-45a3,3,0,0,0-1.58,1.4l-5.6,43.75L270,331.22s-.7.88-1.05,1.4a3.41,3.41,0,0,0-.18,1.4h0l43.05-17.68,43,17.68h0A2.5,2.5,0,0,0,354.53,331.75Z" transform="translate(-256 -253)" style="fill:#fff"/><path id="Shape-6" data-name="Shape" d="M312.35,310.4l-.35,8,39.55,15.93a3.15,3.15,0,0,0,3.5-.35l-42.18-23.8A.34.34,0,0,0,312.35,310.4Z" transform="translate(-256 -253)" style="fill:#565f64"/><path id="Shape-7" data-name="Shape" d="M312.35,310.4a41.8,41.8,0,0,0,4.9,6.82,40.42,40.42,0,0,0,8.57,6.83l25.73,10.32a3.15,3.15,0,0,0,3.5-.35l-42.18-23.8A.34.34,0,0,0,312.35,310.4Z" transform="translate(-256 -253)" style="fill:url(#linear-gradient-5)"/><path id="Shape-8" data-name="Shape" d="M354.88,332.45c0-.17-.18-.35-.35-.7l-36.05-26.42-4.9,3.15s.35.18.52,0a4.38,4.38,0,0,1,2.63,0c.88.35,38.15,24.15,38.15,24.15Z" transform="translate(-256 -253)" style="fill:#a4aaae;fill-opacity:0.6000000238418579"/><path id="Shape-9" data-name="Shape" d="M353.65,330.88l-33.6-26.6h0l-1.58,1,36.05,26.6A4.64,4.64,0,0,0,353.65,330.88Z" transform="translate(-256 -253)" style="fill:#333e46"/><path id="Shape-10" data-name="Shape" d="M312.88,307.78l-.17.17s0,.35.35.17c.17-.17,5.25-2.8,7-3.85l-6.13-42a3,3,0,0,0-2.1-2.8l.7,48.65Z" transform="translate(-256 -253)" style="fill:#565f64"/><path id="Shape-11" data-name="Shape" d="M309.9,262.27v2.28L306,303.22a1.59,1.59,0,0,0,.7,1.4l2.28,1.75,1.57-42.7.18-3.33A2.85,2.85,0,0,0,309.9,262.27Z" transform="translate(-256 -253)" style="fill:#a4aaae;fill-opacity:0.6000000238418579"/><path id="Shape-12" data-name="Shape" d="M307.8,307.08l-2.1-1.75-35.53,25.73s-1.05.7-1.23,1.4h0l1.23-.7h0l37.28-23.45C308.15,308,308.33,307.6,307.8,307.08Z" transform="translate(-256 -253)" style="fill:#a4aaae;fill-opacity:0.6000000238418579"/><path id="Shape-13" data-name="Shape" d="M311.47,310.4c0-.18-.17-.35-.35-.18l-42.35,24a3.52,3.52,0,0,0,3.5.35l39.55-15.93Z" transform="translate(-256 -253)" style="fill:#565f64"/><path id="Shape-14" data-name="Shape" d="M312.7,308l.17-.17-.17.17h0a.17.17,0,0,0,.17.17H313c.17-.17,5.25-2.8,7-3.85l-.7-5.08h0l-5.42-36.93a2.14,2.14,0,0,0-.52-1.57S316,296,316,299.9A11.42,11.42,0,0,1,312.7,308Z" transform="translate(-256 -253)" style="fill:url(#linear-gradient-6)"/><path id="Shape-15" data-name="Shape" d="M311.47,310.4c0-.18-.17-.35-.35-.18l-42.35,24a3.52,3.52,0,0,0,3.5.35l39.55-15.93Z" transform="translate(-256 -253)" style="fill-opacity:0.800000011920929;fill:url(#linear-gradient-7)"/><path id="Shape-16" data-name="Shape" d="M272.27,334.38l39.55-15.93-.35-7.7a10,10,0,0,1-5.25,6.13h0c-2.45,1.4-25.9,12.95-34.3,17a11.05,11.05,0,0,1-1.57.7A1.92,1.92,0,0,0,272.27,334.38Z" transform="translate(-256 -253)" style="opacity:0.800000011920929;isolation:isolate;fill:url(#linear-gradient-8)"/><path id="Shape-17" data-name="Shape" d="M312.88,307.78l-.17.17s0,.35.35.17c.17-.17,5.25-2.8,7-3.85l-6.13-42a3,3,0,0,0-2.1-2.8l.7,48.65Z" transform="translate(-256 -253)" style="fill:url(#linear-gradient-9)"/><path id="Shape-18" data-name="Shape" d="M312.88,307.78l-.17.17s0,.35.35.17c.17-.17,5.25-2.8,7-3.85l-6.13-42a3,3,0,0,0-2.1-2.8l.7,48.65Z" transform="translate(-256 -253)" style="fill:url(#linear-gradient-10)"/><path id="Shape-19" data-name="Shape" d="M264.93,330.7c-1.23-2.8-8.23-16.45-.53-42.7h-3c-1.58,5.25-2.8,8.4-3.5,13.13,0,0-.35,1.75-.53,3.67a39.81,39.81,0,0,0-.17,4.2c0,10.5,2.62,16.63,2.62,16.63A51.09,51.09,0,0,0,274.2,348.2c5.77,5.08,14.7,8.93,22,10.33C295,358.35,274,349.43,264.93,330.7Z" transform="translate(-256 -253)" style="fill:url(#linear-gradient-11)"/><path id="Shape-20" data-name="Shape" d="M312.7,310h-1.58c.17,0,.35,0,.35.17l.35,8.05H312l.35-8.05c0-.17.18-.35.35-.17Z" transform="translate(-256 -253)" style="fill:url(#linear-gradient-12)"/><path id="Shape-21" data-name="Shape" d="M329.5,257c18.38,7,35.7,26.25,35.7,50.57A53.1,53.1,0,0,1,312,361v2.8c29.75,0,54.78-24.5,54.78-54.78A54.8,54.8,0,0,0,329.5,257Z" transform="translate(-256 -253)" style="fill:url(#linear-gradient-13)"/><path id="Shape-22" data-name="Shape" d="M312.53,254.23h0Z" transform="translate(-256 -253)" style="fill:url(#linear-gradient-14)"/><path id="Shape-23" data-name="Shape" d="M358.9,288.35c-12.25-28.17-39.9-29.75-41.48-29.92h-.17c21.18,3.85,34.65,17.68,39.38,32.2v.17a54.94,54.94,0,0,1,3.32,18,47.85,47.85,0,0,1-3.85,19.25c-.17.88-.35,1.93-.53,1.93h2.8C366.78,314.25,363.1,298.33,358.9,288.35Z" transform="translate(-256 -253)" style="fill:url(#linear-gradient-15)"/><path id="Shape-24" data-name="Shape" d="M259.85,309.17A52.32,52.32,0,0,1,312,256.85h0a52.21,52.21,0,0,1,52.15,52.32h0a52,52,0,0,1-52.15,52h0a52,52,0,0,1-52.15-52Zm16.28-36a51,51,0,0,0-15.05,36h0A50.8,50.8,0,0,0,276,345.05h0a51.53,51.53,0,0,0,36,14.88h0a50.08,50.08,0,0,0,35.88-14.87h0a50.08,50.08,0,0,0,14.88-35.88h0a51.53,51.53,0,0,0-14.87-36h0A50.23,50.23,0,0,0,312,258.07h0a50.23,50.23,0,0,0-35.87,15.05Z" transform="translate(-256 -253)" style="fill:#fbfbfb"/><path id="Shape-25" data-name="Shape" d="M269.82,331.4h0l35.7-25.73a36.21,36.21,0,0,0,5.42,2.45c.35.17.35-.17.35-.17l-4.37-3.67a1.59,1.59,0,0,1-.7-1.4l4.2-42.18c-.17.18-.17.53-.35.7a1.58,1.58,0,0,0-.17.88l-6.12,42.18-33.6,26.42C270,331.05,269.82,331.22,269.82,331.4Z" transform="translate(-256 -253)" style="fill:#333f47"/></g></g></svg>