<?xml version="1.0" encoding="UTF-8" standalone="no"?>
<svg xmlns="http://www.w3.org/2000/svg" xmlns:xlink="http://www.w3.org/1999/xlink" clip-rule="evenodd" stroke-miterlimit="10" viewBox="0 0 425.20 141.73">
    <desc>SVG generated by Lineform</desc>
    <defs/>
    <g>
        <path d="M 29.75 67.08 C 36.12 66.89 42.01 66.15 48.87 67.02 C 59.31 68.33 69.82 70.54 79.46 74.73 C 112.98 89.26 127.80 96.36 141.89 102.29 C 144.52 103.33 147.51 104.27 150.31 104.65 C 133.94 108.44 119.87 108.21 105.92 107.85 C 95.15 107.29 84.75 104.27 74.65 100.65 C 60.65 95.62 58.45 93.97 48.74 88.61 C 32.42 79.59 26.34 76.06 22.06 73.34 C 18.94 71.35 16.37 69.00 12.49 69.33 C 14.08 69.04 17.25 68.44 18.84 68.14 " fill-rule="non-zero" fill="#E10B73"/>
        <path d="M 101.17 74.63 L 98.09 97.78 L 76.25 97.78 L 79.64 74.40 " fill-rule="non-zero" fill="#FFFFFF"/>
        <path d="M 86.52 24.04 C 84.34 40.73 81.61 57.34 79.52 74.04 L 79.46 74.73 C 87.89 74.75 96.34 74.53 104.77 74.92 C 111.21 74.76 117.82 75.58 124.08 73.67 C 130.37 71.81 136.05 67.77 139.68 62.29 C 145.27 53.91 146.53 42.10 140.93 33.42 C 136.86 27.07 129.09 24.33 121.83 24.17 C 110.06 24.11 98.29 24.22 86.52 24.04 Z M 107.33 43.89 C 111.23 44.06 115.14 43.60 119.02 44.07 C 123.74 46.47 121.23 55.57 115.80 55.07 C 112.53 55.17 109.26 55.07 105.99 55.10 C 106.30 51.35 106.89 47.62 107.33 43.89 Z M 107.33 43.89 " fill-rule="non-zero" fill="#203754"/>
        <path d="M 88.85 26.21 C 99.83 25.99 110.83 26.05 121.81 26.13 C 129.49 26.01 137.85 29.90 140.85 37.33 C 145.28 47.91 140.97 60.81 132.15 67.74 C 127.22 70.68 121.75 73.15 115.90 73.10 L 81.81 73.08 M 105.64 42.09 L 103.87 57.29 C 108.36 57.42 115.82 57.10 117.56 56.94 C 124.41 56.28 126.46 42.25 118.23 42.09 L 105.64 42.09 " fill-rule="non-zero" fill="#2769AA"/>
        <path d="M 330.22 22.04 C 335.09 20.83 340.63 22.76 343.10 27.26 C 347.11 33.65 342.62 43.57 334.80 43.82 C 328.24 44.94 321.52 39.12 322.25 32.41 C 322.17 27.56 325.71 23.41 330.22 22.04 " fill-rule="non-zero" fill="#E10B73"/>
        <path d="M 269.91 22.24 C 275.61 20.33 282.59 23.27 284.43 29.17 C 287.21 35.71 281.82 43.65 274.86 43.97 C 267.68 44.95 260.78 37.40 262.84 30.36 C 263.62 26.64 266.53 23.77 269.91 22.24 " fill-rule="non-zero" fill="#E10B73"/>
        <path d="M 297.80 33.34 C 304.04 27.71 313.06 27.37 321.03 27.23 C 320.88 31.33 320.86 35.45 321.06 39.56 C 317.90 39.73 313.87 39.14 310.80 40.78 C 308.58 41.96 308.35 46.77 307.87 46.77 L 317.35 46.76 L 315.89 59.84 L 306.45 59.93 L 300.22 95.86 L 284.34 95.79 L 290.68 59.97 L 282.56 59.96 L 284.22 46.80 L 292.15 46.79 C 292.65 41.90 293.90 36.67 297.80 33.34 M 299.58 34.22 " fill-rule="non-zero" fill="#203754"/>
        <path d="M 299.58 34.22 C 305.14 29.98 312.44 29.23 319.21 29.74 C 319.17 32.21 319.16 34.68 319.16 37.16 C 315.50 37.47 311.36 37.44 308.47 40.09 C 306.60 42.27 306.11 45.82 305.61 48.50 L 314.70 48.74 L 313.85 58.19 L 305.12 58.11 L 298.63 94.04 L 286.91 93.96 L 293.03 58.47 L 284.78 57.93 L 285.94 48.73 C 288.49 48.72 291.05 48.62 293.60 48.44 C 294.57 43.41 295.37 37.69 299.58 34.22 " fill-rule="non-zero" fill="#2769AA"/>
        <path d="M 156.60 45.87 C 164.89 42.62 174.15 42.39 182.86 43.74 C 188.14 44.52 193.72 47.18 195.83 52.41 C 197.37 55.93 197.15 59.86 196.48 63.55 C 194.71 74.05 192.93 84.53 191.15 95.02 C 185.82 95.00 180.50 95.08 175.18 95.03 C 175.15 94.14 175.10 92.37 175.08 91.49 C 167.31 96.53 157.43 97.44 148.52 95.57 C 143.94 94.63 139.60 91.28 138.57 86.57 C 138.16 82.19 139.30 77.68 141.64 73.96 C 144.27 70.13 148.56 67.84 152.91 66.51 C 160.23 64.27 167.99 64.36 175.43 62.70 C 177.47 62.26 180.05 60.76 179.64 58.32 C 179.63 55.49 176.07 55.02 173.89 54.82 C 169.13 54.30 162.97 55.06 160.85 60.07 C 155.43 60.18 150.00 60.17 144.58 60.06 C 145.68 53.54 150.48 48.18 156.60 45.87 M 189.45 92.95 " fill-rule="non-zero" fill="#203754"/>
        <path d="M 107.32 43.90 C 111.22 44.07 115.15 43.61 119.03 44.08 C 123.75 46.48 121.23 55.59 115.80 55.09 C 112.53 55.19 109.25 55.07 105.98 55.10 C 106.29 51.35 106.88 47.63 107.32 43.90 " fill-rule="non-zero" fill="#FFFEFE"/>
        <path d="M 254.91 95.20 L 263.54 44.24 L 280.73 44.58 L 272.17 95.20 L 254.91 95.20 M 270.62 93.31 " fill-rule="non-zero" fill="#203754"/>
        <path d="M 321.67 44.90 L 339.23 44.98 L 330.42 95.84 L 313.21 95.82 L 321.67 44.90 M 331.26 79.97 " fill-rule="non-zero" fill="#203754"/>
        <path d="M 160.72 46.40 C 168.43 44.45 176.60 44.50 184.38 46.00 C 188.61 46.85 192.96 49.44 194.32 53.75 C 195.83 58.23 194.82 62.96 193.96 67.45 C 192.26 75.92 191.23 84.50 189.45 92.95 C 185.30 93.11 181.16 93.13 177.01 93.10 C 176.77 91.71 176.53 90.33 176.30 88.94 C 171.72 91.16 167.13 93.89 161.90 94.04 C 156.47 94.18 150.70 94.84 145.57 92.65 C 141.36 90.85 139.64 85.62 140.69 81.39 C 141.62 75.98 145.57 71.29 150.69 69.33 C 158.89 65.75 168.11 66.64 176.61 64.30 C 179.46 63.64 180.87 60.94 182.25 58.64 C 179.73 52.56 172.24 52.02 166.66 53.30 C 163.74 53.86 161.52 55.93 159.45 57.90 C 155.27 58.24 151.08 58.21 146.90 58.15 C 149.09 52.16 154.63 47.91 160.72 46.40 M 162.78 73.19 C 157.69 73.71 152.75 79.06 154.70 84.30 C 156.45 86.23 158.96 87.72 161.64 87.58 C 167.30 87.26 173.28 85.18 176.75 80.46 C 179.22 77.34 179.65 73.24 179.97 69.42 C 174.29 70.92 168.58 72.30 162.78 73.19 " fill-rule="non-zero" fill="#2769AA"/>
        <path d="M 208.99 51.52 C 216.79 45.40 227.27 44.14 236.86 45.11 C 243.37 45.94 250.32 48.54 253.85 54.43 C 256.36 58.23 256.28 62.92 256.26 67.29 C 250.38 67.64 244.45 67.67 238.57 67.33 C 238.47 64.48 238.35 61.14 235.94 59.20 C 232.91 57.01 228.85 57.37 225.35 57.87 C 220.02 59.10 216.90 64.43 215.96 69.47 C 214.97 74.08 214.32 79.68 217.77 83.46 C 220.86 86.94 226.26 86.50 230.18 84.78 C 234.29 83.11 235.63 78.46 237.34 74.78 C 243.13 74.91 248.92 74.79 254.71 74.80 C 253.41 79.02 251.88 83.30 249.21 86.86 C 242.59 94.86 232.03 98.68 221.85 98.79 C 214.62 98.92 206.84 96.78 202.10 90.99 C 198.03 85.81 196.83 78.75 198.00 72.36 C 199.08 64.45 202.46 56.43 208.99 51.52 M 254.44 65.14 " fill-rule="non-zero" fill="#203754"/>
        <path d="M 347.27 52.78 C 354.09 46.47 363.81 44.46 372.85 44.91 C 380.22 44.91 388.18 47.29 392.80 53.38 C 395.93 57.26 395.87 62.50 396.02 67.22 C 390.19 67.33 384.35 67.30 378.52 67.24 C 377.98 64.17 377.87 60.19 374.70 58.57 C 370.86 56.70 366.10 56.98 362.34 58.91 C 357.64 61.63 355.72 67.18 355.10 72.28 C 354.75 76.15 354.52 80.73 357.61 83.64 C 360.64 86.90 365.63 86.47 369.45 85.03 C 373.69 83.52 375.40 78.83 376.80 74.95 C 382.67 74.78 388.55 74.87 394.42 74.89 C 392.89 79.63 391.08 84.47 387.70 88.23 C 379.80 96.34 367.84 99.92 356.73 98.33 C 351.69 97.84 346.68 95.89 343.02 92.33 C 338.84 88.24 337.16 82.15 337.39 76.44 C 337.66 67.74 340.62 58.69 347.27 52.78 M 391.75 76.96 " fill-rule="non-zero" fill="#203754"/>
        <path d="M 206.61 56.38 C 211.37 50.20 219.42 47.88 226.83 46.96 C 234.91 46.36 244.25 46.92 250.38 52.90 C 253.76 56.02 254.18 60.82 254.44 65.14 C 249.84 65.33 245.23 65.34 240.62 65.26 C 239.79 62.51 239.49 59.08 236.68 57.55 C 233.26 55.81 229.38 55.06 225.38 55.96 C 218.87 57.42 215.06 63.49 214.02 69.55 C 213.27 74.25 212.45 79.66 215.60 83.71 C 218.67 88.57 225.36 88.55 230.25 86.90 C 234.68 85.42 236.62 80.76 238.51 76.89 C 242.98 76.74 247.46 76.83 251.94 77.03 C 250.25 83.01 246.52 88.45 241.10 91.61 C 232.24 96.81 221.05 98.45 211.25 95.08 C 204.95 92.99 200.29 87.00 199.72 80.39 C 199.03 71.94 201.07 62.98 206.61 56.38 " fill-rule="non-zero" fill="#2769AA"/>
        <path d="M 265.01 46.63 L 278.62 46.71 L 270.62 93.31 L 257.18 93.25 L 265.01 46.63 " fill-rule="non-zero" fill="#2769AA"/>
        <path d="M 323.61 46.90 L 336.94 46.76 L 328.69 93.85 L 315.42 93.77 L 323.61 46.90 " fill-rule="non-zero" fill="#2769AA"/>
        <path d="M 356.56 49.19 C 366.52 45.78 378.24 45.32 387.56 50.77 C 392.47 53.80 394.17 59.71 393.75 65.18 C 389.28 65.28 384.81 65.28 380.34 65.22 C 379.42 62.59 378.96 59.44 376.62 57.63 C 371.73 54.47 365.15 54.98 360.36 58.05 C 355.30 61.85 353.33 68.40 353.00 74.48 C 352.83 78.81 354.02 83.82 358.00 86.20 C 361.70 88.98 366.82 88.15 370.77 86.41 C 374.75 84.64 376.57 80.48 378.46 76.85 C 382.89 76.67 387.32 76.73 391.75 76.96 C 390.03 81.62 387.90 86.43 383.68 89.36 C 376.91 95.27 367.57 97.12 358.81 96.69 C 353.14 96.19 346.82 94.71 343.26 89.86 C 338.37 84.25 339.34 76.24 340.02 69.40 C 342.00 60.66 347.79 52.18 356.56 49.19 " fill-rule="non-zero" fill="#2769AA"/>
        <path d="M 162.78 73.19 C 168.58 72.30 174.29 70.92 179.97 69.42 C 179.65 73.24 179.22 77.34 176.75 80.46 C 173.28 85.18 167.30 87.26 161.64 87.58 C 158.96 87.72 156.45 86.23 154.70 84.30 C 152.75 79.06 157.69 73.71 162.78 73.19 M 160.32 76.07 C 157.34 77.18 155.11 80.71 156.55 83.79 C 158.79 85.88 162.13 85.28 164.91 85.18 C 171.72 84.55 177.87 78.88 177.84 71.79 C 172.18 73.97 165.90 73.75 160.32 76.07 " fill-rule="non-zero" fill="#203754"/>
        <path d="M 160.32 76.07 C 165.90 73.75 172.18 73.97 177.84 71.79 C 177.87 78.88 171.72 84.55 164.91 85.18 C 162.13 85.28 158.79 85.88 156.55 83.79 C 155.11 80.71 157.34 77.18 160.32 76.07 " fill-rule="non-zero" fill="#FFFEFE"/>
        <path d="M 220.71 109.66 L 227.76 109.66 L 226.34 116.41 C 225.51 116.95 224.49 117.40 223.29 117.78 C 222.08 118.15 220.85 118.34 219.60 118.34 C 217.65 118.34 216.16 117.90 215.12 117.01 C 213.70 115.81 212.99 114.07 212.99 111.78 C 212.99 110.25 213.29 108.78 213.90 107.38 C 214.63 105.69 215.67 104.38 217.02 103.45 C 218.37 102.52 219.95 102.05 221.77 102.05 C 223.59 102.05 225.05 102.47 226.14 103.32 C 227.24 104.16 227.97 105.39 228.33 107.01 L 225.31 107.36 C 225.05 106.47 224.62 105.80 224.03 105.35 C 223.44 104.90 222.69 104.67 221.80 104.67 C 220.75 104.67 219.79 104.94 218.92 105.49 C 218.05 106.03 217.36 106.87 216.87 108.01 C 216.37 109.15 216.13 110.39 216.13 111.74 C 216.13 113.06 216.43 114.04 217.03 114.68 C 217.63 115.31 218.51 115.63 219.67 115.63 C 220.37 115.63 221.08 115.53 221.81 115.33 C 222.54 115.14 223.17 114.90 223.70 114.63 L 224.18 112.29 L 220.17 112.29 Z M 233.32 118.07 L 230.07 118.07 L 233.37 102.32 L 240.36 102.32 C 241.57 102.32 242.50 102.44 243.17 102.69 C 243.84 102.94 244.38 103.39 244.79 104.05 C 245.21 104.71 245.41 105.51 245.41 106.44 C 245.41 107.78 245.01 108.89 244.21 109.76 C 243.41 110.63 242.19 111.17 240.57 111.37 C 240.98 111.75 241.37 112.24 241.74 112.85 C 242.46 114.08 243.27 115.82 244.16 118.07 L 240.67 118.07 C 240.40 117.18 239.85 115.79 239.03 113.91 C 238.59 112.89 238.11 112.21 237.61 111.86 C 237.31 111.65 236.77 111.55 236.00 111.55 L 234.68 111.55 Z M 235.17 109.18 L 236.89 109.18 C 238.63 109.18 239.79 109.08 240.36 108.87 C 240.93 108.66 241.37 108.34 241.70 107.89 C 242.02 107.45 242.18 106.98 242.18 106.50 C 242.18 105.92 241.95 105.50 241.48 105.21 C 241.19 105.04 240.57 104.95 239.62 104.95 L 236.06 104.95 Z M 257.15 114.59 L 250.91 114.59 L 249.02 118.07 L 245.69 118.07 L 254.60 102.32 L 258.20 102.32 L 260.75 118.07 L 257.68 118.07 Z M 256.76 111.97 L 255.84 105.63 L 252.04 111.97 Z M 276.27 118.07 L 273.25 118.07 L 268.99 107.49 L 266.78 118.07 L 263.76 118.07 L 267.05 102.32 L 270.08 102.32 L 274.34 112.86 L 276.55 102.32 L 279.55 102.32 Z M 280.56 118.07 L 283.86 102.32 L 288.11 102.32 C 289.29 102.32 290.04 102.34 290.37 102.37 C 291.02 102.44 291.61 102.57 292.12 102.77 C 292.63 102.97 293.10 103.25 293.51 103.61 C 293.93 103.98 294.30 104.41 294.60 104.92 C 294.90 105.43 295.14 106.01 295.30 106.67 C 295.47 107.34 295.55 108.06 295.55 108.85 C 295.55 110.55 295.23 112.05 294.58 113.37 C 293.93 114.68 293.12 115.73 292.13 116.50 C 291.38 117.10 290.41 117.54 289.22 117.83 C 288.55 117.99 287.52 118.07 286.12 118.07 Z M 284.34 115.53 L 285.98 115.53 C 287.17 115.53 288.03 115.46 288.56 115.31 C 289.10 115.16 289.58 114.89 290.03 114.49 C 290.67 113.91 291.20 113.14 291.64 112.17 C 292.08 111.20 292.30 110.06 292.30 108.75 C 292.30 107.64 292.11 106.80 291.75 106.23 C 291.39 105.67 290.95 105.30 290.42 105.11 C 290.04 104.98 289.38 104.92 288.43 104.92 L 286.55 104.92 Z M 307.64 118.07 L 304.39 118.07 L 307.69 102.32 L 314.09 102.32 C 315.23 102.32 316.13 102.45 316.80 102.72 C 317.46 102.99 317.98 103.43 318.37 104.05 C 318.76 104.67 318.95 105.41 318.95 106.27 C 318.95 107.07 318.80 107.84 318.49 108.59 C 318.18 109.34 317.80 109.95 317.35 110.40 C 316.91 110.85 316.43 111.19 315.91 111.42 C 315.39 111.66 314.70 111.83 313.83 111.95 C 313.32 112.03 312.36 112.06 310.97 112.06 L 308.90 112.06 Z M 309.43 109.45 L 310.43 109.45 C 312.14 109.45 313.29 109.34 313.86 109.13 C 314.43 108.91 314.88 108.57 315.21 108.10 C 315.54 107.63 315.71 107.11 315.71 106.54 C 315.71 106.16 315.62 105.85 315.45 105.61 C 315.28 105.36 315.05 105.19 314.74 105.07 C 314.44 104.96 313.76 104.91 312.71 104.91 L 310.39 104.91 Z M 323.33 118.07 L 320.09 118.07 L 323.39 102.32 L 330.38 102.32 C 331.58 102.32 332.52 102.44 333.19 102.69 C 333.86 102.94 334.40 103.39 334.81 104.05 C 335.22 104.71 335.43 105.51 335.43 106.44 C 335.43 107.78 335.03 108.89 334.23 109.76 C 333.42 110.63 332.21 111.17 330.59 111.37 C 331.00 111.75 331.39 112.24 331.76 112.85 C 332.48 114.08 333.29 115.82 334.17 118.07 L 330.69 118.07 C 330.41 117.18 329.87 115.79 329.05 113.91 C 328.61 112.89 328.13 112.21 327.63 111.86 C 327.32 111.65 326.79 111.55 326.02 111.55 L 324.70 111.55 Z M 325.19 109.18 L 326.91 109.18 C 328.65 109.18 329.81 109.08 330.38 108.87 C 330.95 108.66 331.39 108.34 331.71 107.89 C 332.04 107.45 332.20 106.98 332.20 106.50 C 332.20 105.92 331.96 105.50 331.50 105.21 C 331.21 105.04 330.59 104.95 329.64 104.95 L 326.07 104.95 Z M 336.72 118.07 L 340.02 102.32 L 343.25 102.32 L 339.96 118.07 Z M 346.54 118.07 L 342.35 118.07 L 349.30 110.10 L 345.39 102.32 L 348.77 102.32 L 350.31 105.27 C 350.36 105.38 350.71 106.11 351.36 107.45 C 351.41 107.53 351.45 107.62 351.50 107.74 C 352.38 106.68 353.11 105.80 353.71 105.12 L 356.19 102.32 L 360.26 102.32 L 353.05 110.61 L 356.93 118.07 L 353.28 118.07 L 352.09 115.69 C 351.48 114.44 351.07 113.54 350.87 113.00 C 350.59 113.42 349.87 114.29 348.71 115.62 Z M 357.69 118.07 " fill="#E20B73" stroke="#E20B73" stroke-width="0.62"/>
    </g>
</svg>