<?xml version="1.0" encoding="UTF-8" standalone="no"?>
<svg xmlns="http://www.w3.org/2000/svg" xmlns:xlink="http://www.w3.org/1999/xlink" clip-rule="evenodd" stroke-miterlimit="10" viewBox="0 0 226.77 141.73">
    <desc>SVG generated by Lineform</desc>
    <defs/>
    <g>
        <path d="M 89.01 19.15 C 97.09 15.12 105.54 12.69 114.96 11.88 C 119.57 11.48 124.21 11.39 128.83 11.81 C 139.53 12.78 151.03 14.60 160.56 20.34 C 156.45 24.75 151.98 28.80 147.73 33.08 C 135.71 28.23 122.06 27.92 109.73 31.77 C 105.65 33.10 101.59 34.83 98.34 37.71 C 103.64 40.33 108.88 43.42 112.63 48.09 C 109.71 52.46 107.64 57.34 106.40 62.44 C 112.25 65.61 119.08 66.00 125.59 65.70 C 126.74 60.58 129.03 55.87 131.87 51.48 C 128.58 51.84 125.31 52.35 122.05 52.91 C 122.80 47.78 123.60 42.66 124.35 37.53 C 137.44 34.67 151.72 35.10 163.99 40.86 C 176.55 41.16 189.61 41.78 201.15 47.31 C 197.75 51.90 193.42 55.74 189.60 60.00 C 182.65 58.09 175.62 55.73 168.31 56.13 C 167.30 58.97 166.07 61.71 164.75 64.41 C 175.35 67.50 186.26 63.46 196.98 65.04 C 202.60 65.90 208.17 68.93 210.85 74.11 C 212.70 77.09 213.30 81.27 212.72 84.51 C 211.90 88.99 209.26 92.43 206.04 95.25 C 197.42 102.47 185.91 104.96 174.93 105.52 C 161.06 105.96 146.53 105.42 133.86 99.12 C 130.34 97.33 126.83 95.32 124.18 92.34 C 129.07 89.27 133.67 85.74 138.66 82.82 C 144.54 86.20 151.26 87.74 157.91 88.79 C 166.36 90.16 175.25 90.18 183.43 87.43 C 185.20 86.78 188.22 84.82 186.39 82.71 C 182.38 81.27 178.05 82.04 173.91 82.23 C 163.28 82.88 152.33 83.48 142.00 80.35 C 138.16 79.08 134.26 81.05 130.39 81.32 C 122.13 82.81 113.72 82.01 105.39 82.37 C 105.99 87.99 107.30 93.51 107.97 99.09 C 103.99 102.80 98.17 103.51 92.95 103.47 C 86.14 103.68 79.53 101.34 73.66 98.06 C 75.86 94.24 78.79 90.74 80.03 86.44 C 70.48 85.96 60.89 86.20 51.36 87.06 C 53.59 81.79 56.46 76.83 58.95 71.68 C 65.59 71.66 72.33 72.31 78.89 70.99 C 74.27 66.45 70.21 61.21 68.09 55.01 C 59.64 56.33 51.80 61.18 47.20 68.44 C 39.95 79.73 36.52 93.04 34.85 106.23 C 28.06 106.15 21.28 105.94 14.49 105.74 C 14.59 96.02 17.84 86.64 21.38 77.69 C 26.94 64.96 35.07 52.58 47.19 45.27 C 53.93 41.30 61.63 39.01 69.42 38.47 C 74.08 30.44 80.64 23.35 89.01 19.15 M 78.79 33.96 C 73.36 40.45 72.84 49.99 76.70 57.38 C 79.18 62.04 82.30 67.23 87.47 69.19 C 87.84 65.55 88.51 61.95 88.89 58.31 C 84.88 53.94 84.25 46.80 87.79 41.97 C 93.69 33.64 103.20 28.49 112.99 26.21 C 124.21 23.69 135.84 25.35 146.86 27.98 C 149.21 26.78 150.90 24.51 152.84 22.73 C 152.76 22.49 152.62 22.01 152.54 21.77 C 140.49 16.33 126.88 15.67 113.86 16.39 C 100.68 17.85 87.27 23.47 78.79 33.96 M 129.17 41.24 C 128.35 43.07 128.52 45.14 128.40 47.09 C 132.69 46.70 137.34 47.67 141.24 45.36 C 144.63 43.59 148.46 43.09 151.99 41.68 C 144.52 40.19 136.65 39.76 129.17 41.24 M 90.64 52.35 C 91.26 54.56 93.53 55.80 94.24 57.92 C 93.59 63.07 92.43 68.15 91.84 73.30 C 82.35 75.79 72.49 75.69 62.76 75.81 C 61.67 77.59 60.76 79.47 59.99 81.41 C 69.38 81.17 78.90 80.93 88.11 83.06 C 86.06 87.77 83.35 92.18 81.68 97.04 C 88.49 99.28 96.37 100.15 103.05 97.08 C 100.89 86.94 99.72 76.45 100.99 66.11 C 101.75 60.07 104.29 54.53 106.68 49.01 C 102.95 45.62 98.62 42.81 93.85 41.14 C 91.24 44.15 89.45 48.36 90.64 52.35 M 28.81 72.87 C 24.06 81.79 20.48 91.53 20.05 101.72 C 23.60 101.70 27.15 101.76 30.71 101.86 C 33.95 86.96 38.19 71.46 48.86 60.03 C 53.59 54.84 60.27 52.09 66.90 50.27 C 66.97 48.00 67.05 45.73 67.15 43.45 C 49.85 44.68 36.45 58.24 28.81 72.87 M 144.82 49.95 C 138.64 52.39 132.85 57.70 132.42 64.70 C 140.30 62.82 145.05 55.22 152.88 53.26 C 164.44 50.01 176.84 51.56 188.24 54.80 C 190.12 53.12 191.84 51.26 193.23 49.14 C 177.48 45.00 160.21 43.70 144.82 49.95 M 151.36 58.62 C 146.52 61.37 142.72 65.74 137.48 67.82 C 127.40 72.36 115.99 70.29 105.54 68.34 C 105.74 71.20 104.61 74.70 105.90 77.18 C 118.59 78.68 131.78 77.64 143.83 73.21 C 152.06 69.90 160.50 64.54 163.52 55.74 C 159.38 56.14 155.06 56.53 151.36 58.62 M 148.90 76.69 C 152.30 78.44 156.30 78.07 160.01 78.36 C 168.67 78.91 177.26 76.37 185.90 77.60 C 188.55 77.95 191.40 78.92 192.89 81.32 C 194.61 84.71 192.51 88.86 189.29 90.46 C 184.58 93.00 179.20 94.04 173.92 94.51 C 161.71 95.00 149.46 92.97 138.00 88.72 C 136.28 89.91 134.56 91.12 132.86 92.33 C 144.65 100.09 159.27 101.20 173.00 101.21 C 183.67 100.86 195.05 98.58 203.32 91.37 C 206.52 88.61 209.07 84.36 207.73 80.01 C 206.48 74.51 201.13 70.83 195.85 69.76 C 184.29 68.02 172.42 72.08 161.00 68.87 C 157.29 71.95 153.10 74.35 148.90 76.69 " fill-rule="non-zero" fill="#CE0018" stroke="#CC0019" stroke-width="0.85"/>
        <path d="M 12.94 111.96 C 13.84 111.04 14.32 109.25 15.82 109.21 C 21.46 108.74 27.12 109.12 32.77 109.07 C 32.75 110.35 32.73 111.63 32.71 112.91 L 18.58 112.87 L 18.46 115.13 L 32.76 115.21 C 32.76 116.44 32.77 117.68 32.78 118.91 C 28.05 118.86 23.32 118.90 18.59 118.85 C 18.62 121.59 18.62 124.34 18.62 127.09 L 12.94 127.09 L 12.94 111.96 " fill-rule="non-zero" fill="#CE0018"/>
        <path d="M 62.29 109.12 C 68.80 109.15 75.38 108.57 81.84 109.38 C 84.78 110.90 83.93 115.23 81.64 117.03 C 84.60 119.59 83.47 123.67 83.64 127.09 L 78.38 127.09 C 78.42 124.34 78.43 121.60 78.46 118.85 C 74.82 118.89 71.19 118.89 67.57 118.84 C 67.59 121.59 67.60 124.34 67.60 127.09 L 62.30 127.09 C 62.39 121.10 62.43 115.11 62.29 109.12 M 78.58 115.12 C 79.60 113.22 78.33 113.37 78.20 112.84 L 67.50 112.94 L 67.53 114.97 " fill-rule="non-zero" fill="#CE0018"/>
        <path d="M 109.41 109.47 C 110.94 108.52 113.02 109.22 114.77 109.03 C 114.60 115.05 114.71 121.07 114.72 127.09 L 109.37 127.09 C 109.60 124.26 109.58 121.42 109.46 118.59 C 106.94 121.08 105.27 124.22 103.24 127.09 L 99.19 127.09 C 97.22 124.05 95.30 120.95 92.87 118.24 C 92.79 121.19 92.79 124.14 92.79 127.09 L 87.68 127.09 C 87.61 121.54 87.68 114.74 87.63 109.19 C 89.68 109.23 91.74 109.10 93.78 109.39 C 96.71 112.57 98.11 118.35 101.53 121.04 C 104.36 117.32 106.45 113.09 109.41 109.47 " fill-rule="non-zero" fill="#CE0018"/>
        <path d="M 118.77 109.04 C 120.56 109.03 122.36 109.04 124.15 109.04 C 124.14 113.74 124.15 118.44 124.13 123.15 C 127.76 123.28 131.39 123.28 135.02 123.19 C 135.20 118.95 135.21 113.34 135.00 109.11 C 136.73 109.11 138.46 109.11 140.20 109.10 C 140.11 113.33 140.29 118.93 140.17 123.16 C 140.36 124.71 139.33 125.91 138.50 127.09 L 119.98 127.09 C 117.60 121.38 119.24 115.03 118.77 109.04 " fill-rule="non-zero" fill="#CE0018"/>
        <path d="M 144.25 109.05 C 146.03 109.06 147.80 109.07 149.58 109.10 C 149.45 113.84 149.47 118.58 149.53 123.33 C 154.25 123.32 158.97 123.33 163.68 123.32 C 163.65 124.58 163.62 125.83 163.59 127.09 L 145.19 127.09 C 143.46 121.23 144.73 115.05 144.25 109.05 " fill-rule="non-zero" fill="#CE0018"/>
        <path d="M 169.33 109.04 C 175.38 109.03 181.43 108.92 187.48 109.15 C 187.48 110.37 187.48 111.60 187.48 112.83 L 172.97 112.83 C 172.77 113.31 172.98 114.64 172.78 115.12 C 177.72 115.32 182.56 115.20 187.51 115.30 C 187.50 116.48 187.50 117.65 187.50 118.83 C 182.72 118.91 177.93 118.89 173.15 118.85 C 173.15 120.35 173.17 121.84 173.19 123.34 C 177.93 123.32 182.67 123.30 187.41 123.38 C 187.37 124.61 187.33 125.85 187.29 127.09 L 169.15 127.09 C 166.44 122.04 168.24 116.06 167.77 110.59 L 169.33 109.04 " fill-rule="non-zero" fill="#CE0018"/>
        <path d="M 38.41 109.18 L 56.33 109.09 L 58.22 110.52 C 58.23 114.72 58.38 118.92 58.26 123.11 C 58.42 124.65 57.49 125.89 56.69 127.09 L 38.20 127.09 C 36.04 121.88 37.65 116.08 37.08 110.61 M 42.33 112.75 C 41.56 116.18 42.34 119.70 42.16 123.18 C 45.77 123.29 49.39 123.27 53.01 123.21 C 53.11 119.73 53.56 116.17 52.68 112.74 C 49.23 112.90 45.78 112.90 42.33 112.75 " fill-rule="non-zero" fill="#CE0018"/>
        <path d="M 202.09 109.04 C 205.00 109.20 207.93 109.24 210.85 109.08 C 210.71 114.58 210.51 121.60 211.01 127.09 L 205.67 127.09 C 205.62 122.32 205.66 117.55 205.61 112.78 C 204.73 112.80 202.96 112.83 202.07 112.84 L 202.09 109.04 " fill-rule="non-zero" fill="#CE0018"/>
    </g>
</svg>