<?xml version="1.0" encoding="UTF-8" standalone="no"?>
<!-- Creator: CorelDRAW X5 -->

<svg
   xmlns:dc="http://purl.org/dc/elements/1.1/"
   xmlns:cc="http://creativecommons.org/ns#"
   xmlns:rdf="http://www.w3.org/1999/02/22-rdf-syntax-ns#"
   xmlns:svg="http://www.w3.org/2000/svg"
   xmlns="http://www.w3.org/2000/svg"
   xmlns:sodipodi="http://sodipodi.sourceforge.net/DTD/sodipodi-0.dtd"
   xmlns:inkscape="http://www.inkscape.org/namespaces/inkscape"
   xml:space="preserve"
   width="100%"
   height="100%"
   style="fill-rule:evenodd"
   viewBox="0 0 6800 6800"
   id="svg3005"
   version="1.1"
   inkscape:version="0.48.4 r9939"
   sodipodi:docname="Fondmetal.svg"><metadata
   id="metadata3023"><rdf:RDF><cc:Work
       rdf:about=""><dc:format>image/svg+xml</dc:format><dc:type
         rdf:resource="http://purl.org/dc/dcmitype/StillImage" /></cc:Work></rdf:RDF></metadata><sodipodi:namedview
   pagecolor="#000100"
   bordercolor="#666666"
   borderopacity="1"
   objecttolerance="10"
   gridtolerance="10"
   guidetolerance="10"
   inkscape:pageopacity="0"
   inkscape:pageshadow="2"
   inkscape:window-width="1600"
   inkscape:window-height="838"
   id="namedview3021"
   showgrid="false"
   fit-margin-top="0"
   fit-margin-left="0"
   fit-margin-right="0"
   fit-margin-bottom="0"
   inkscape:zoom="0.090736411"
   inkscape:cx="2095.0624"
   inkscape:cy="3826.2265"
   inkscape:window-x="-8"
   inkscape:window-y="-8"
   inkscape:window-maximized="1"
   inkscape:current-layer="Ebene_x0020_1" />
 <defs
   id="defs3007">
  <style
   type="text/css"
   id="style3009">
   
    .fil1 {fill:#2B2A29}
    .fil3 {fill:#E31E24}
    .fil2 {fill:#F39314}
    .fil0 {fill:#FEFEFE}
   
  </style>
 </defs>
 <g
   id="Ebene_x0020_1"
   transform="translate(-9,-24)"
   style="stroke:none;opacity:1;">
  <metadata
   id="CorelCorpID_0Corel-Layer" />
  
  <path
   class="fil1"
   d="m 227,3965 192,0 0,-255 304,0 0,-152 -304,0 0,-105 329,0 0,-152 -521,0 0,664 z m 981,20 c 230,0 357,-160 357,-352 0,-192 -132,-349 -357,-349 -227,0 -359,167 -359,349 0,192 130,352 359,352 l 0,0 z m 0,-155 c -115,0 -157,-90 -157,-197 0,-107 40,-197 157,-197 122,0 157,95 157,197 0,107 -40,197 -157,197 l 0,0 z m 492,135 192,0 0,-367 2,0 220,367 192,0 0,-664 -192,0 0,359 -2,0 -217,-359 -195,0 0,664 z m 764,0 324,0 c 195,0 312,-162 312,-332 0,-162 -95,-332 -312,-332 l -324,0 0,664 z m 195,-512 112,0 c 97,0 130,110 130,180 0,90 -30,180 -130,180 l -112,0 0,-359 z m 584,512 192,0 0,-367 3,0 97,367 167,0 97,-367 3,0 0,367 192,0 0,-664 -240,0 -135,439 -3,0 -135,-439 -240,0 0,664 z m 898,0 591,0 0,-152 -397,0 0,-110 349,0 0,-155 -349,0 0,-95 379,0 0,-152 -574,0 0,664 z m 876,0 192,0 0,-512 192,0 0,-152 -576,0 0,152 192,0 0,512 z m 372,0 207,0 40,-127 220,0 42,127 207,0 -260,-664 -197,0 -259,664 z m 419,-262 -125,0 62,-185 3,0 60,185 z m 402,262 502,0 0,-152 -307,0 0,-512 -195,0 0,664 z"
   id="path3015"
   inkscape:connector-curvature="0"
   style="stroke:none" />
  <path
   class="fil2"
   d="m 4072,4127 -888,0 c -442,586 -1220,1682 -1310,1757 -90,75 -75,217 -65,377 60,-3 100,5 110,30 352,-210 611,-599 898,-913 7,70 0,137 -25,210 -5,10 92,22 105,3 377,-502 798,-941 1175,-1462 l 0,0 z m 801,-1028 -923,0 c 457,-576 968,-1140 1360,-1437 392,-297 594,-55 407,222 l -843,1215 z"
   id="path3017"
   inkscape:connector-curvature="0"
   style="stroke:none" />
  <path
   class="fil3"
   d="m 2343,3117 1095,0 c 916,-1173 1525,-1931 1637,-2014 72,-82 17,-197 -70,-175 -160,47 -324,150 -783,494 -45,22 -70,-20 -32,-60 l 87,-85 c 72,-110 -2,-145 -70,-105 l -387,264 c -125,55 -230,-55 -112,-264 l 357,-497 c 87,-145 -30,-272 -177,-185 -170,110 -714,646 -1652,1562 -187,235 -245,604 222,427 l 339,-92 -454,729 z m 327,1011 -856,0 c -192,294 -352,614 -469,963 -17,57 -22,185 -15,382 252,75 477,-220 684,-469 210,-247 457,-564 656,-876 l 0,0 z"
   id="path3019"
   inkscape:connector-curvature="0"
   style="stroke:none" />
 </g>
</svg>