<?xml version="1.0" encoding="UTF-8" standalone="no"?>
<svg
   xmlns:svg="http://www.w3.org/2000/svg"
   xmlns="http://www.w3.org/2000/svg"
   version="1.0"
   width="500"
   height="165"
   id="svg2"
   xml:space="preserve"><defs
     id="defs6" /><g
     transform="matrix(1.25,0,0,-1.25,-225.75125,660.31491)"
     id="g12"><path
       d="m 189.04195,466.1449 c 0.41044,1.31838 1.81174,2.38801 3.13012,2.38801 l 10.43511,0.029 -9.22452,-29.61382 -12.78166,0 8.44095,27.19679 z m 37.01831,2.41703 -9.22452,-29.61382 -12.78581,0 3.84321,12.35879 -5.33571,-0.0332 c -1.54641,0 -2.40874,1.24376 -1.92782,2.7943 0.47677,1.54641 2.12267,2.79845 3.66493,2.79845 l 5.32742,-0.004 2.88136,9.31572 c 0.41459,1.31839 1.81589,2.38801 3.13427,2.38801 l 10.42267,-0.004 z"
       id="path48"
       style="fill:#ef1836;fill-opacity:1;fill-rule:nonzero;stroke:none" /><path
       d="m 244.53002,445.60635 c -0.39385,-1.26448 -1.0945,-1.83661 -2.2968,-1.83661 l -5.34815,0 c -1.20644,0 -1.55054,0.57213 -1.15669,1.83661 l 3.52397,11.31403 c 0.39386,1.25205 1.09451,1.83247 2.29681,1.83247 l 5.34814,0 c 1.2023,0 1.54641,-0.58042 1.15255,-1.83247 l -3.51983,-11.31403 z m 12.51218,0.46434 3.22547,10.37292 c 1.39301,4.45679 0.7048,7.13086 -4.58945,7.13086 l -19.90423,0 c -5.2984,0 -7.64495,-2.67407 -9.03381,-7.13086 l -3.23377,-10.37292 c -1.38057,-4.45265 -0.6965,-7.12258 4.59361,-7.12258 l 19.91666,0 c 5.28596,0 7.63252,2.66993 9.02552,7.12258"
       id="path50"
       style="fill:#ef1836;fill-opacity:1;fill-rule:nonzero;stroke:none" /><path
       d="m 327.8409,468.53291 c -1.31009,0 -2.71968,-1.06963 -3.12597,-2.38801 l -0.82088,-2.55799 -13.20039,-0.0124 c -5.12842,0 -8.47827,-2.9933 -9.83396,-7.33816 l -3.06378,-9.84225 c -1.31838,-4.24949 -0.11194,-7.44595 5.23621,-7.44595 l 25.56331,0 9.22038,29.61382 -9.97492,-0.029 z m -9.55204,-22.9846 c -0.38142,-1.20644 -1.07792,-1.77857 -2.23047,-1.77857 l -4.92942,0 c -1.30594,0 -1.60444,0.57213 -1.22302,1.77857 l 3.55299,11.42182 c 0.37727,1.2023 1.02403,1.78272 2.33826,1.78272 l 4.92113,0 c 1.16084,0 1.5008,-0.58042 1.12352,-1.78272 l -3.55299,-11.42182 z"
       id="path52"
       style="fill:#ef1836;fill-opacity:1;fill-rule:nonzero;stroke:none" /><path
       d="m 461.32901,438.94811 c -5.13671,0 -6.61678,2.98087 -5.26523,7.33816 l 3.1011,9.95004 c 1.35569,4.34486 4.68895,7.33816 9.82566,7.33816 l 17.99714,0.0124 c 1.32253,0 2.04805,-1.06963 1.65005,-2.38801 -0.41458,-1.31838 -1.82003,-2.38801 -3.13012,-2.38801 l -10.62581,-0.058 c -1.68322,0 -2.84406,-0.89136 -3.34985,-2.51654 l -3.10524,-9.95004 c -0.4975,-1.62517 0.11194,-2.51653 1.79515,-2.51653 l 10.67971,0.0332 c 1.31424,0 2.04805,-1.06963 1.64176,-2.38801 -0.41044,-1.32253 -1.82003,-2.39216 -3.13012,-2.39216 l -18.0842,-0.0746 z"
       id="path54"
       style="fill:#ef1836;fill-opacity:1;fill-rule:nonzero;stroke:none" /><path
       d="m 492.67994,461.1989 c 0.40629,1.31838 1.80759,2.38801 3.12597,2.38801 l 9.96662,-0.0124 -7.66567,-24.62636 -12.36708,0 6.94016,22.25079 z"
       id="path56"
       style="fill:#ef1836;fill-opacity:1;fill-rule:nonzero;stroke:none" /><path
       d="m 509.78157,461.1989 c 0.41459,1.31838 1.82003,2.38801 3.13012,2.38801 l 2.55799,-0.0124 20.22761,0 c 5.65494,0 7.01892,-3.51568 5.40619,-8.70214 l -4.95844,-15.92422 -12.36293,0 5.61348,18.02202 c 0.33582,1.09865 0.0829,1.78272 -1.22302,1.78272 l -5.14086,0 c -0.99086,0 -1.84905,-0.58042 -2.23047,-1.78272 l -5.60519,-18.02202 -12.37122,0 5.99076,19.24919 0.96598,3.0016 z"
       id="path58"
       style="fill:#ef1836;fill-opacity:1;fill-rule:nonzero;stroke:none" /><path
       d="m 562.6163,445.54831 c -0.37313,-1.20644 -1.07378,-1.77857 -2.22632,-1.77857 l -4.92113,0 c -1.31423,0 -1.60859,0.57213 -1.23546,1.77857 l 3.56128,11.42182 c 0.36898,1.2023 1.02817,1.78272 2.32997,1.78272 l 4.92942,0 c 1.15669,0 1.4925,-0.58042 1.12767,-1.78272 l -3.56543,-11.42182 z m -0.66748,-15.92836 c 5.77102,0 8.92187,2.72382 10.88286,9.01308 l 7.76932,24.94144 -25.57161,0 c -5.344,0 -8.54874,-3.19645 -9.86298,-7.4418 l -3.06793,-9.8464 c -1.35569,-4.35729 0.12438,-7.33816 5.25694,-7.33816 l 13.1921,0.0124 -0.37727,-1.27277 c -0.87063,-2.77772 -1.9527,-3.24621 -3.99246,-3.24621 l -8.93431,0.008 c -1.32667,0 -2.72797,-1.06963 -3.13841,-2.38387 -0.41044,-1.31423 0.32338,-2.38801 1.64591,-2.38801 l 16.19784,-0.058 z"
       id="path60"
       style="fill:#ef1836;fill-opacity:1;fill-rule:nonzero;stroke:none" /><path
       d="m 449.65844,463.57447 -17.82716,0.0124 c -1.31423,0 -2.72382,-1.06963 -3.13012,-2.38801 -0.41044,-1.31838 0.32338,-2.38801 1.64591,-2.38801 l 11.683,-0.058 c 1.25205,0 1.68737,-0.62603 1.4013,-1.57128 l -0.49335,-1.57128 -13.67717,0 c -4.92941,0 -7.46253,-2.10195 -9.04624,-7.18061 l -0.70065,-2.2512 c -1.62932,-5.23621 -0.21144,-7.23037 4.71798,-7.23037 l 25.8784,0 4.92942,15.82472 c 2.11023,6.75359 -0.29851,8.80164 -5.38132,8.80164 m -9.47327,-16.82386 c -0.70479,-2.25535 -1.194,-2.98087 -3.1923,-2.98087 l -3.34985,0 c -1.98172,0 -2.34241,0.57213 -1.8988,1.99001 l 0.93281,2.98501 c 0.43947,1.41788 1.10695,2.04391 3.30839,2.04391 l 5.4518,0 -1.25205,-4.03806 z"
       id="path62"
       style="fill:#ef1836;fill-opacity:1;fill-rule:nonzero;stroke:none" /><path
       d="m 265.45413,461.1989 c 0.41044,1.31838 1.80759,2.38801 3.13012,2.38801 l 2.55799,-0.0124 20.21932,0 c 5.66323,0 7.03136,-3.51568 5.41862,-8.70214 l -4.96673,-15.92422 -12.36292,0 5.60933,18.02202 c 0.34825,1.09865 0.0871,1.78272 -1.22302,1.78272 l -5.13257,0 c -1.00329,0 -1.86148,-0.58042 -2.23046,-1.78272 l -5.62178,-18.02202 -12.36293,0 5.99076,19.24919 0.97427,3.0016 z"
       id="path64"
       style="fill:#ef1836;fill-opacity:1;fill-rule:nonzero;stroke:none" /><path
       d="m 365.19087,463.57447 -17.8313,0.0124 c -1.32253,0 -2.71968,-1.06963 -3.13012,-2.38801 -0.41459,-1.31838 0.32752,-2.38801 1.63761,-2.38801 l 11.6913,-0.058 c 1.25619,0 1.69151,-0.62603 1.39715,-1.57128 l -0.48921,-1.57128 -13.68545,0 c -4.92113,0 -7.46253,-2.10195 -9.03381,-7.18061 l -0.71309,-2.2512 c -1.62932,-5.23621 -0.199,-7.23037 4.71798,-7.23037 l 25.89499,0 4.92941,15.82472 c 2.08951,6.75359 -0.30264,8.80164 -5.38546,8.80164 m -9.48156,-16.82386 c -0.70065,-2.25535 -1.19815,-2.98087 -3.18401,-2.98087 l -3.34985,0 c -1.9983,0 -2.33826,0.57213 -1.8988,1.99001 l 0.93282,2.98501 c 0.43116,1.41788 1.10694,2.04391 3.30838,2.04391 l 5.44765,0 -1.25619,-4.03806 z"
       id="path66"
       style="fill:#ef1836;fill-opacity:1;fill-rule:nonzero;stroke:none" /><path
       d="m 400.02846,452.01169 c -0.0622,0.26534 -0.0746,0.56798 -0.0249,0.87478 0.23632,1.34325 1.61688,2.42946 3.08452,2.42946 l 2.06048,0 c 1.31009,0 1.95685,0.58042 2.33826,1.78272 l 1.51739,4.85894 c 0.37727,1.20644 0.0788,1.78686 -1.22303,1.78686 l -4.92942,0 c -1.15254,0 -1.84905,-0.58042 -2.23047,-1.78686 l -3.56957,-11.47572 -3.56543,-11.54619 -12.39195,0.0124 9.21622,29.61382 25.56332,0 c 5.35229,0 6.55459,-3.19645 5.23621,-7.4418 l -1.02817,-3.28766 c -1.03646,-3.31254 -3.22547,-5.83322 -6.48411,-6.8448 l 2.90209,-12.0437 -13.32062,0 -3.15084,13.06772 z"
       id="path68"
       style="fill:#ef1836;fill-opacity:1;fill-rule:nonzero;stroke:none" /><path
       d="m 394.68446,422.24448 -17.83131,0.0124 c -1.31009,0 -2.71553,-1.06963 -3.13012,-2.38387 -0.40214,-1.32252 0.32753,-2.39215 1.65005,-2.39215 l 11.67886,-0.058 c 1.25205,0 1.69151,-0.63017 1.4013,-1.56714 l -0.48506,-1.57542 -13.68131,0 c -4.92942,0 -7.46253,-2.10195 -9.05039,-7.18061 l -0.69651,-2.2512 c -1.63346,-5.23621 -0.21144,-7.23451 4.71384,-7.23451 l 25.8784,0 4.93356,15.82886 c 2.10609,6.75359 -0.30679,8.80164 -5.38131,8.80164 m -9.47327,-16.82386 c -0.7048,-2.2512 -1.18986,-2.98087 -3.19231,-2.98087 l -3.34985,0 c -1.98586,0 -2.33826,0.57213 -1.8988,1.99001 l 0.93282,2.98501 c 0.43946,1.41788 1.10694,2.04391 3.3001,2.04391 l 5.45594,0 -1.2479,-4.03806 z"
       id="path70"
       style="fill:#7e8083;fill-opacity:1;fill-rule:nonzero;stroke:none" /><path
       d="m 449.92378,422.24448 -37.02245,0 -2.55385,0.0124 c -1.32667,0 -2.71968,-1.06963 -3.13012,-2.38387 l -0.97427,-3.00574 -5.9949,-19.25333 12.36707,0 5.61348,18.02201 c 0.37313,1.20645 1.23547,1.78687 2.23462,1.78687 l 4.09195,0 c 1.31009,0 1.57128,-0.68822 1.22303,-1.78687 l -5.60934,-18.02197 10.29,0 5.61763,18.02201 c 0.36898,1.20645 1.22717,1.78687 2.22632,1.78687 l 4.09611,0 c 1.31008,0 1.57127,-0.68822 1.21888,-1.78687 l -5.60519,-18.02201 12.36292,0 4.96673,15.92836 c 1.61274,5.18646 0.24046,8.70214 -5.41862,8.70214"
       id="path72"
       style="fill:#7e8083;fill-opacity:1;fill-rule:nonzero;stroke:none" /><path
       d="m 333.54974,427.25681 -24.51857,0.0207 c -1.54225,0 -3.18816,-1.25204 -3.66907,-2.79845 -0.47678,-1.54225 0.38556,-2.79844 1.92782,-2.79844 l 6.04465,-0.004 -7.45839,-24.0335 12.77751,0 7.48741,24.02521 5.67152,-0.004 c 1.53812,0 3.18816,1.25205 3.66494,2.79845 0.48092,1.54226 -0.38142,2.7943 -1.92782,2.7943"
       id="path74"
       style="fill:#7e8083;fill-opacity:1;fill-rule:nonzero;stroke:none" /><path
       d="m 357.78638,422.49738 -16.09005,0.0124 c -5.344,0 -8.54874,-3.19231 -9.86712,-7.43766 l -2.6036,-8.39535 c -2.11023,-6.75774 0.29851,-8.80579 5.37717,-8.80579 l 20.95313,-0.0124 c 1.31009,0 2.71968,1.07377 3.13012,2.38801 0.40629,1.31838 -0.32752,2.38801 -1.65005,2.38801 l -14.79654,0.0539 c -1.26034,0 -1.69565,0.63017 -1.4013,1.57543 l 0.48921,1.57127 11.5918,0 c 5.82907,-0.008 9.20794,2.15999 11.2933,7.85639 -0.004,0 0,0 0,0 2.10195,6.75774 -1.33911,8.80579 -6.42607,8.80579 m -5.26523,-6.80749 -0.93696,-2.98916 c -0.43532,-1.41373 -1.1028,-2.0439 -3.3001,-2.0439 l -5.45179,0 0.6426,2.08536 0.64676,2.08122 c 0.68406,2.1434 1.194,2.85649 3.1467,2.85649 l 3.35399,0 c 1.98586,0 2.34241,-0.57627 1.8988,-1.99001"
       id="path76"
       style="fill:#7e8083;fill-opacity:1;fill-rule:nonzero;stroke:none" /><path
       d="m 349.48224,517.40005 0,0 -11.86542,-38.11695 17.15138,0 0.0456,0 c 5.50154,8.08026 12.35049,15.57596 20.17785,22.2342 l -13.29989,0 1.97757,6.35144 19.43161,0 c 4.8465,3.49495 9.65983,6.68726 14.99969,9.53131 l -48.6184,0 z"
       id="path78"
       style="fill:#7e8083;fill-opacity:1;fill-rule:nonzero;stroke:none" /><path
       d="m 400.95298,517.40005 c -5.33985,-2.84405 -10.46413,-6.03636 -15.31063,-9.53131 -2.80259,-2.01903 -5.50983,-4.13756 -8.10928,-6.35144 l 19.09579,0 -6.92772,-22.2342 19.05848,0 14.82556,47.60681 c -7.81907,-2.45435 -15.41842,-5.6508 -22.6322,-9.48986"
       id="path80"
       style="fill:#ef1836;fill-opacity:1;fill-rule:nonzero;stroke:none" /></g></svg>