<?xml version="1.0" encoding="UTF-8" standalone="no"?>
<!-- Created with Inkscape (http://www.inkscape.org/) -->

<svg
   xmlns:dc="http://purl.org/dc/elements/1.1/"
   xmlns:cc="http://creativecommons.org/ns#"
   xmlns:rdf="http://www.w3.org/1999/02/22-rdf-syntax-ns#"
   xmlns:svg="http://www.w3.org/2000/svg"
   xmlns="http://www.w3.org/2000/svg"
   xmlns:sodipodi="http://sodipodi.sourceforge.net/DTD/sodipodi-0.dtd"
   xmlns:inkscape="http://www.inkscape.org/namespaces/inkscape"
   sodipodi:docname="2012_Divers_Logo_Lola [Taille d'origine].svg"
   height="132.39725"
   width="709.55188"
   inkscape:version="0.48.4 r9939"
   version="1.1"
   id="svg2985">
  <metadata
     id="metadata2991">
    <rdf:RDF>
      <cc:Work
         rdf:about="">
        <dc:format>image/svg+xml</dc:format>
        <dc:type
           rdf:resource="http://purl.org/dc/dcmitype/StillImage" />
        <dc:title />
      </cc:Work>
    </rdf:RDF>
  </metadata>
  <defs
     id="defs2989" />
  <sodipodi:namedview
     pagecolor="#ffffff"
     bordercolor="#666666"
     borderopacity="1"
     objecttolerance="10"
     gridtolerance="10"
     guidetolerance="10"
     inkscape:pageopacity="0"
     inkscape:pageshadow="2"
     inkscape:window-width="1600"
     inkscape:window-height="838"
     id="namedview2987"
     showgrid="false"
     fit-margin-top="0"
     fit-margin-left="0"
     fit-margin-right="0"
     fit-margin-bottom="0"
     inkscape:zoom="4.135021"
     inkscape:cx="520.77156"
     inkscape:cy="41.933342"
     inkscape:window-x="-8"
     inkscape:window-y="-8"
     inkscape:window-maximized="1"
     inkscape:current-layer="g3025"
     showguides="true"
     inkscape:snap-grids="false"
     inkscape:guide-bbox="true">
    <inkscape:grid
       type="xygrid"
       id="grid4238" />
  </sodipodi:namedview>
  <path
     inkscape:connector-curvature="0"
     id="path3021"
     d="M 262.01091,131.35459 C 175.06389,127.74793 117.08248,121.85799 74.328184,112.28917 32.644579,102.95998 9.7034519,87.015201 1.9745899,62.001201 -1.6692051,50.208291 -0.27323913,40.733051 6.1897039,33.390761 20.195037,17.479861 48.735526,12.557021 168.51091,5.3926116 c 148.6576,-8.89201 312.33454,-6.72657 457,6.0460994 65.84495,5.81352 88.01413,17.65502 83.47167,44.58576 -3.20114,18.97856 -16.30403,34.23811 -38.47167,44.803919 -31.75189,15.13396 -99.31772,24.77316 -211,30.10207 -36.36089,1.73495 -159.52327,1.99944 -197.5,0.42413 z"
     style="fill:#fedc02;fill-opacity:1" />
  <g
     id="g3028"
     transform="translate(-27.591132,39.001435)"
     style="stroke-width:0.2;stroke-miterlimit:4;stroke-dasharray:none">
    <g
       transform="translate(12.57551,-29.504082)"
       id="g3025"
       style="stroke-width:0.2;stroke-miterlimit:4;stroke-dasharray:none">
      <path
         style="fill:#015eab;fill-opacity:1;stroke-width:0.2;stroke-miterlimit:4;stroke-dasharray:none"
         d="M 354.84375,0 C 291.77571,-0.00725735 228.89215,1.7938711 168.5,5.40625 48.724609,12.57066 20.192833,17.49535 6.1875,33.40625 -0.275444,40.74854 -1.675045,50.20709 1.96875,62 c 7.728863,25.014 30.691395,40.95206 72.375,50.28125 42.7543,9.56882 100.70923,15.45584 187.65625,19.0625 37.97673,1.57531 161.13911,1.3287 197.5,-0.40625 111.68228,-5.32891 179.24811,-14.95979 211,-30.09375 22.16764,-10.565807 35.26761,-25.83394 38.46875,-44.8125 C 713.51121,29.10051 691.34495,17.25102 625.5,11.4375 539.60488,3.8537277 447.02011,0.0106069 354.84375,0 z m -5.03125,8.71875 c 77.26959,-0.053706 155.75715,2.382108 223.1875,7.1875 56.85036,4.05141 78.38144,6.37171 96.375,10.4375 C 695.76332,32.30641 704.75151,42.00549 699.59375,59 691.75238,84.83683 666.88747,98.80721 612,108.25 562.81756,116.71131 504.05763,121.33348 414,123.84375 309.90087,126.74541 189.01166,121.6458 117.25,111.3125 49.155231,101.50721 21.007557,88.38547 10.875,61.71875 9.788939,58.86047 8.8563,53.99516 8.8125,50.90625 8.683199,41.78708 11.935194,37.3164 22.5,32.125 39.889939,23.57983 75.221177,19.30717 177.5,13.375 230.35277,10.309538 289.71393,8.7605213 349.8125,8.71875 z m 174.03125,28.96875 -43.96059,52.459184 42.10727,0.123596 33.32207,-43.17653 14.64668,21.75 -23.76913,0.04643 -8.20226,10.469897 38.45038,0.241837 7.42105,10.241837 52.46961,0.33954 L 593.75,37.46875 z M 92.1875,39.59375 77.53125,88.5 l 110.5,1.34375 L 194.71875,81.5 141.5,80.778444 152.59375,39.1875 z m 282.09375,-0.5 L 359.25,89.1875 470.21875,89.84375 476.75,81.625 422.4389,81.33954 434.40625,38.71875 z m -87.75,-0.78125 c -14.36184,0.02008 -28.91169,0.64624 -36.03125,1.875 -31.23494,5.39081 -47.6875,15.14719 -47.6875,28.25 0,5.10243 3.44311,8.95297 11.5,12.875 8.22865,4.00565 22.39413,7.12736 37.9375,8.40625 14.76871,1.21519 20.47534,1.24003 36.75,0.09375 32.51898,-2.2904 53.74286,-8.52499 62.9375,-18.5 7.42057,-8.05036 6.27666,-15.79908 -3.28125,-22.1875 -5.57133,-3.72383 -14.24458,-6.613 -27.125,-9.03125 -6.44379,-1.20978 -20.63816,-1.80133 -35,-1.78125 z M 282.625,46.25 c 1.65518,-0.003 3.39627,0.05643 5.1875,0.21875 9.38002,0.85 12.1875,2.86036 12.1875,8.625 0,10.90874 -7.2103,22.37888 -15.5,24.65625 -4.60811,1.26595 -20.03938,1.36801 -23,0.15625 -1.1,-0.45022 -2.84106,-1.75659 -3.875,-2.90625 -4.10687,-4.56653 0.91353,-20.24253 8.40625,-26.28125 3.628,-2.923976 9.4213,-4.455813 16.59375,-4.46875 z"
         id="path3019"
         inkscape:connector-curvature="0"
         sodipodi:nodetypes="sssssssssssssssssssssssccccccccccccccccccccccccccssssssssssssssssss"
         transform="translate(15.015622,-9.497353)" />
    </g>
  </g>
</svg>
