<svg id="svg2" version="1.1" viewBox="0 0 285.033205 357.1138240483384" xmlns="http://www.w3.org/2000/svg" style="max-height: 500px" width="285.033205" height="357.1138240483384">
  <metadata id="metadata8">
    
      
        image/svg+xml
        
        
      
    
  </metadata>
  <defs id="defs6"/>
  
  <path id="path93" style="opacity:1;fill:#000000" d="m 177.67877,13.541081 c 0.48172,-0.0277 0.93067,0.0562 1.31836,0.26367 0.49,0.26224 0.15517,1.05601 -3.52344,8.32617 -9.32881,18.43678 -18.21681,37.62057 -24.98633,53.93359 l -2.61523,6.30079 1.13867,2.09961 c 15.30694,28.273199 42.53712,82.801149 44.97852,90.066399 0.74822,2.22661 0.80377,4.63359 0.15039,6.59765 -2.05283,6.17086 -26.02536,54.19959 -44.74024,89.63672 -14.88684,28.18863 -33.37357,61.77168 -37.07422,67.34961 -1.18536,1.78668 -2.57106,3.25291 -3.56835,3.77539 -1.05652,0.55308 -3.20691,0.55979 -3.41797,0.01 -0.0876,-0.22824 1.25907,-3.16488 2.99218,-6.52539 8.2518,-16.00026 18.49782,-38.07934 25.72266,-55.42774 l 2.67188,-6.41601 -4.33204,-8.13282 c -15.60226,-29.2908 -39.113961,-76.58721 -41.625001,-83.73242 -1.03851,-2.9551 -1.06188,-4.37136 -0.11523,-7.1914 2.55717,-7.61769 26.465341,-55.33914 48.248051,-96.308589 15.89179,-29.88967 31.31839,-57.63587 34.31836,-61.72266 1.27351,-1.73487 3.01381,-2.81928 4.45898,-2.90234 z M 142.71588,6.0814939e-5 C 125.92045,-0.00393919 109.06617,0.18938081 104.46588,0.58014081 98.378189,1.0972408 96.577399,1.9744908 93.610409,5.8653008 88.001439,13.220731 49.602489,78.553201 33.749079,107.7149 c -7.56316,13.91215 -26.3039099,50.06338 -30.0156199,57.90039 -4.32764998,9.13753 -4.74623,13.35653 -2.01367,20.25 2.83801,7.1595 18.9574399,38.45845 33.6835899,65.40039 10.04171,18.37161 28.10552,49.56861 43.86133,75.75 13.62606,22.64238 15.67269,25.58867 18.83594,27.125 2.180611,1.05906 5.425081,1.3704 17.166011,1.64649 21.95832,0.51636 59.75793,0.19246 66.94531,-0.57422 3.23726,-0.3453 4.8557,-0.9807 6.72852,-2.64063 2.29478,-2.03394 4.54203,-5.56482 20.2832,-31.85742 29.1395,-48.67194 45.06907,-77.37113 66.84961,-120.44922 6.81662,-13.48208 8.27772,-16.96484 8.70508,-20.74219 0.25023,-2.21177 -0.25029,-5.46279 -1.28711,-8.35742 -1.67059,-4.66397 -20.28571,-41.03736 -32.70312,-63.90039 C 238.734,85.071531 213.72698,42.081101 197.85455,16.263731 189.04858,1.9403408 188.33353,1.2894508 180.61627,0.59576081 c -4.36815,-0.39263 -21.10496,-0.59217 -37.90039,-0.595699995061 z"/>
  <path id="path106" d="m 527.9299,47.273862 -8.49934,0.06165 -8.49936,0.06165 -0.31646,2.013382 -0.31646,2.011844 1.26738,2.247715 1.26738,2.246169 0.0637,29.306604 0.062,29.306614 h 7.86024 7.86024 V 92.368418 c 0,-12.351189 0.0916,-22.124901 0.20633,-22.080936 0.11322,0.04342 1.05834,1.147262 2.10194,2.45275 2.3956,2.996733 7.21889,8.521163 11.05427,12.663043 2.5453,2.748666 22.69553,24.713405 25.67646,27.988515 l 1.03469,1.13772 h 7.60272 7.60272 V 80.904765 47.278488 h -7.86178 -7.86178 l -0.0606,22.174966 -0.0605,22.173436 -3.35847,-3.999027 c -5.48699,-6.536218 -9.03081,-10.446141 -26.97485,-29.755214 z" style="opacity:1;fill:#000000;stroke-width:0.791778"/>
  <path id="path104" d="m 703.72016,47.273862 -9.93985,0.06165 -9.94146,0.06165 -0.33756,2.013382 -0.33756,2.011844 1.30157,2.247715 1.30312,2.247709 0.13818,18.945233 c 0.15187,20.823084 0.0984,20.051649 1.70346,24.407282 3.63198,9.855953 13.59837,15.345353 29.3879,16.187233 6.0913,0.32478 12.69974,-0.0366 17.60479,-0.96352 11.17097,-2.11075 18.06276,-7.39968 20.81548,-15.972964 1.33216,-4.147879 1.37066,-4.954486 1.37066,-29.072278 v -22.17031 h -8.67289 -8.67281 l -0.0756,22.318339 c -0.0699,20.546915 -0.11004,22.431717 -0.50401,23.73974 -1.709,5.675 -7.31993,8.401953 -17.28446,8.401953 -4.93745,0 -8.81654,-0.66974 -11.69523,-2.019546 -2.86986,-1.345676 -4.42492,-2.96712 -5.50137,-5.73646 l -0.52758,-1.356643 -0.0675,-22.676004 z" style="opacity:1;fill:#000000;stroke-width:0.796555"/>
  <path id="path102" style="opacity:1;fill:#000000;stroke-width:0.796555" d="m 436.75391,47.279297 v 33.625 33.625003 h 29.7832 28.57617 v -12.3125 h -19.65234 -20.86133 v -7.814456 -7.814453 h 18.56836 17.29473 v -6.039063 -6.039062 h -17.29473 -18.56836 v -7.339844 -7.341797 h 20.25781 18.98028 v -6.273437 -6.275391 h -27.90411 z"/>
  <path d="m 625.7938,47.279126 -1.12256,2.309379 c -6.75592,13.886685 -15.40443,33.161636 -21.64763,48.247211 -2.01351,4.865284 -5.69086,14.040404 -6.33666,15.809534 l -0.325,0.88953 8.92879,-0.0616 8.93036,-0.0617 2.18861,-5.74414 2.18864,-5.74417 18.33171,0.0616 18.33329,0.0601 2.1902,5.73799 2.19176,5.738 8.86284,0.005 c 6.05865,0.003 8.86285,-0.0743 8.86285,-0.24512 0,-0.42149 -7.7085,-19.303347 -11.20847,-27.455106 -4.1382,-9.63821 -9.77193,-22.101586 -13.75507,-30.428914 -1.68201,-3.516422 -3.33684,-7.005588 -3.67703,-7.754456 l -0.61859,-1.362811 h -11.15981 z m 11.07974,12.541249 c 0.0408,0.0071 0.0854,0.03142 0.12403,0.06939 0.34044,0.334269 8.88565,20.033156 12.4802,28.770113 l 0.60917,1.47998 h -13.12705 c -7.21938,0 -13.12548,-0.0453 -13.12548,-0.100204 0,-0.382347 12.60784,-29.804103 12.93707,-30.189971 0.0231,-0.02715 0.0613,-0.03647 0.10206,-0.02928 z" style="opacity:1;fill:#000000;stroke-width:0.796555" id="path100"/>
  <path id="path98" d="m 775.87931,47.278599 v 33.626277 33.624754 h 28.21507 28.21508 v -6.15578 -6.15577 l -19.35223,-0.0602 -19.35383,-0.0601 -0.061,-27.408852 -0.0611,-27.41038 h -8.80005 z" style="opacity:1;fill:#000000;stroke-width:0.796555"/>
  <path id="path96" d="m 822.75125,47.278599 v 6.27602 6.274479 h 13.14275 13.14272 v 27.350258 27.350274 h 8.92249 8.92249 V 87.179356 59.829098 h 13.26372 13.26364 v -6.274479 -6.27602 h -35.32895 z" style="opacity:1;fill:#000000;stroke-width:0.796555"/>
  <path d="m 348.04498,47.397833 -0.33003,2.013383 -0.33004,2.011842 1.27254,2.247712 1.27409,2.247713 0.063,29.305064 0.0613,29.306603 h 8.7206 8.72059 V 103.75562 92.981089 h 10.78831 10.78829 l 5.75489,10.678951 c 3.16552,5.873 5.87172,10.72169 6.01278,10.77608 0.14101,0.0543 4.46519,0.0711 9.61092,0.037 l 9.3561,-0.0617 -7.19936,-12.42408 c -3.95968,-6.833052 -7.09036,-12.45958 -6.95684,-12.504256 0.62861,-0.210424 3.60298,-2.494234 4.83079,-3.709195 6.02259,-5.959551 8.37902,-14.91645 6.16935,-23.457615 -1.88551,-7.288101 -6.80737,-11.713316 -15.27217,-13.729856 -4.8269,-1.149913 -5.80903,-1.188605 -30.34631,-1.188605 z m 19.45209,12.624499 11.96568,0.107916 c 10.05973,0.09067 12.20187,0.169822 13.447,0.494863 4.1075,1.072292 6.10705,3.294118 6.6882,7.430718 0.72435,5.155856 -1.35561,10.173566 -4.95667,11.955424 -1.088,0.538326 -1.10778,0.538618 -14.1178,0.608947 l -13.02641,0.07095 V 70.355995 Z" style="opacity:1;fill:#000000;stroke-width:0.787629" id="path89"/>
  <path d="m 771.23916,251.99887 -6.48382,0.0861 -6.48381,0.0841 -1.01535,1.8912 c -4.16904,7.76219 -12.73627,29.53841 -17.35523,44.10903 -1.34921,4.25613 -3.52599,11.67855 -3.52599,12.02619 0,0.0566 2.60548,0.10261 5.78847,0.10261 h 5.78648 l 0.84091,-3.07065 c 0.46209,-1.68953 1.35467,-4.73901 1.98354,-6.77512 l 1.14253,-3.70241 h 12.84665 12.84665 l 0.78566,2.60092 c 0.43164,1.4296 1.32569,4.47705 1.98764,6.77306 l 1.20407,4.1742 h 5.74951 c 3.16251,2e-5 5.7495,-0.11954 5.7495,-0.26666 0,-0.50034 -2.54971,-9.00777 -4.31165,-14.38302 -4.76483,-14.53674 -10.18772,-28.38822 -15.144,-38.68155 z m -6.53507,10.71342 c 0.0945,0.0174 0.23263,0.14522 0.35277,0.3364 0.67224,1.07047 9.75555,24.44518 9.75555,25.10465 v 0.002 c 0,0.0493 -4.53083,0.0882 -10.06935,0.0882 H 754.6737 l 1.22455,-3.54448 c 2.2755,-6.58978 8.13077,-21.32733 8.72792,-21.96632 0.0189,-0.0204 0.0464,-0.0264 0.0779,-0.0205 z" style="opacity:1;fill:#000000;stroke-width:1.05022" id="path65"/>
  <path id="path63" d="m 346.45102,252.01035 -0.37947,2.1271 c -0.20807,1.16968 -0.40066,2.31151 -0.4287,2.53734 -0.0286,0.22906 0.8534,0.79018 1.99582,1.26969 l 2.04915,0.85945 0.08,25.74669 0.08,25.74667 h 5.82746 5.82746 v -11.49907 -11.50108 h 12.12876 12.1308 v -4.25214 -4.25419 h -12.1308 -12.12876 v -8.97811 -8.98016 h 15.2794 15.28145 v -4.41008 -4.41214 h -22.80731 z" style="opacity:1;fill:#000000;stroke-width:1.05022"/>
  <path id="path53" d="m 563.95418,252.01035 v 4.41214 4.41008 h 9.45194 9.45193 v 24.73338 24.73134 h 5.82744 5.82953 v -24.73134 -24.73338 h 9.45194 9.45193 v -4.41008 -4.41214 h -24.7334 z" style="opacity:1;fill:#000000;stroke-width:1.05022"/>
  <path id="path51" d="m 652.70572,252.01035 -0.4225,2.28504 c -0.2323,1.25632 -0.4226,2.39946 -0.4226,2.54144 0,0.14198 0.92282,0.64383 2.04918,1.1138 l 2.04708,0.8533 0.0798,25.74669 0.0819,25.74667 h 21.42071 21.42271 v -4.41008 -4.41214 h -15.59528 -15.59527 v -8.19045 -8.19249 h 12.13082 12.12873 v -4.25214 -4.25419 h -12.12873 -12.13082 v -7.87662 -7.87661 h 15.28147 15.27937 v -4.41008 -4.41214 h -22.8134 z" style="opacity:1;fill:#000000;stroke-width:1.05022"/>
  <path id="path49" d="m 839.03053,252.01035 c -6.27797,0 -6.89004,0.0483 -7.0335,0.55178 -0.44014,1.54494 -0.85193,4.20145 -0.69125,4.46136 0.10082,0.16253 0.89321,0.53055 1.75985,0.81843 2.75156,0.91389 2.51274,-1.64797 2.51274,26.95894 v 25.49643 h 5.35368 5.35358 l 0.0819,-20.22075 0.0798,-20.22279 6.90023,11.32058 c 3.79464,6.22681 7.23871,11.78301 7.65512,12.34618 l 0.75689,1.02355 4.00185,-0.0123 3.99985,-0.0144 7.5628,-12.44464 7.56071,-12.44669 0.0819,20.33561 0.0798,20.33561 h 5.35368 5.35357 v -29.14347 -29.14347 h -5.47666 -5.47876 l -9.55244,15.75118 c -5.25423,8.66289 -9.65253,15.64592 -9.77393,15.51734 -0.12141,-0.12858 -4.28488,-6.96835 -9.25093,-15.19941 -4.96604,-8.23106 -9.31929,-15.21408 -9.67353,-15.51733 -0.57068,-0.48856 -1.42514,-0.55178 -7.51765,-0.55178 z" style="opacity:1;fill:#000000;stroke-width:1.05022"/>
  <path d="m 449.21731,252.01117 -11.67749,5.04186 v 0.12922 l -5.208,2.25017 v 9.10118 l 15.37786,-6.64179 v 23.67496 24.73134 h 5.82746 5.82952 v -58.28694 z" style="opacity:1;fill:#000000;stroke-width:1.05022" id="path53-8"/>
  <path d="m 470.70345,255.39615 v 9.29604 h 0.97489 0.97296 v -1.49327 -1.49122 h 1.20508 1.20507 l 0.64413,1.47891 c 0.3536,0.81322 0.65545,1.48369 0.67121,1.49122 0.0158,0.007 0.49873,0.0105 1.07354,0.006 l 1.04452,-0.008 -0.80466,-1.72096 c -0.44232,-0.94617 -0.79057,-1.72503 -0.77566,-1.73121 0.0702,-0.0292 0.40251,-0.34457 0.53968,-0.5128 0.67274,-0.82521 0.93544,-2.0664 0.6886,-3.2491 -0.21061,-1.00918 -0.76049,-1.62224 -1.70606,-1.90147 -0.5392,-0.15923 -0.64797,-0.1641 -3.38891,-0.1641 z m 1.94785,1.74762 1.33662,0.0144 c 1.12372,0.0126 1.36388,0.0247 1.50296,0.0697 0.45883,0.14848 0.68173,0.45487 0.74663,1.02765 0.0808,0.71394 -0.15094,1.4086 -0.5532,1.65532 -0.12153,0.0746 -0.12317,0.0763 -1.57647,0.0861 l -1.45654,0.008 v -1.43174 z" style="opacity:1;fill:#000000;stroke-width:0.0979574" id="path89-1"/>
  <path d="m 472.96151,251.9344 c -3.87743,0 -7.04604,3.1067 -7.04604,6.90591 v 2.83218 c 0,3.79921 3.16861,6.90591 7.04604,6.90591 h 2.7427 c 3.87744,0 7.04805,-3.1067 7.04805,-6.90591 v -2.83218 c 0,-3.79921 -3.17061,-6.90591 -7.04805,-6.90591 z m 0,1.52319 h 2.7427 c 3.0431,0 5.49351,2.40101 5.49351,5.38272 v 2.83218 c 0,2.98171 -2.45041,5.38272 -5.49351,5.38272 h -2.7427 c -3.0431,0 -5.49149,-2.40101 -5.49149,-5.38272 v -2.83218 c 0,-2.98171 2.44839,-5.38272 5.49149,-5.38272 z" style="color:#000000;font-style:normal;font-variant:normal;font-weight:normal;font-stretch:normal;font-size:medium;line-height:normal;font-family:sans-serif;font-variant-ligatures:normal;font-variant-position:normal;font-variant-caps:normal;font-variant-numeric:normal;font-variant-alternates:normal;font-variant-east-asian:normal;font-feature-settings:normal;font-variation-settings:normal;text-indent:0;text-align:start;text-decoration:none;text-decoration-line:none;text-decoration-style:solid;text-decoration-color:#000000;letter-spacing:normal;word-spacing:normal;text-transform:none;writing-mode:lr-tb;direction:ltr;text-orientation:mixed;dominant-baseline:auto;baseline-shift:baseline;text-anchor:start;white-space:normal;shape-padding:0;shape-margin:0;inline-size:0;clip-rule:nonzero;display:inline;overflow:visible;visibility:visible;opacity:1;isolation:auto;mix-blend-mode:normal;color-interpolation:sRGB;color-interpolation-filters:linearRGB;solid-color:#000000;solid-opacity:1;vector-effect:none;fill:#000000;fill-opacity:1;fill-rule:nonzero;stroke:none;stroke-width:3.07758;stroke-linecap:round;stroke-linejoin:miter;stroke-miterlimit:4;stroke-dasharray:none;stroke-dashoffset:32.8063;stroke-opacity:1;paint-order:stroke fill markers;color-rendering:auto;image-rendering:auto;shape-rendering:auto;text-rendering:auto;enable-background:accumulate;stop-color:#000000" id="path1051"/>
  <g id="XMLID_146_" transform="matrix(4.8797452,0,0,4.8797452,349.9789,52.562646)" style="opacity:1;fill:#000000">
    <g id="XMLID_147_" style="fill:#000000">
      <g id="XMLID_148_" style="fill:#000000">
        <path id="XMLID_164_" class="st0" d="m 7.2,16.8 c 3.2,0 5.9,0.9 7.9,2.8 2.1,1.9 3.1,4.3 3.1,7.1 0,2.9 -1.1,5.3 -3.2,7.2 -2.1,1.9 -4.8,2.9 -8,2.9 H 0 v -20 z M 4.4,33.1 h 2.9 c 1.9,0 3.5,-0.6 4.7,-1.8 1.2,-1.2 1.9,-2.7 1.9,-4.5 C 13.9,25 13.3,23.5 12,22.3 10.8,21.1 9.2,20.5 7.3,20.5 H 4.4 Z" style="fill:#000000"/>
        <path id="XMLID_161_" class="st0" d="M 20.3,16.8 H 29 c 2.3,0 4.1,0.6 5.4,1.9 1.4,1.3 2.1,2.9 2.1,4.9 0,2 -0.7,3.7 -2.1,5 -1.4,1.3 -3.3,2 -5.5,2 H 24.7 V 37 h -4.4 z m 4.4,3.7 V 27 h 3.9 c 1.1,0 1.9,-0.3 2.6,-0.9 0.7,-0.6 1,-1.4 1,-2.3 0,-0.9 -0.3,-1.7 -1,-2.3 -0.7,-0.6 -1.5,-0.9 -2.6,-0.9 h -3.9 z" style="fill:#000000"/>
        <path id="XMLID_158_" class="st0" d="m 89.2,19.5 c 2,2 3,4.4 3,7.3 0,2.9 -1,5.4 -3.1,7.4 -2,2 -4.6,3 -7.5,3 -3,0 -5.5,-1 -7.5,-2.9 -2,-2 -3,-4.4 -3,-7.3 0,-2.9 1,-5.4 3.1,-7.4 2,-2 4.6,-3 7.5,-3 3,0 5.5,0.9 7.5,2.9 z m -3.1,11.9 c 1.2,-1.2 1.8,-2.7 1.8,-4.5 0,-1.8 -0.6,-3.3 -1.8,-4.5 -1.2,-1.2 -2.6,-1.8 -4.4,-1.8 -1.8,0 -3.3,0.6 -4.4,1.8 -1.2,1.2 -1.7,2.7 -1.7,4.5 0,1.8 0.6,3.3 1.7,4.5 1.2,1.2 2.6,1.8 4.4,1.8 1.7,0 3.2,-0.6 4.4,-1.8 z" style="fill:#000000"/>
        <path id="XMLID_155_" class="st0" d="m 94.7,16.8 h 9 c 2.1,0 3.9,0.6 5.2,1.8 1.3,1.2 2,2.8 2,4.7 0,1.4 -0.4,2.7 -1.1,3.7 -0.8,1.1 -1.8,1.8 -3.1,2.3 l 5.1,7.5 h -5.1 l -4.5,-6.9 h -3.1 v 6.9 h -4.4 z m 4.4,3.7 v 6.1 h 4 c 1.1,0 1.9,-0.3 2.5,-0.8 0.6,-0.6 0.9,-1.3 0.9,-2.2 0,-0.9 -0.3,-1.6 -0.9,-2.2 -0.6,-0.6 -1.4,-0.8 -2.5,-0.8 h -4 z" style="fill:#000000"/>
        <path id="XMLID_153_" class="st0" d="M 114.2,36.9 V 16.8 h 4.4 V 33 h 9.8 v 3.9 z" style="fill:#000000"/>
        <path id="XMLID_150_" class="st0" d="m 137.7,16.8 c 3.2,0 5.9,0.9 7.9,2.8 2.1,1.9 3.1,4.3 3.1,7.1 0,2.9 -1.1,5.3 -3.2,7.2 -2.1,1.9 -4.8,2.9 -8,2.9 h -7 v -20 z m -2.8,16.3 h 2.9 c 1.9,0 3.5,-0.6 4.7,-1.8 1.2,-1.2 1.9,-2.7 1.9,-4.5 0,-1.8 -0.6,-3.3 -1.9,-4.5 -1.2,-1.2 -2.8,-1.8 -4.7,-1.8 h -2.9 z" style="fill:#000000"/>
        <polygon id="XMLID_149_" class="st0" points="60.1,36.9 60.7,36.9 64.5,36.9 64.5,36.9 71.2,16.8 66.7,16.8 62.4,30.3 62.4,30.4 58.1,16.8 53.8,16.8 55.4,21.9 52.6,30.9 48.1,16.8 43.3,16.8 50.1,36.9 54.5,36.9 57.2,27.8" style="fill:#000000"/>
      </g>
    </g>
  </g>
</svg>