<?xml version="1.0" encoding="UTF-8" standalone="no"?>
<!-- Created with Inkscape (http://www.inkscape.org/) -->

<svg
   xmlns:dc="http://purl.org/dc/elements/1.1/"
   xmlns:cc="http://creativecommons.org/ns#"
   xmlns:rdf="http://www.w3.org/1999/02/22-rdf-syntax-ns#"
   xmlns:svg="http://www.w3.org/2000/svg"
   xmlns="http://www.w3.org/2000/svg"
   version="1.1"
   width="803.09375"
   height="224.29028"
   id="svg2">
  <defs
     id="defs4" />
  <metadata
     id="metadata7">
    <rdf:RDF>
      <cc:Work
         rdf:about="">
        <dc:format>image/svg+xml</dc:format>
        <dc:type
           rdf:resource="http://purl.org/dc/dcmitype/StillImage" />
        <dc:title></dc:title>
      </cc:Work>
    </rdf:RDF>
  </metadata>
  <g
     transform="translate(-88.71875,-22.865973)"
     id="layer1">
    <path
       d="m 844.875,190.03125 c -2.00873,5e-5 -3.77575,0.39663 -5.3125,1.21875 -1.53679,0.82221 -2.84141,2.07446 -3.90625,3.71875 l 0.25,-4.125 -14.90625,0 0,55.15625 14.65625,0 0,-40.625 c 0,-3.37875 0.14002,-5.47285 0.40625,-6.25 0.2662,-0.77708 0.92807,-1.15621 1.96875,-1.15625 0.99223,4e-5 1.59468,0.32429 1.8125,1 0.21779,0.6758 0.3125,2.57034 0.3125,5.65625 l 0,41.375 14.65625,0 0,-41.75 c -4e-5,-3.91936 -0.22772,-6.72808 -0.6875,-8.40625 -0.45986,-1.67809 -1.46524,-3.05247 -3.0625,-4.15625 -1.59731,-1.10368 -3.67061,-1.6562 -6.1875,-1.65625 z m -629.59375,0.125 c -3.25555,6e-5 -6.11492,0.48642 -8.5625,1.5 -2.4476,1.01369 -4.37484,2.48294 -5.8125,4.375 -1.43766,1.89217 -2.28923,3.96374 -2.5625,6.25 -0.27328,2.28635 -0.40625,6.1914 -0.40625,11.6875 l 0,9.34375 c 0,5.63131 0.12109,9.59124 0.40625,11.84375 0.28515,2.25252 1.19043,4.33536 2.6875,6.25 1.49707,1.91464 3.47801,3.35518 5.9375,4.3125 2.45945,0.95732 5.22329,1.4375 8.3125,1.4375 3.25551,0 6.11489,-0.51762 8.5625,-1.53125 2.44756,-1.01363 4.37481,-2.45163 5.8125,-4.34375 1.43763,-1.89212 2.2892,-3.99493 2.5625,-6.28125 0.27325,-2.28629 0.43746,-6.19133 0.4375,-11.6875 l 0,-9.34375 c -4e-5,-5.63126 -0.15237,-9.59119 -0.4375,-11.84375 -0.28518,-2.25248 -1.19046,-4.33532 -2.6875,-6.25 -1.4971,-1.9146 -3.47805,-3.32387 -5.9375,-4.28125 -2.4595,-0.95727 -5.22333,-1.43744 -8.3125,-1.4375 z m 562.4375,0 c -2.65416,0.1146 -5.02065,0.64605 -7.125,1.5625 -2.40501,1.04747 -4.29989,2.48802 -5.65625,4.3125 -1.35638,1.82459 -2.16394,3.71659 -2.4375,5.6875 -0.27355,1.97099 -0.40626,4.93313 -0.40625,8.875 l 0,15.96875 c -10e-6,5.36101 0.42345,9.39328 1.3125,12.0625 0.88905,2.66924 2.70196,4.74082 5.4375,6.25 2.73552,1.50919 6.2202,2.28125 10.4375,2.28125 4.0577,0 7.48024,-0.90801 10.25,-2.6875 2.76969,-1.77948 4.56569,-3.8536 5.375,-6.21875 0.80922,-2.36513 1.18747,-6.37741 1.1875,-12.03125 l 0,-2.125 -14.375,0 0,6.875 c -4e-5,2.99585 -0.16947,4.8766 -0.5,5.6875 -0.33056,0.81092 -1.02235,1.21876 -2.09375,1.21875 -1.11703,1e-5 -1.83712,-0.40783 -2.15625,-1.21875 -0.31917,-0.8109 -0.50001,-2.52952 -0.5,-5.1875 l 0,-25.40625 c -10e-6,-2.77056 0.18083,-4.57277 0.5,-5.40625 0.31913,-0.83338 1.06458,-1.24996 2.25,-1.25 1.0486,4e-5 1.72348,0.34428 2.03125,1.03125 0.30772,0.68707 0.46871,2.41694 0.46875,5.1875 l 0,9.53125 14.375,0 0,-5.21875 c -3e-5,-5.11318 -0.41503,-8.85975 -1.28125,-11.28125 -0.86629,-2.42141 -2.6792,-4.44063 -5.4375,-6.0625 -2.75836,-1.62175 -6.25994,-2.43744 -10.5,-2.4375 -0.39039,1e-5 -0.77708,-0.0164 -1.15625,0 z m 96.875,0 c -4.28569,6e-5 -7.76741,0.9666 -10.46875,2.9375 -2.70134,1.971 -4.33635,4.13491 -4.90625,6.5 -0.56991,2.3652 -0.84375,6.18044 -0.84375,11.40625 l 0,16.25 c 0,3.76172 0.13269,6.58791 0.40625,8.46875 0.27354,1.88087 0.93704,3.66309 2.03125,5.375 1.09422,1.71192 2.70384,3.15244 4.8125,4.3125 2.10862,1.16004 4.36485,1.75 6.78125,1.75 2.02883,0 3.78808,-0.43656 5.28125,-1.28125 1.49313,-0.84469 2.73849,-2.12311 3.71875,-3.8125 L 882.75,246 l 9.0625,0 0,-29.375 -16.875,0 0,8.3125 2.90625,0 0,6.5 c -10e-6,2.54536 -0.18639,4.24652 -0.5625,5.125 -0.37617,0.87848 -1.0764,1.31251 -2.125,1.3125 -0.95745,1e-5 -1.58712,-0.37912 -1.90625,-1.15625 -0.31916,-0.77711 -0.50002,-2.3885 -0.5,-4.84375 l 0,-26.25 c -2e-5,-2.79308 0.18084,-4.54295 0.5,-5.21875 0.31913,-0.67571 0.92344,-0.99996 1.8125,-1 1.02581,4e-5 1.66392,0.39916 1.9375,1.1875 0.27352,0.78843 0.40623,2.74404 0.40625,5.875 l 0,4.96875 14.40625,0 0,-2.375 c -4e-5,-4.48248 -0.43783,-7.89607 -1.28125,-10.25 -0.84349,-2.35383 -2.6564,-4.38178 -5.4375,-6.09375 -2.78115,-1.71185 -6.28274,-2.56244 -10.5,-2.5625 z m -785.875,1.125 0,54.71875 26,0 0,-10.9375 -11,0 0,-12.03125 9.375,0 0,-10.40625 -9.375,0 0,-10.375 10,0 0,-10.96875 -25,0 z m 30.15625,0 0,32.375 c -1e-5,6.17192 0.10612,10.23036 0.34375,12.15625 0.23763,1.92591 1.00552,3.76557 2.3125,5.5 1.30695,1.73445 3.29979,3.13754 5.9375,4.21875 2.63768,1.08121 5.67935,1.625 9.125,1.625 3.11293,0 5.8006,-0.46273 8.09375,-1.375 2.2931,-0.91227 4.12921,-2.26302 5.53125,-4.03125 1.40199,-1.76822 2.24605,-3.47811 2.53125,-5.15625 0.28511,-1.67812 0.43747,-4.60534 0.4375,-8.75 l 0,-36.5625 -15,0 0,40.3125 c -3e-5,2.72556 -0.133,4.45545 -0.40625,5.1875 -0.2733,0.73208 -0.89326,1.09376 -1.84375,1.09375 -0.83172,1e-5 -1.383,-0.30425 -1.65625,-0.96875 -0.27329,-0.66448 -0.40626,-2.20608 -0.40625,-4.59375 l 0,-41.03125 -15,0 z m 40.125,0 0,54.71875 15,0 0,-24.65625 c 2.06736,2e-5 3.35659,0.333 3.84375,1.03125 0.48712,0.69831 0.71873,2.50924 0.71875,5.4375 l 0,18.1875 13.9375,0 0,-14.4375 c -4e-5,-4.41492 -0.12553,-7.11388 -0.375,-8.09375 -0.24955,-0.97983 -0.88449,-2.04741 -1.90625,-3.21875 -1.02184,-1.17128 -2.9984,-2.11419 -5.96875,-2.8125 3.27927,-0.2928 5.47686,-1.16083 6.59375,-2.625 1.11683,-1.4641 1.65621,-4.33646 1.65625,-8.59375 -4e-5,-4.66267 -0.79479,-8.05882 -2.375,-10.1875 -1.58027,-2.12858 -3.61803,-3.45061 -6.125,-3.96875 -2.50702,-0.51803 -7.29364,-0.7812 -14.375,-0.78125 l -10.625,0 z m 530.71875,0 0,54.71875 14.40625,0 0,-24.65625 c 1.98324,2e-5 3.18891,0.333 3.65625,1.03125 0.4673,0.69831 0.71873,2.50924 0.71875,5.4375 l 0,18.1875 13.375,0 0,-14.4375 c -3e-5,-4.41492 -0.13568,-7.11388 -0.375,-8.09375 -0.23939,-0.97983 -0.83229,-2.04741 -1.8125,-3.21875 -0.98026,-1.17128 -2.90051,-2.11419 -5.75,-2.8125 3.14584,-0.2928 5.24104,-1.16083 6.3125,-2.625 1.07139,-1.4641 1.62497,-4.33646 1.625,-8.59375 -3e-5,-4.66267 -0.76534,-8.05882 -2.28125,-10.1875 -1.51597,-2.12858 -3.47004,-3.45061 -5.875,-3.96875 -2.40503,-0.51803 -7.01928,-0.7812 -13.8125,-0.78125 l -10.1875,0 z m 41.78125,0 -7.3125,54.71875 14.90625,0 0.84375,-9.84375 5.1875,0 0.71875,9.84375 14.71875,0 -8.21875,-54.71875 -20.84375,0 z m 69.65625,0 0,54.71875 14.40625,0 0,-54.71875 -14.40625,0 z m -585.8125,8.125 c 0.92674,4e-5 1.54669,0.353 1.84375,1.0625 0.29702,0.70959 0.43748,2.32969 0.4375,4.875 l 0,25.15625 c -2e-5,3.22112 -0.12112,5.23781 -0.40625,6.09375 -0.28518,0.85597 -0.94696,1.28126 -1.96875,1.28125 -0.99806,1e-5 -1.633,-0.35041 -1.90625,-1.09375 -0.2733,-0.74332 -0.40627,-2.69894 -0.40625,-5.875 l 0,-25.5625 c -2e-5,-2.81561 0.20914,-4.51931 0.625,-5.09375 0.41584,-0.57434 0.99705,-0.84371 1.78125,-0.84375 z M 174,200.65625 c 1.73468,5e-5 2.94024,0.27194 3.59375,0.8125 0.65345,0.54065 0.96873,1.67186 0.96875,3.40625 l 0,3 c -2e-5,2.41024 -0.32278,3.84204 -1,4.28125 -0.67728,0.43927 -1.87534,0.65629 -3.5625,0.65625 l 0,-12.15625 z m 530.125,0 c 1.66409,5e-5 2.81059,0.27194 3.4375,0.8125 0.62688,0.54065 0.93748,1.67186 0.9375,3.40625 l 0,3 c -2e-5,2.41024 -0.31908,3.84204 -0.96875,4.28125 -0.64971,0.43927 -1.78775,0.65629 -3.40625,0.65625 l 0,-12.15625 z m 38.375,2.875 c 0.72946,9.10021 1.45801,16.74309 2.1875,22.9375 l -4.90625,0 c 0.36472,-4.8429 1.25978,-12.48577 2.71875,-22.9375 z"
       id="path3803"
       style="font-size:71.07327271px;font-style:normal;font-variant:normal;font-weight:normal;font-stretch:normal;line-height:125%;letter-spacing:0px;word-spacing:0px;fill:#f10603;fill-opacity:1;stroke:none;font-family:Impact;-inkscape-font-specification:Impact" />
    <path
       d="m 475.59375,33.625 -16.40625,71.34375 -14.8125,-71.125 -8.90625,71.375 L 415.5625,37.78125 413.71875,102 386,45.71875 393.90625,111.5 358.875,56.90625 l 14.5,66.53125 -42.5625,-50.3125 26.84375,63.9375 -51,-45.375 L 342.125,151.03125 285.15625,113 l 45.375,53.75 c 31.76719,-36.74767 78.70644,-59.96875 131.09375,-59.96875 13.32016,0 26.29247,1.49757 38.75,4.34375 18.27904,2.4825 33.87721,9.42785 47.4375,18.5625 0.0202,0.0116 0.0423,0.0196 0.0625,0.0312 4.68127,2.69179 9.23221,5.584 13.625,8.6875 l 27.3125,-67 -43.65625,51.7188 17.78125,-66.46875 -37.28125,55.4375 L 535.21875,45.25 503.625,106.875 506,37.53125 l -24.09375,68.8125 z m 136.84375,55.75 -50.53125,49.3125 c 20.50682,14.5754 37.67768,33.53598 50.21875,55.46875 2.74067,2.81466 5.43584,5.33117 8.0625,7.46875 l 45.625,-40.8125 -58.125,21.9375 44.03125,-47.625 -55.125,27.5 36.9375,-52.375 -54.65625,42.03125 z m -347.625,49.96875 53,44.09375 c 3.90633,-5.80649 8.15675,-11.37756 12.71875,-16.65625 z m -13.53125,23.125 28.5625,22.5 28.53125,14.21875 c 2.81871,-5.3334 5.90905,-10.51458 9.25,-15.5 z"
       id="path3895"
       style="color:#000000;fill:#6b3a11;fill-opacity:1;fill-rule:nonzero;stroke:none;stroke-width:1.86526215;marker:none;visibility:visible;display:inline;overflow:visible;enable-background:accumulate" />
    <path
       d="m 844.875,190.03125 c -2.00873,5e-5 -3.77575,0.39663 -5.3125,1.21875 -1.53679,0.82221 -2.84141,2.07446 -3.90625,3.71875 l 0.25,-4.125 -14.90625,0 0,17.9375 14.65625,0 0,-3.40625 c 0,-3.37875 0.14002,-5.47285 0.40625,-6.25 0.2662,-0.77708 0.92807,-1.15621 1.96875,-1.15625 0.99223,4e-5 1.59468,0.32429 1.8125,1 0.21779,0.6758 0.3125,2.57034 0.3125,5.65625 l 0,4.15625 14.65625,0 0,-4.53125 c -4e-5,-3.91936 -0.22772,-6.72808 -0.6875,-8.40625 -0.45986,-1.67809 -1.46524,-3.05247 -3.0625,-4.15625 -1.59731,-1.10368 -3.67061,-1.6562 -6.1875,-1.65625 z m -629.59375,0.125 c -3.25555,6e-5 -6.11492,0.48642 -8.5625,1.5 -2.4476,1.01369 -4.37484,2.48294 -5.8125,4.375 -1.43766,1.89217 -2.28923,3.96374 -2.5625,6.25 -0.17605,1.47292 -0.2822,3.69087 -0.34375,6.5 l 14.9375,0 0,-3.4375 c -2e-5,-2.81561 0.20914,-4.51931 0.625,-5.09375 0.41584,-0.57434 0.99705,-0.84371 1.78125,-0.84375 0.92674,4e-5 1.54669,0.353 1.84375,1.0625 0.29702,0.70959 0.43748,2.32969 0.4375,4.875 l 0,3.4375 14.96875,0 c -0.0676,-2.91291 -0.18898,-5.1867 -0.375,-6.65625 -0.28518,-2.25248 -1.19046,-4.33532 -2.6875,-6.25 -1.4971,-1.9146 -3.47805,-3.32387 -5.9375,-4.28125 -2.4595,-0.95727 -5.22333,-1.43744 -8.3125,-1.4375 z m 562.4375,0 c -2.65416,0.1146 -5.02065,0.64605 -7.125,1.5625 -2.40501,1.04747 -4.29989,2.48802 -5.65625,4.3125 -1.35638,1.82459 -2.16394,3.71659 -2.4375,5.6875 -0.22898,1.64985 -0.33863,4.03038 -0.375,7.0625 l 14.34375,0 0,-2.71875 c -10e-6,-2.77056 0.18083,-4.57277 0.5,-5.40625 0.31913,-0.83338 1.06458,-1.24996 2.25,-1.25 1.0486,4e-5 1.72348,0.34428 2.03125,1.03125 0.30772,0.68707 0.46871,2.41694 0.46875,5.1875 l 0,3.15625 14.34375,0 c -0.0616,-4.49997 -0.45346,-7.89828 -1.25,-10.125 -0.86629,-2.42141 -2.6792,-4.44063 -5.4375,-6.0625 -2.75836,-1.62175 -6.25994,-2.43744 -10.5,-2.4375 -0.39039,1e-5 -0.77708,-0.0164 -1.15625,0 z m 96.875,0 c -4.28569,6e-5 -7.76741,0.9666 -10.46875,2.9375 -2.70134,1.971 -4.33635,4.13491 -4.90625,6.5 -0.48345,2.0064 -0.74159,5.11827 -0.8125,9.1875 l 14.34375,0 0,-3.15625 c -2e-5,-2.79308 0.18084,-4.54295 0.5,-5.21875 0.31913,-0.67571 0.92344,-0.99996 1.8125,-1 1.02581,4e-5 1.66392,0.39916 1.9375,1.1875 0.27352,0.78843 0.40623,2.74404 0.40625,5.875 l 0,2.3125 14.40625,0 c -0.0191,-4.33619 -0.4566,-7.66721 -1.28125,-9.96875 -0.84349,-2.35383 -2.6564,-4.38178 -5.4375,-6.09375 -2.78115,-1.71185 -6.28274,-2.56244 -10.5,-2.5625 z m -785.875,1.125 0,17.5 15,0 0,-6.53125 10,0 0,-10.96875 -25,0 z m 30.15625,0 0,17.5 15,0 0,-17.5 -15,0 z m 19.3125,0 0,17.5 15,0 0,-17.5 -15,0 z m 20.8125,0 0,17.5 15,0 0,-8.125 c 1.73468,5e-5 2.94024,0.27194 3.59375,0.8125 0.65345,0.54065 0.96873,1.67186 0.96875,3.40625 l 0,3 c 0,0.33599 -0.0186,0.60832 -0.0312,0.90625 l 13.90625,0 c 0.051,-0.79197 0.0625,-1.64033 0.0625,-2.5625 -4e-5,-4.66267 -0.79479,-8.05882 -2.375,-10.1875 -1.58027,-2.12858 -3.61803,-3.45061 -6.125,-3.96875 -2.50702,-0.51803 -7.29364,-0.7812 -14.375,-0.78125 l -10.625,0 z m 530.71875,0 0,17.5 14.40625,0 0,-8.125 c 1.66409,5e-5 2.81059,0.27194 3.4375,0.8125 0.62688,0.54065 0.93748,1.67186 0.9375,3.40625 l 0,3 c 0,0.33599 -0.0188,0.60832 -0.0312,0.90625 l 13.34375,0 c 0.0516,-0.79197 0.0625,-1.64033 0.0625,-2.5625 -3e-5,-4.66267 -0.76534,-8.05882 -2.28125,-10.1875 -1.51597,-2.12858 -3.47004,-3.45061 -5.875,-3.96875 -2.40503,-0.51803 -7.01928,-0.7812 -13.8125,-0.78125 l -10.1875,0 z m 41.78125,0 -2.34375,17.5 12.625,0 c 0.22573,-1.69506 0.45688,-3.37401 0.71875,-5.25 0.15245,1.9019 0.31636,3.47533 0.46875,5.25 l 12,0 -2.625,-17.5 -20.84375,0 z m 69.65625,0 0,17.5 14.40625,0 0,-17.5 -14.40625,0 z"
       id="path3009"
       style="font-size:71.07327271px;font-style:normal;font-variant:normal;font-weight:normal;font-stretch:normal;line-height:125%;letter-spacing:0px;word-spacing:0px;fill:#f69302;fill-opacity:1;stroke:none;font-family:Impact;-inkscape-font-specification:Impact" />
    <path
       d="m 548.25,141.25 c -2.69751,6e-5 -5.09258,0.49667 -7.15625,1.53125 -2.06373,1.03471 -3.78878,2.58703 -5.21875,4.65625 l 0.34375,-5.1875 -20.03125,0 0,69.40625 19.6875,0 0,-48.625 c 0,-4.25195 0.17373,-6.86575 0.53125,-7.84375 0.35746,-0.97789 1.22748,-1.4687 2.625,-1.46875 1.33244,5e-5 2.14498,0.43092 2.4375,1.28125 0.29246,0.85045 0.4375,3.21032 0.4375,7.09375 l 0,49.5625 19.6875,0 0,-52.53125 c -4e-5,-4.93227 -0.28883,-8.45064 -0.90625,-10.5625 -0.61754,-2.11177 -2.01133,-3.86096 -4.15625,-5.25 -2.145,-1.3889 -4.90137,-2.06244 -8.28125,-2.0625 z m -181.46875,1.65625 0,68.75 21.875,0 c 7.60673,0 12.63798,-0.39752 15.09375,-1.21875 2.45569,-0.82122 4.2519,-2.3566 5.375,-4.59375 1.123,-2.23714 1.68746,-5.66829 1.6875,-10.3125 l 0,-6.375 c -4e-5,-4.47426 -0.78651,-7.80237 -2.34375,-9.96875 -1.55734,-2.16632 -4.5339,-3.72171 -8.90625,-4.65625 3.92314,-0.84951 6.54228,-2.03914 7.875,-3.625 1.33264,-1.58579 1.99995,-4.41626 2,-8.4375 -5e-5,-5.9468 -0.92583,-10.23011 -2.8125,-12.90625 -1.88677,-2.67601 -4.36787,-4.46582 -7.4375,-5.34375 -3.06969,-0.8778 -7.57163,-1.31244 -13.53125,-1.3125 l -18.875,0 z m 50.84375,0 0,68.75 18.90625,0 0,-31 c 2.60545,3e-5 4.22979,0.43467 4.84375,1.3125 0.6139,0.8779 0.90622,3.1624 0.90625,6.84375 l 0,22.84375 17.5625,0 0,-18.125 c -5e-5,-5.55036 -0.15434,-8.92437 -0.46875,-10.15625 -0.3145,-1.23181 -1.11853,-2.58992 -2.40625,-4.0625 -1.2878,-1.47253 -3.7878,-2.65335 -7.53125,-3.53125 4.13277,-0.3681 6.90491,-1.47177 8.3125,-3.3125 1.4075,-1.84065 2.0937,-5.42905 2.09375,-10.78125 -5e-5,-5.86184 -0.97725,-10.13636 -2.96875,-12.8125 -1.99158,-2.67601 -4.59052,-4.34861 -7.75,-5 -3.15953,-0.65126 -9.20056,-0.96869 -18.125,-0.96875 l -13.375,0 z m 49.3125,0 0,40.6875 c -10e-6,7.75924 0.16927,12.86005 0.46875,15.28125 0.29947,2.42123 1.2591,4.72575 2.90625,6.90625 1.64713,2.18052 4.14452,3.92198 7.46875,5.28125 3.3242,1.35928 7.15753,2.0625 11.5,2.0625 3.92314,0 7.32874,-0.57186 10.21875,-1.71875 2.88994,-1.1469 5.20179,-2.83951 6.96875,-5.0625 1.76689,-2.22298 2.82809,-4.39028 3.1875,-6.5 0.35934,-2.1097 0.56245,-5.75817 0.5625,-10.96875 l 0,-45.96875 -18.90625,0 0,50.65625 c -3e-5,3.42654 -0.18688,5.61092 -0.53125,6.53125 -0.34443,0.92035 -1.11461,1.37501 -2.3125,1.375 -1.0482,1e-5 -1.74937,-0.4146 -2.09375,-1.25 -0.34443,-0.83538 -0.50002,-2.74825 -0.5,-5.75 l 0,-51.5625 -18.9375,0 z m -81.25,11.75 c 1.94658,0.0284 3.26365,0.17976 3.9375,0.40625 0.6738,0.22661 1.2057,0.76134 1.625,1.625 0.41924,0.86375 0.62496,2.37911 0.625,4.53125 -4e-5,4.07788 -0.24092,6.54258 -0.75,7.40625 -0.50915,0.86376 -1.70575,1.28128 -3.5625,1.28125 -0.44924,1e-4 -1.06643,0.0342 -1.875,0.0625 l 0,-15.3125 z m 50.84375,0 c 2.18617,6e-5 3.70766,0.35166 4.53125,1.03125 0.82354,0.67968 1.21872,2.10079 1.21875,4.28125 l 0,3.78125 c -3e-5,3.0301 -0.42776,4.82284 -1.28125,5.375 -0.85355,0.55225 -2.34247,0.84379 -4.46875,0.84375 l 0,-15.3125 z m -50.84375,26 c 2.81507,0.085 4.55987,0.43954 5.21875,1.0625 0.65883,0.62304 0.96871,2.39867 0.96875,5.34375 l 0,6.4375 c -4e-5,2.7752 -0.36006,4.51082 -1.09375,5.21875 -0.73375,0.70798 -2.42842,1.1025 -5.09375,1.1875 l 0,-19.25 z"
       id="path3039"
       style="font-size:89.46191406px;font-style:normal;font-variant:normal;font-weight:normal;font-stretch:normal;line-height:125%;letter-spacing:0px;word-spacing:0px;fill:#f10603;fill-opacity:1;stroke:none;font-family:Impact;-inkscape-font-specification:Impact" />
    <path
       d="m 238.9375,208.78125 0,14.84375 58.84375,0 c 1.74099,-5.06108 3.69052,-10.00695 5.875,-14.84375 l -64.71875,0 z"
       id="rect3051"
       style="color:#000000;fill:#f10603;fill-opacity:1;fill-rule:nonzero;stroke:none;stroke-width:7;marker:none;visibility:visible;display:inline;overflow:visible;enable-background:accumulate" />
    <path
       d="m 681.8125,246.8125 0,-20.6875 -442.875,0 0,20.6875 z"
       id="rect3053"
       style="color:#000000;fill:#6b3a11;fill-opacity:1;fill-rule:nonzero;stroke:none;stroke-width:7;marker:none;visibility:visible;display:inline;overflow:visible;enable-background:accumulate" />
    <path
       d="m 619.59375,208.78125 c 2.18451,4.83685 4.16524,9.78261 5.90625,14.84375 l 56.3125,0 0,-14.84375 -62.21875,0 z"
       id="rect3057"
       style="color:#000000;fill:#f10603;fill-opacity:1;fill-rule:nonzero;stroke:none;stroke-width:7;marker:none;visibility:visible;display:inline;overflow:visible;enable-background:accumulate" />
    <path
       d="m 650.875,117.625 c 0,0 -59.24946,41.91145 -62.77232,38.48214 C 584.57982,152.67783 630.0625,93.75 630.0625,93.75 c 0,0 -54.58571,51.2622 -57.62054,48.64286 C 569.40714,139.77352 606.46875,73 606.46875,73 c 0,0 -49.56014,57.71112 -52.46875,55.67857 -2.90861,-2.03254 26.40625,-73.08482 26.40625,-73.08482 0,0 -42.42328,64.82478 -45.47768,63.15179 -3.0544,-1.673 17.35268,-76.99554 17.35268,-76.99554 0,0 -33.07875,70.48024 -37.19196,69.24554 -4.11321,-1.2347 7.41071,-79.33929 7.41071,-79.33929 0,0 -25.45877,75.05705 -28.95982,74.35268 -3.50105,-0.70437 -2.10268,-80.41518 -2.10268,-80.41518 0,0 -16.06759,78.57762 -19.97129,78.31044 -3.9037,-0.26718 -12.02871,-80.18544 -12.02871,-80.18544 0,0 -8.05355,80.00466 -11.62627,80.30917 -3.57272,0.30451 -20.90498,-77.71542 -20.90498,-77.71542 0,0 3.85856,79.96084 -0.67989,80.76777 -4.53844,0.80693 -29.03886,-74.39277 -29.03886,-74.39277 0,0 13.65641,77.67952 9.32011,79.19765 C 402.17131,113.40329 367,43.40625 367,43.40625 c 0,0 23.93936,73.73333 19.38261,75.90371 -4.55674,2.17039 -46.69511,-61.90371 -46.69511,-61.90371 0,0 29.70646,69.48793 26.29981,72.02617 -3.40665,2.53825 -52.58106,-53.80742 -52.58106,-53.80742 0,0 38.14673,65.37908 35.34375,67.84375 -2.80298,2.46467 -57.625,-47.5625 -57.625,-47.5625 0,0 46.86949,58.25711 43.84375,61.34375 -3.02574,3.08664 -63.34375,-38.5 -63.34375,-38.5 0,0 51.11687,52.58681 48.59375,56.4375 -2.52312,3.85069 -66.5625,-28.625 -66.5625,-28.625 0,0 55.33186,42.55018 53.66071,46.75 -1.67114,4.19982 -65.22321,-22.65625 -65.22321,-22.65625 l 28.27274,16.82453 c 1.91714,1.34506 1.80733,2.23285 1.32101,3.64422 l -32.75,3.45313 0,10.89062 66.8125,0 c 27.99145,-58.32663 81.05784,-98.6875 155.15625,-98.6875 74.09841,0 127.72436,38.82342 156.84375,98.6875 l 64.0625,0 0,-10.89062 -34.6875,-2.04688 c -1.39367,-1.61147 -0.21486,-3.00391 0.97086,-3.97053 l 32.71664,-18.90447 c 0,0 -64.26773,24.93879 -66.25,22.59375 -1.98227,-2.34504 52.90625,-49.625 52.90625,-49.625 0,0 -63.51818,34.68162 -65.98214,31.07918 C 599.02265,170.10174 650.875,117.625 650.875,117.625 z"
       id="path3856"
       style="color:#000000;fill:#f69302;fill-opacity:1;fill-rule:nonzero;stroke:#d50d00;stroke-width:1.70000005;stroke-linecap:butt;stroke-linejoin:round;stroke-miterlimit:4;stroke-opacity:1;stroke-dasharray:none;marker:none;visibility:visible;display:inline;overflow:visible;enable-background:accumulate" />
    <path
       d="m 548.25,141.25 c -2.69751,6e-5 -5.09258,0.49667 -7.15625,1.53125 -2.06373,1.03471 -3.78878,2.58703 -5.21875,4.65625 l 0.34375,-5.1875 -20.03125,0 0,23.625 19.6875,0 0,-2.84375 c 0,-4.25195 0.17373,-6.86575 0.53125,-7.84375 0.35746,-0.97789 1.22748,-1.4687 2.625,-1.46875 1.33244,5e-5 2.14498,0.43092 2.4375,1.28125 0.29246,0.85045 0.4375,3.21032 0.4375,7.09375 l 0,3.78125 19.6875,0 0,-6.75 c -4e-5,-4.93227 -0.28883,-8.45064 -0.90625,-10.5625 -0.61754,-2.11177 -2.01133,-3.86096 -4.15625,-5.25 -2.145,-1.3889 -4.90137,-2.06244 -8.28125,-2.0625 z m -181.46875,1.65625 0,22.96875 18.90625,0 0,-11.21875 c 1.94658,0.0284 3.26365,0.17976 3.9375,0.40625 0.6738,0.22661 1.2057,0.76134 1.625,1.625 0.41924,0.86375 0.62496,2.37911 0.625,4.53125 -2e-5,1.92029 -0.0466,3.45014 -0.15625,4.65625 l 17.53125,0 c 0.13012,-1.02194 0.18748,-2.15039 0.1875,-3.40625 -5e-5,-5.9468 -0.92583,-10.23011 -2.8125,-12.90625 -1.88677,-2.67601 -4.36787,-4.46582 -7.4375,-5.34375 -3.06969,-0.8778 -7.57163,-1.31244 -13.53125,-1.3125 l -18.875,0 z m 50.84375,0 0,22.96875 18.90625,0 0,-11.21875 c 2.18617,6e-5 3.70766,0.35166 4.53125,1.03125 0.82354,0.67968 1.21872,2.10079 1.21875,4.28125 l 0,3.78125 c -10e-6,0.7991 -0.0343,1.49807 -0.0937,2.125 l 17.46875,0 c 0.11573,-1.2536 0.18749,-2.63901 0.1875,-4.1875 -5e-5,-5.86184 -0.97725,-10.13636 -2.96875,-12.8125 -1.99158,-2.67601 -4.59052,-4.34861 -7.75,-5 -3.15953,-0.65126 -9.20056,-0.96869 -18.125,-0.96875 l -13.375,0 z m 49.3125,0 0,22.96875 18.9375,0 0,-22.96875 -18.9375,0 z m 24.375,0 0,22.96875 18.90625,0 0,-22.96875 -18.90625,0 z"
       id="path3779"
       style="font-size:89.46191406px;font-style:normal;font-variant:normal;font-weight:normal;font-stretch:normal;line-height:125%;letter-spacing:0px;word-spacing:0px;fill:#f69302;fill-opacity:1;stroke:none;font-family:Impact;-inkscape-font-specification:Impact" />
    <path
       d="m 366.78125,187.84375 0,23.8125 21.875,0 c 7.60673,0 12.63798,-0.39752 15.09375,-1.21875 2.45569,-0.82122 4.2519,-2.3566 5.375,-4.59375 1.123,-2.23714 1.68746,-5.66829 1.6875,-10.3125 l 0,-6.375 c 0,-0.45177 -0.0152,-0.88412 -0.0312,-1.3125 l -18.90625,0 0,5.65625 c -4e-5,2.7752 -0.36006,4.51082 -1.09375,5.21875 -0.73375,0.70798 -2.42842,1.1025 -5.09375,1.1875 l 0,-12.0625 -18.90625,0 z m 50.84375,0 0,23.8125 18.90625,0 0,-23.8125 -18.90625,0 z m 24.625,0 c 0.006,0.33046 0.0312,0.61205 0.0312,0.96875 l 0,22.84375 17.5625,0 0,-18.125 c -2e-5,-2.30282 -0.0402,-4.1315 -0.0937,-5.6875 l -17.5,0 z m 24.71875,0 c 0.0529,5.356 0.19792,9.09429 0.4375,11.03125 0.29947,2.42123 1.2591,4.72575 2.90625,6.90625 1.64713,2.18052 4.14452,3.92198 7.46875,5.28125 3.3242,1.35928 7.15753,2.0625 11.5,2.0625 3.92314,0 7.32874,-0.57186 10.21875,-1.71875 2.88994,-1.1469 5.20179,-2.83951 6.96875,-5.0625 1.76689,-2.22298 2.82809,-4.39028 3.1875,-6.5 0.35934,-2.1097 0.56245,-5.75817 0.5625,-10.96875 l 0,-1.03125 -18.90625,0 0,5.71875 c -3e-5,3.42654 -0.18688,5.61092 -0.53125,6.53125 -0.34443,0.92035 -1.11461,1.37501 -2.3125,1.375 -1.0482,1e-5 -1.74937,-0.4146 -2.09375,-1.25 -0.34443,-0.83538 -0.50002,-2.74825 -0.5,-5.75 l 0,-6.625 -18.90625,0 z m 49.21875,0 0,23.8125 19.6875,0 0,-23.8125 -19.6875,0 z m 25.71875,0 0,23.8125 19.6875,0 0,-23.8125 -19.6875,0 z"
       id="rect3784"
       style="color:#000000;fill:#6b3a11;fill-opacity:1;fill-rule:nonzero;stroke:none;stroke-width:2;marker:none;visibility:visible;display:inline;overflow:visible;enable-background:accumulate" />
    <path
       d="m 88.71875,226.125 0,19.875 26,0 0,-10.9375 -11,0 0,-8.9375 -15,0 z m 30.1875,0 c 0.027,4.74067 0.10964,8.04337 0.3125,9.6875 0.23763,1.92591 1.00552,3.76557 2.3125,5.5 1.30695,1.73445 3.29979,3.13754 5.9375,4.21875 2.63768,1.08121 5.67935,1.625 9.125,1.625 3.11293,0 5.8006,-0.46273 8.09375,-1.375 2.2931,-0.91227 4.12921,-2.26302 5.53125,-4.03125 1.40199,-1.76822 2.24605,-3.47811 2.53125,-5.15625 0.28511,-1.67812 0.43747,-4.60534 0.4375,-8.75 l 0,-1.71875 -15,0 0,5.46875 c -3e-5,2.72556 -0.133,4.45545 -0.40625,5.1875 -0.2733,0.73208 -0.89326,1.09376 -1.84375,1.09375 -0.83172,1e-5 -1.383,-0.30425 -1.65625,-0.96875 -0.27329,-0.66448 -0.40626,-2.20608 -0.40625,-4.59375 l 0,-6.1875 -14.96875,0 z m 40.09375,0 0,19.875 15,0 0,-19.875 -15,0 z m 19.53125,0 c 0.0208,0.51831 0.0312,1.06979 0.0312,1.6875 l 0,18.1875 13.9375,0 0,-14.4375 c -2e-5,-2.26844 -0.0277,-4.07552 -0.0937,-5.4375 l -13.875,0 z m 19.4375,0 c 0.0369,4.12329 0.14117,7.1842 0.375,9.03125 0.28515,2.25252 1.19043,4.33536 2.6875,6.25 1.49707,1.91464 3.47801,3.35518 5.9375,4.3125 2.45945,0.95732 5.22329,1.4375 8.3125,1.4375 3.25551,0 6.11489,-0.51762 8.5625,-1.53125 2.44756,-1.01363 4.37481,-2.45163 5.8125,-4.34375 1.43763,-1.89212 2.2892,-3.99493 2.5625,-6.28125 0.22285,-1.86463 0.35836,-4.87192 0.40625,-8.875 l -15,0 0,4.375 c -2e-5,3.22112 -0.12112,5.23781 -0.40625,6.09375 -0.28518,0.85597 -0.94696,1.28126 -1.96875,1.28125 -0.99806,1e-5 -1.633,-0.35041 -1.90625,-1.09375 -0.2733,-0.74332 -0.40627,-2.69894 -0.40625,-5.875 l 0,-4.78125 -14.96875,0 z m 491.75,0 0,19.875 14.40625,0 0,-19.875 -14.40625,0 z m 18.75,0 c 0.0221,0.51831 0.0312,1.06979 0.0312,1.6875 l 0,18.1875 13.375,0 0,-14.4375 c -2e-5,-2.26844 -0.0265,-4.07552 -0.0937,-5.4375 l -13.3125,0 z m 18.375,0 -2.65625,19.875 14.90625,0 0.84375,-9.84375 5.1875,0 0.71875,9.84375 14.71875,0 -3,-19.875 -12.90625,0 c 0.0127,0.10909 0.0185,0.23554 0.0312,0.34375 l -4.90625,0 c 0.008,-0.10014 0.0232,-0.24121 0.0312,-0.34375 l -12.96875,0 z m 35.25,0 0,0.4375 c -10e-6,5.36101 0.42345,9.39328 1.3125,12.0625 0.88905,2.66924 2.70196,4.74082 5.4375,6.25 2.73552,1.50919 6.2202,2.28125 10.4375,2.28125 4.0577,0 7.48024,-0.90801 10.25,-2.6875 2.76969,-1.77948 4.56569,-3.8536 5.375,-6.21875 0.80922,-2.36513 1.18747,-6.37741 1.1875,-12.03125 l 0,-0.0937 -14.375,0 0,4.84375 c -4e-5,2.99585 -0.16947,4.8766 -0.5,5.6875 -0.33056,0.81092 -1.02235,1.21876 -2.09375,1.21875 -1.11703,1e-5 -1.83712,-0.40783 -2.15625,-1.21875 -0.31917,-0.8109 -0.50001,-2.52952 -0.5,-5.1875 l 0,-5.34375 -14.375,0 z m 39.0625,0 0,19.875 14.40625,0 0,-19.875 -14.40625,0 z m 19.84375,0 0,19.875 14.65625,0 0,-19.875 -14.65625,0 z m 19.15625,0 0,19.875 14.65625,0 0,-19.875 -14.65625,0 z m 18.21875,0 0,1.125 c 0,3.76172 0.13269,6.58791 0.40625,8.46875 0.27354,1.88087 0.93704,3.66309 2.03125,5.375 1.09422,1.71192 2.70384,3.15244 4.8125,4.3125 2.10862,1.16004 4.36485,1.75 6.78125,1.75 2.02883,0 3.78808,-0.43656 5.28125,-1.28125 1.49313,-0.84469 2.73849,-2.12311 3.71875,-3.8125 L 882.75,246 l 9.0625,0 0,-19.875 -13.96875,0 0,5.3125 c -10e-6,2.54536 -0.18639,4.24652 -0.5625,5.125 -0.37617,0.87848 -1.0764,1.31251 -2.125,1.3125 -0.95745,1e-5 -1.58712,-0.37912 -1.90625,-1.15625 -0.31916,-0.77711 -0.50002,-2.3885 -0.5,-4.84375 l 0,-5.75 -14.375,0 z"
       id="path3789"
       style="color:#000000;fill:#6b3a11;fill-opacity:1;fill-rule:nonzero;stroke:none;stroke-width:7;marker:none;visibility:visible;display:inline;overflow:visible;enable-background:accumulate" />
  </g>
</svg>
