<svg viewBox="5.93865 0 160.73946 44.79003048780487" xmlns="http://www.w3.org/2000/svg" data-name="Layer 1" id="Layer_1" style="max-height: 500px" width="160.73946" height="44.79003048780487"><title>Aston Martin F1 logo - Brandlogos.net</title><path transform="translate(-186.04 -319)" d="M387.81,383.72c0,16.94.12,43.12.77,65.28h.14c.65-22.16.78-49.5.78-66.38,0-6.24,0-37.91-.78-63.63h-.14C388.06,336.69,387.81,359.69,387.81,383.72Z"/><path transform="translate(-186.04 -319)" d="M272.78,374.94c-22.5,0-57.29.12-86.74.77v.15c29.44.65,65.77.78,88.2.78,8.3,0,50.37,0,84.54-.78v-.15c-23.53-.52-54.08-.77-86-.77"/><path transform="translate(-186.04 -319)" d="M349.24,326.33H285.36a5.55,5.55,0,0,0-4.48,1.69c-1.61,1.61-1.13,3.23-3.81,3.23h-9.32c-2.67,0-2.18-1.6-3.81-3.23a5.55,5.55,0,0,0-4.48-1.69H195.59a2.33,2.33,0,0,0-2.1,3.69l1.15,1.92a2.62,2.62,0,0,0,2,1.34,1.54,1.54,0,0,1,1.31.92l1,1.78a3,3,0,0,0,2.41,1.75c.55.11,1,.15,1.73,1.38a6.74,6.74,0,0,0,4.06,3.72l23.87,7a6.12,6.12,0,0,1,3.85,2.77,7.79,7.79,0,0,0,4.78,3.41l22.69,6.13a4.74,4.74,0,0,0,4.65-1.15l4.12-3.9c1.06-1,1.51-1,2.56,0l4.12,3.9a4.73,4.73,0,0,0,4.65,1.15L305.16,356a7.74,7.74,0,0,0,4.78-3.41,6.12,6.12,0,0,1,3.85-2.77l23.87-7a6.73,6.73,0,0,0,4.06-3.72c.68-1.24,1.17-1.28,1.73-1.38a3,3,0,0,0,2.41-1.76l1-1.78a1.53,1.53,0,0,1,1.3-.92,2.63,2.63,0,0,0,2-1.34l1.15-1.92a2.32,2.32,0,0,0-2.11-3.68m-153.62,4-.69-1.15c-.21-.35-.34-1.12.65-1.12h63.9c1.29,0,2.74,0,4.15,2.43a8.26,8.26,0,0,0,.67,1H199.54c-2.63,0-3.14,0-3.92-1.19m41.44,2.49h70.7v11.08h-70.7Zm-36.38,2.73a25.64,25.64,0,0,1-1.53-2.58l36.65-.15v1.61l-31,1.8c-2.4.16-3.39,0-4.1-.69m4.8,4.23a10.37,10.37,0,0,1-.89-1.42,6.56,6.56,0,0,0-.41-.65l1.36-.09,30.25-1.87v1.72L211.89,340c-3.23.34-5.41.83-6.41-.26m8.19,3.26-4.35-1.27c2.9-.35,26.47-3,26.47-3v1.92l-15.33,2.46a14.87,14.87,0,0,1-6.79-.13m10.63,3.09-4.84-1.41c.46-.06.73-.11,1.24-.2l15.11-2.52V344l-5.69,1.61s-3.54,1.06-5.81.44m7.21,2.1h0l-2.79-.81a17.66,17.66,0,0,0,1.76-.43l6.18-1.81h6.91l-6.39,3a8.62,8.62,0,0,1-5.66.07m6.35,5.15a6.13,6.13,0,0,1-1.61-1.72,8.59,8.59,0,0,0-1.34-1.61,8.64,8.64,0,0,0,1.5-.23,21.88,21.88,0,0,0,2.41-.91l7.69-3.74h5.11l-10.05,7.14c-1.55,1-2.78,1.38-3.71,1.07m7.59,2.47-4.92-1.33a10.9,10.9,0,0,0,1.84-1c.51-.33-.08.09,11.6-8.34h4.28l-7.88,8.07c-1.38,1.42-2.9,3-4.91,2.61m7.78,2.1-4.63-1.25a13.8,13.8,0,0,0,2.82-2.43l8.76-9.09H264l-7,10.89a3.53,3.53,0,0,1-3.82,1.87m8.13,2.19-4.93-1.33a6.17,6.17,0,0,0,1.93-2l7.31-11.61H269s-4.29,12.58-4.59,13.22c-.86,1.84-1.84,2-3,1.74m17.57-.39-4.08-3.87c-1.71-1.61-3.17-1.61-4.88,0l-4.08,3.87a4.06,4.06,0,0,1-.94.64,10,10,0,0,0,1.48-3.11l4-12.1h3.87l4,12.1a10.11,10.11,0,0,0,1.48,3.11,4.06,4.06,0,0,1-.94-.64m4.52.39c-1.2.23-2.18.1-3-1.74-.3-.64-4.59-13.22-4.59-13.22h3.32l7.31,11.61a6.14,6.14,0,0,0,1.93,2Zm8.14-2.19a3.54,3.54,0,0,1-3.82-1.87l-7-10.9h3.85l8.76,9.09a13.52,13.52,0,0,0,2.82,2.43Zm7.77-2.1c-2,.39-3.52-1.19-4.91-2.61l-7.88-8.07h4.28s11.09,8,11.6,8.34a10.9,10.9,0,0,0,1.84,1Zm9.2-4.19a5.87,5.87,0,0,1-1.61,1.72c-.92.3-2.16-.07-3.71-1.07-.44-.28-10.06-7.13-10.06-7.13h5.12s5.91,2.92,7.68,3.74A10.11,10.11,0,0,0,309.9,350a8.51,8.51,0,0,0-1.34,1.61m4.77-3.42h0a8.61,8.61,0,0,1-5.66-.07c-.74-.28-6.39-3-6.39-3h6.91l6.18,1.81a17.85,17.85,0,0,0,1.76.43l-2.79.81m7.22-2.1c-2.27.62-5.81-.44-5.81-.44L309,344v-2.07l15.11,2.52,1.24.2-4.84,1.41m10.62-3.1a14.88,14.88,0,0,1-6.79.13L309,340.65v-1.92l26.47,3L331.16,343m9.07-4.68a10.59,10.59,0,0,1-.88,1.43c-1,1.09-3.19.61-6.41.26L309,337.43v-1.73l30.25,1.87,1.36.09a7.54,7.54,0,0,0-.41.65m3.46-2.58c-1.17.75-2.49.53-6.43.3l-28.2-1.64v-1.61l36.63.16c-.75,1.05-1,2.12-2,2.78m6.22-6.58-.69,1.15c-.78,1.21-1.29,1.2-3.92,1.19H280.54a8,8,0,0,0,.67-1c1.4-2.44,2.86-2.43,4.15-2.43h63.9c1,0,.86.77.64,1.12m-72.16,12.51c-.16-2-.28-3.18-.37-4a41.68,41.68,0,0,0-2,3.89H275c-1.07-2.19-1.2-2.44-1.51-3-.1-.19-.23-.42-.43-.83-.09.79-.25,2.35-.37,3.94h-1.12c.32-2.3.83-6.22.87-6.55h.67s1.58,3.16,2.27,4.35c.8-1.47,1.32-2.52,2.36-4.35h.61c.11.94.46,3.94.78,6.55Zm20.19-6.55h-1.3v6.55h1.3Zm-3.9,6.55v-5.58a15.38,15.38,0,0,1,1.95.14v-1.11h-5.28v1.1a18.81,18.81,0,0,1,2-.13v5.58Zm-40.89,0v-5.58a15.35,15.35,0,0,1,1.95.14v-1.11h-5.28v1.1a18.85,18.85,0,0,1,2-.13v5.58Zm15.15,0v-6.55h-1v4.23l-3.9-4.23h-.73v6.55h1v-4.43l4,4.43Zm-22.8-1.84v1.46a3,3,0,0,0,1.78.55c1.41,0,2.66-.79,2.66-2.14a1.77,1.77,0,0,0-1.12-1.67,9.26,9.26,0,0,1-1.72-.77c-.65-.55-.12-1.42.76-1.42a1.07,1.07,0,0,1,1.11.73h.48v-1.2a3.94,3.94,0,0,0-1.64-.41,2.4,2.4,0,0,0-1.44.46,1.75,1.75,0,0,0,.14,3.07c.89.53,2.1.46,2.13,1.44,0,.72-.67,1-1.18,1a1.56,1.56,0,0,1-1.43-1.09Zm0,1.84L242.6,335h-.54l-3,6.68h1.23a18.63,18.63,0,0,1,.64-1.84h2.33c.29.72.52,1.36.69,1.84Zm-4.16-2.7.81-1.9c.63,1.44.68,1.54.82,1.9Zm20.5-.57a3.4,3.4,0,1,0-3.39,3.5,3.33,3.33,0,0,0,3.39-3.5m-3.4,2.63h0c-1,0-2-1-2-2.63s1-2.63,2-2.63h0c1,0,2,.91,2,2.63S259.39,341,258.41,341Zm27.66.64h1.29v-2.7h.32l2.19,2.7h1.61L289,338.76a2.45,2.45,0,0,0,.87-.54,1.81,1.81,0,0,0,0-2.56h0a2.38,2.38,0,0,0-1.94-.6s-1.5,0-1.88,0Zm1.29-5.76.44,0c1.33,0,1.37,1,1.37,1.12,0,.69-.61,1.31-1.82,1.11Zm-1.61,5.76L282.87,335h-.54l-3,6.68h1.23a18.63,18.63,0,0,1,.64-1.84h2.32c.29.72.52,1.36.69,1.84Zm-4.18-2.7.81-1.9c.62,1.44.68,1.54.82,1.9Zm23.35,2.7v-6.55h-1v4.23l-3.9-4.23h-.73v6.55h1v-4.43l4,4.43Z"/><path transform="translate(-186.04 -319)" d="M260.47,431.06h-.81l-5,11.13h1.89a31.06,31.06,0,0,1,1.08-3.11h4c.5,1.21.88,2.3,1.17,3.11h2.37Zm-.77,3.23c1.2,2.77,1.22,2.77,1.5,3.5h-3c.32-.73.32-.75,1.49-3.5"/><path transform="translate(-186.04 -319)" d="M336.06,431.06h-.82l-5,11.13h1.9a30.45,30.45,0,0,1,1.08-3.11h4c.49,1.21.88,2.3,1.17,3.11h2.36Zm-.77,3.23c1.2,2.77,1.22,2.77,1.5,3.5h-3l1.48-3.5"/><path transform="translate(-186.04 -319)" d="M232,442.19c-.29-3.46-.49-5.53-.65-6.91a72.8,72.8,0,0,0-3.44,6.75h-.64c-1.89-3.86-2.09-4.24-2.52-5.05-.19-.35-.4-.75-.86-1.63-.08.69-.42,3.74-.65,6.85h-1.71c.54-3.92,1.4-10.53,1.45-10.91h1l.45.89c1.25,2.5,2.24,4.47,3.44,6.52l0,0,0,0c.54-1,1-1.91,1.5-2.81.73-1.38,1.49-2.82,2.5-4.61h.91c0,.35.66,5.74,1.3,10.91Z"/><path transform="translate(-186.04 -319)" d="M352.06,442.19c-.28-3.46-.49-5.53-.64-6.91A72.8,72.8,0,0,0,348,442h-.63c-1.89-3.86-2.09-4.24-2.52-5.05-.19-.35-.4-.75-.86-1.63-.08.69-.42,3.74-.65,6.85h-1.71c.54-3.92,1.4-10.53,1.45-10.91h1l.45.89c1.25,2.5,2.24,4.47,3.44,6.52l0,0,0,0c.54-1,1-1.91,1.51-2.81.73-1.38,1.49-2.82,2.5-4.61h.91c0,.35.66,5.74,1.3,10.91Z"/><path transform="translate(-186.04 -319)" d="M204.19,442.57a5.66,5.66,0,0,1-3.94-1.52,6.24,6.24,0,0,1,0-8.62,5.66,5.66,0,0,1,3.94-1.52,5.54,5.54,0,0,1,5.19,3.35,6.39,6.39,0,0,1,.46,2.48,5.75,5.75,0,0,1-1.73,4.31,5.66,5.66,0,0,1-3.94,1.52m0-1.3c1.69,0,3.4-1.56,3.4-4.53s-1.71-4.53-3.4-4.53h0c-1.68,0-3.39,1.56-3.39,4.53s1.71,4.53,3.4,4.53h0Z"/><path transform="translate(-186.04 -319)" d="M276.27,442.57a5.66,5.66,0,0,1-3.94-1.52,6.24,6.24,0,0,1,0-8.62,5.66,5.66,0,0,1,3.94-1.52,5.55,5.55,0,0,1,5.2,3.35,6.39,6.39,0,0,1,.46,2.48A5.74,5.74,0,0,1,280.2,441a5.66,5.66,0,0,1-3.94,1.52m0-1.3c1.69,0,3.4-1.56,3.4-4.53s-1.71-4.53-3.4-4.53h0c-1.69,0-3.4,1.56-3.4,4.53s1.71,4.53,3.4,4.53Z"/><path transform="translate(-186.04 -319)" d="M211.8,431.27c.59,0,3.08-.06,3.1-.06,1.87,0,2.6.36,3.23,1a2.93,2.93,0,0,1,.88,2.18,3.05,3.05,0,0,1-.88,2.06,4.23,4.23,0,0,1-1.55.94l4.1,4.82h-2.5l-3.69-4.55h-.67v4.56h-2Zm2.84,1.13a5.7,5.7,0,0,0-.81.06h0v3.86h0a4.69,4.69,0,0,0,.83.08,2.12,2.12,0,0,0,2.38-2h0a2,2,0,0,0-.55-1.35,2.5,2.5,0,0,0-1.84-.63"/><polygon points="61.7 123.19 61.7 112.28 63.72 112.28 63.72 121.75 68.23 121.75 68.23 123.19 61.7 123.19"/><polygon points="118.09 112.71 117.26 112.71 117.26 112.28 119.47 112.28 119.47 112.71 118.63 112.71 118.63 115.12 118.09 115.12 118.09 112.71"/><path transform="translate(-186.04 -319)" d="M308.4,433c0-.37,0-.81,0-1.19h0c-.09.35-.22.73-.35,1.09l-.43,1.23h-.43l-.39-1.21c-.11-.36-.22-.75-.3-1.1h0c0,.37,0,.82-.05,1.21l-.07,1.15h-.5l.2-2.84h.71l.38,1.15c.11.33.2.67.27,1h0c.08-.31.18-.66.29-1l.41-1.14h.71l.17,2.84h-.52Z"/><path transform="translate(-186.04 -319)" d="M292.29,442.19c-.46-.58-3.71-4.17-6.82-7.61v7.61h-1.58V431.28H285l6.71,7.27v-7.27h1.57v10.91Z"/><path transform="translate(-186.04 -319)" d="M316.15,442.19v-9.43a31.61,31.61,0,0,0-3.44.22v-1.69h8.76V433a25.66,25.66,0,0,0-3.29-.23v9.43Z"/><path transform="translate(-186.04 -319)" d="M297.75,440.74v-3.52h3.9v-1.33h-3.9v-3.23c.92,0,2.22,0,4.44.14v-1.54h-6.47v10.91h6.65v-1.59c-1.47.09-3.16.16-4.62.16"/><path transform="translate(-186.04 -319)" d="M324.91,440.74v-3.52h3.9v-1.33h-3.9v-3.23c.92,0,2.22,0,4.45.14v-1.54h-6.47v10.91h6.65v-1.59c-1.47.09-3.16.16-4.63.16"/><path transform="translate(-186.04 -319)" d="M243.53,431.28c.07,4.19,0,5.85,0,5.85,0,1.36-.08,3.82-2.72,3.82-.93,0-2.8-.15-2.8-3.26,0-2.82.07-6.28.07-6.41H236v6.4c0,4.47,3.6,4.66,4.5,4.66,2.58,0,4.61-1.18,4.66-4.75v-6.31Z"/><path transform="translate(-186.04 -319)" d="M197.26,432.84h0v-1.56h-6.64V442.2h2v-4.7h4.11v-1.43h-4.11v-3.39c2,0,3.23.06,4.61.15"/><path transform="translate(-186.04 -319)" d="M358.21,388.08a2.15,2.15,0,1,1-2.15-2.15,2.15,2.15,0,0,1,2.15,2.15m-.29,0a1.84,1.84,0,1,0-1.84,1.86,1.87,1.87,0,0,0,1.84-1.86m-1.47.18.65,1h-.5l-.58-.95h-.34v.95h-.41v-2.37h.89a.72.72,0,0,1,.73.71h0a.67.67,0,0,1-.45.67m-.77-.31h.44a.35.35,0,0,0,.36-.33h0a.34.34,0,0,0-.35-.33h-.45Zm-77.9,4.95H281v19.36h-3.23ZM266,392.47a8.85,8.85,0,0,0-5.65,2V392.9h-3.23v19.36h3.23V401.34a5.65,5.65,0,0,1,11.29,0v10.91h3.23V401.34a8.87,8.87,0,0,0-8.87-8.87m-15.32.43h3.23v18.62h0a10.33,10.33,0,0,1-10.1,10.1,9.77,9.77,0,0,1-9.62-7h3.46a6.49,6.49,0,0,0,6.15,3.78,7.11,7.11,0,0,0,6.87-6.87V410a10.1,10.1,0,1,1,0-14.8Zm0,9.68a6.87,6.87,0,1,0-6.87,6.87,6.87,6.87,0,0,0,6.87-6.87h0m-49.92-6.88a6.88,6.88,0,0,1,6.22,4h3.44a10.1,10.1,0,1,0,0,5.82H207a6.88,6.88,0,1,1-6.22-9.78m31.39,6.87a10.1,10.1,0,1,1-10.1-10.1h0a10.1,10.1,0,0,1,10.1,10.1m-3.23,0a6.87,6.87,0,1,0-6.87,6.87h0a6.87,6.87,0,0,0,6.87-6.87m105.51-10.1a8.83,8.83,0,0,0-5.64,2V392.9h-3.23v19.36h3.23V401.34a5.65,5.65,0,1,1,11.29,0h0v10.91h3.23V401.34a8.87,8.87,0,0,0-8.87-8.87m-15.32.44h3.23v19.35h-3.23V410a10.1,10.1,0,1,1-6.87-17.5h0a10.07,10.07,0,0,1,6.87,2.7Zm0,9.66a6.87,6.87,0,1,0-6.87,6.87,6.87,6.87,0,0,0,6.87-6.87h0m35-6.45v-3.23h-4.84v-5.28H346v18.18a6.45,6.45,0,0,0,6.45,6.45h1.61V409h-1.61a3.23,3.23,0,0,1-3.23-3.23v-9.68Zm-74.68-10.2a2.14,2.14,0,1,0,2.14,2.14h0a2.14,2.14,0,0,0-2.14-2.14h0m21,7H284.24v3.23h12L284.26,409v3.23h16.13V409h-12l11.95-12.91Z"/><path transform="translate(-186.04 -319)" d="M568.89,371A13.14,13.14,0,1,0,582,384.2v-.07A13.17,13.17,0,0,0,568.89,371m0,20.31a7.13,7.13,0,0,1-.26-14.25h.26a7.13,7.13,0,0,1,0,14.25"/><path transform="translate(-186.04 -319)" d="M520.75,370.7a22.52,22.52,0,0,0-8.2,1.55,11.85,11.85,0,0,0-6.43-1.55,31.65,31.65,0,0,0-10.41,1.7l-.67.23v24.14h6.57V377a10.77,10.77,0,0,1,3.69-.59c3.25,0,4.21,1,4.21,4.43v16h6.64v-16.4a13.71,13.71,0,0,0-.29-3.32,10.73,10.73,0,0,1,3.54-.67c3.11,0,4.51,1.41,4.51,4.43v16h6.58V380.29c0-3.25-.52-5.17-2-6.8-1.63-1.77-4.36-2.8-7.75-2.8"/><path transform="translate(-186.04 -319)" d="M547.09,391.57c-4.38,0-6.89-2.72-6.89-7.47s2.54-7.65,7-7.65a7.69,7.69,0,0,1,5,1.64l2.78-4.77a10.6,10.6,0,0,0-3.9-2,20.15,20.15,0,0,0-4.21-.59c-7.91,0-13.2,5.49-13.2,13.63,0,7.84,5,12.89,12.83,12.89,0,0,5.22.23,8.73-3l-3.28-4.2a8,8,0,0,1-4.79,1.51"/><path transform="translate(-186.04 -319)" d="M461.4,370.92c-9.38,0-13.74,4.13-13.74,12.92v12.92h6.72v-13c0-4.43,2.51-7.16,6.43-7.16a14.82,14.82,0,0,1,3.77.52l1.55-5.83a36.33,36.33,0,0,0-4.72-.37"/><path transform="translate(-186.04 -319)" d="M491.2,383.11v13.66h-9c-6.2,0-8.94-.44-12.19-2.59-2.81-1.92-4.36-5.53-4.36-10.27,0-6.5,4.28-13.07,13.74-13.07,7.68,0,11.82,4.29,11.82,12.26m-6.58.74c0-5-1.92-7.38-5.76-7.38s-6.43,2.88-6.43,7.23c0,5.25,2.51,7.54,8.12,7.54h4.06Z"/><path transform="translate(-186.04 -319)" d="M444,383.11v13.66h-8.94c-6.2,0-8.94-.44-12.19-2.59-2.81-1.92-4.36-5.53-4.36-10.27,0-6.5,4.28-13.07,13.74-13.07,7.68,0,11.75,4.29,11.75,12.26m-6.8.74c0-5-1.77-7.38-5.69-7.38s-6.43,2.88-6.43,7.23c0,5.25,2.51,7.54,8.12,7.54h4Z"/></svg>